<?xml version="1.0" encoding="UTF-8"?>
<svg width="463px" height="414px" viewBox="0 0 463 414" version="1.1" xmlns="http://www.w3.org/2000/svg" xmlns:xlink="http://www.w3.org/1999/xlink">
    <title>FAVICON OPTIONS</title>
    <g id="FAVICON-OPTIONS" stroke="none" stroke-width="1" fill="none" fill-rule="evenodd">
        <path d="M12.9177953,48.7023952 C12.9177953,59.2248926 15.6346703,68.2811426 21.0684203,75.8711452 C26.5021703,83.4611005 33.1002953,89.3692281 40.8627953,93.5955202 C48.6252953,97.8217728 56.3877953,101.703023 64.1502953,105.23927 C71.9127953,108.775518 78.5109203,112.786147 83.9446703,117.271145 C89.3784203,121.756144 92.0952953,126.931144 92.0952953,132.796145 C92.0952953,145.561144 83.6427979,151.943645 66.7377953,151.943645 C51.557794,151.943645 33.186544,147.027395 11.6240453,137.194895 L11.6240453,168.503645 C28.7015453,176.783645 47.417794,180.923645 67.7727953,180.923645 C86.0577926,180.923645 100.935918,176.266145 112.40717,166.951145 C123.878423,157.636145 129.614045,145.129897 129.614045,129.432395 C129.614045,118.737397 126.89717,109.37927 121.46342,101.35802 C116.02967,93.3367702 109.431545,87.0836478 101.669045,82.5986452 C93.9065453,78.1136426 86.1440453,74.1030176 78.3815453,70.5667702 C70.6190453,67.0305228 64.0209203,63.1923952 58.5871703,59.0523952 C53.1534203,54.9123952 50.4365453,50.2548952 50.4365453,45.0798952 C50.4365453,40.4223952 52.2477953,36.5411452 55.8702953,33.4361452 C59.4927953,30.3311452 65.1852953,28.7786452 72.9477953,28.7786452 C90.3702979,28.7786452 107.792793,33.5223899 125.215295,43.0098952 L125.215295,11.9598952 C107.792793,3.85240046 89.4215426,-0.2013548 70.1015453,-0.2013548 C53.7140466,-0.2013548 40.0865453,4.11115046 29.2190453,12.7361452 C18.3515453,21.3611399 12.9177953,33.3499005 12.9177953,48.7023952 Z" id="Path" fill="#12B54A" fill-rule="nonzero"></path>
        <polygon id="Path" fill="#12B54A" fill-rule="nonzero" points="203.725678 178.336145 239.950678 178.336145 239.950678 32.6598952 283.679428 32.6598952 283.679428 2.3861452 159.996928 2.3861452 159.996928 32.6598952 203.725678 32.6598952"></polygon>
        <path d="M373.206928,180.923645 C393.561878,180.923645 409.776875,175.964265 421.851928,166.04552 C433.926933,156.126775 439.964428,140.299903 439.964428,118.564895 L439.964428,2.3861452 L403.739428,2.3861452 L403.739428,118.564895 C403.739428,127.879895 401.238181,135.728644 396.235678,142.111145 C391.233175,148.493643 383.556928,151.684895 373.206928,151.684895 C362.856928,151.684895 355.223803,148.536773 350.307553,142.24052 C345.391303,135.944272 342.933178,128.052397 342.933178,118.564895 L342.933178,2.3861452 L306.708178,2.3861452 L306.708178,118.564895 C306.708178,140.127402 312.788803,155.911152 324.950053,165.916145 C337.111303,175.921143 353.196925,180.923645 373.206928,180.923645 Z" id="Path" fill="#12B54A" fill-rule="nonzero"></path>
        <path d="M21,235 L21,411 L86.8345588,411 C113.272059,411 132.40901,403.450979 144.245404,388.352941 C156.081807,373.254903 162,351.039218 162,321.705882 C162,292.717647 156.124995,271.019613 144.375,256.611765 C132.624997,242.203916 113.44485,235 86.8345588,235 L21,235 Z M57,381 L57,266 L86.4903475,266 C100.631915,266 110.418919,269.996637 115.851351,277.98991 C121.283784,285.983184 124,300.723465 124,322.210762 C124,344.041851 121.240672,359.297831 115.722008,367.9787 C110.203344,376.659536 100.459459,381 86.4903475,381 L57,381 Z" id="Shape" fill="#12B54A" fill-rule="nonzero"></path>
        <polygon id="Path" fill="#12B54A" fill-rule="nonzero" points="242.711044 235.261145 206.486044 235.261145 206.486044 411.211145 242.711044 411.211145"></polygon>
        <path d="M367.870466,414 C417.956817,414 443,383.402382 443,322.207143 C443,292.902378 437.084634,270.708328 425.253886,255.625 C413.423146,240.541672 394.295337,233 367.870466,233 C341.618305,233 322.576854,240.541672 310.746114,255.625 C298.91537,270.708328 293,292.902378 293,322.207143 C293,351.856664 298.91537,374.567857 310.746114,390.340714 C322.576858,406.113571 341.618305,414 367.870466,414 Z M367.370242,262 C381.384083,262 391.159167,266.522059 396.695502,275.566176 C402.231837,284.610294 405,300.15756 405,322.207983 C405,344.430672 402.188579,360.451681 396.565744,370.271008 C390.942909,380.090336 381.211075,385 367.370242,385 C353.702425,385 344.057095,380.090336 338.434256,370.271008 C332.811417,360.451681 330,344.430672 330,322.207983 C330,300.15756 332.768167,284.610294 338.304498,275.566176 C343.840829,266.522059 353.529409,262 367.370242,262 Z" id="Shape" fill="#12B54A" fill-rule="nonzero"></path>
    </g>
</svg>