<?xml version="1.0" encoding="UTF-8"?>
<svg width="500px" height="500px" viewBox="0 0 500 500" version="1.1" xmlns="http://www.w3.org/2000/svg" xmlns:xlink="http://www.w3.org/1999/xlink">
    <title>02 AVATAR</title>
    <g id="02-AVATAR" stroke="none" stroke-width="1" fill="none" fill-rule="evenodd">
        <path d="M484.070865,338.00396 C448.467299,432.655829 357.098186,500 250,500 C142.901814,500 51.5327013,432.655829 15.9291348,338.00396 L484.070865,338.00396 Z M266.968998,437.969471 L230.469471,438.531002 L230.531002,442.530529 L267.030529,441.968998 L266.968998,437.969471 Z M286.814013,370.178542 C280.657399,370.178542 276.185533,372.019287 273.398416,375.700776 C270.6113,379.382266 269.217742,384.717305 269.217742,391.705895 C269.217742,406.473452 275.083165,413.85723 286.814013,413.85723 C298.50326,413.85723 304.347886,406.473452 304.347886,391.705895 C304.347886,384.717305 302.954329,379.382266 300.167212,375.700776 C297.380096,372.019287 292.929029,370.178542 286.814013,370.178542 Z M210.939186,370.802523 L195.589247,370.802523 L195.589247,413.233248 L210.939186,413.233248 C217.095787,413.233248 221.567652,411.402904 224.354783,407.742213 C227.1419,404.081523 228.535457,398.736083 228.535457,391.705895 C228.535457,384.758903 227.152297,379.538261 224.385982,376.043966 C221.61968,372.549671 217.137414,370.802523 210.939186,370.802523 Z M252.682885,370.802523 L245.19511,370.802523 L245.19511,413.233248 L252.682885,413.233248 L252.682885,370.802523 Z M286.814013,376.106364 C290.391506,376.106364 292.908229,377.312727 294.364186,379.725455 C295.820143,382.138182 296.54812,386.131662 296.54812,391.705895 C296.54812,397.363325 295.820143,401.481602 294.364186,404.060724 C292.908254,406.639846 290.391529,407.929408 286.814013,407.929408 C283.236527,407.929408 280.709403,406.639847 279.232641,404.060724 C277.755885,401.481605 277.017507,397.363329 277.017507,391.705895 C277.017507,386.131662 277.745486,382.138182 279.201442,379.725455 C280.657398,377.312727 283.194922,376.106364 286.814013,376.106364 Z M210.939186,377.042336 C214.599875,377.042336 217.147799,378.113505 218.582956,380.255839 C220.018113,382.398176 220.735692,386.21486 220.735692,391.705895 C220.735692,397.280125 220.007714,401.221607 218.551757,403.53034 C217.0958,405.839071 214.558277,406.993436 210.939186,406.993436 L203.077022,406.993436 L203.077022,377.042336 L210.939186,377.042336 Z M290.285833,199.24875 C322.602083,199.24875 344.360833,217.9175 344.360833,249.3325 C344.360833,281.39125 322.602083,300.06 290.285833,300.06 C257.840833,300.06 236.082083,281.39125 236.082083,249.3325 C236.082083,217.9175 257.840833,199.24875 290.285833,199.24875 Z M164.969167,199.3775 C194.967917,199.3775 221.490417,210.32125 221.490417,247.65875 C221.490417,280.49 200.117917,299.545 161.621667,299.545 C160.364718,299.545 159.073149,299.522364 157.750211,299.474114 L156.416937,299.417215 C144.997271,298.859122 131.389421,296.378623 117.589167,290.14625 C119.391667,282.42125 119.262917,276.1125 117.589167,266.45625 C126.601667,274.43875 141.794167,281.2625 158.660417,281.2625 C181.731129,281.2625 206.442284,268.012773 196.815194,233.268204 L196.512917,232.20875 L194.452917,232.20875 C194.710417,252.165 182.736667,264.2675 156.342917,264.2675 C134.197917,264.2675 111.795417,256.285 111.795417,233.23875 C111.795417,208.1325 138.317917,199.3775 164.969167,199.3775 Z M95.3154167,201.4375 L95.2288635,202.548328 L95.2288635,202.548328 L95.1044243,204.300513 L95.1044243,204.300513 L94.9864837,206.151158 L94.9864837,206.151158 L94.9114835,207.437025 L94.9114835,207.437025 L94.8044487,209.440088 L94.8044487,209.440088 L94.7367503,210.822701 L94.7367503,210.822701 L94.6407148,212.963582 L94.6407148,212.963582 L94.5513239,215.180146 L94.5513239,215.180146 L94.4686113,217.467136 L94.4686113,217.467136 L94.3687744,220.616922 L94.3687744,220.616922 L94.2809497,223.870107 L94.2809497,223.870107 L94.2052172,227.214231 L94.2052172,227.214231 L94.1719104,228.916502 L94.1719104,228.916502 L94.1144657,232.373674 L94.1144657,232.373674 L94.0599544,236.777759 L94.0599544,236.777759 L94.024805,241.250934 L94.024805,241.250934 L94.0107309,244.862865 L94.0107309,244.862865 L94.0084208,247.583115 L94.0084208,247.583115 L94.0145487,250.715467 L94.0145487,250.715467 L94.0399009,255.208852 L94.0399009,255.208852 L94.0849038,259.672538 L94.0849038,259.672538 L94.1497091,264.082823 L94.1497091,264.082823 L94.2159133,267.556674 L94.2159133,267.556674 L94.2949662,270.969044 L94.2949662,270.969044 L94.3869454,274.307797 L94.3869454,274.307797 L94.4919289,277.560797 L94.4919289,277.560797 L94.6099944,280.715909 L94.6099944,280.715909 L94.6739572,282.252964 L94.6739572,282.252964 L94.8117916,285.23849 L94.8117916,285.23849 L94.9238758,287.394149 L94.9238758,287.394149 L95.0027637,288.788655 L95.0027637,288.788655 L95.0849951,290.147313 L95.0849951,290.147313 L95.2146323,292.114763 L95.2146323,292.114763 L95.351847,293.993021 L95.351847,293.993021 L95.4475493,295.193112 L95.4475493,295.193112 L95.5466437,296.34977 L95.5466437,296.34977 L95.7016667,298 L66.7329167,298 L66.7900222,297.260778 L66.7900222,297.260778 L66.9006153,295.743283 L66.9006153,295.743283 L67.0064784,294.175996 L67.0064784,294.175996 L67.1077241,292.561648 L67.1077241,292.561648 L67.2044651,290.902971 L67.2044651,290.902971 L67.3413764,288.337811 L67.3413764,288.337811 L67.4273482,286.580258 L67.4273482,286.580258 L67.5092093,284.787933 L67.5092093,284.787933 L67.5870725,282.963569 L67.5870725,282.963569 L67.6610504,281.109895 L67.6610504,281.109895 L67.7312555,279.229644 L67.7312555,279.229644 L67.8297356,276.365406 L67.8297356,276.365406 L67.8910015,274.430657 L67.8910015,274.430657 L68.0035103,270.512832 L68.0035103,270.512832 L68.1034058,266.548777 L68.1034058,266.548777 L68.1915889,262.560339 L68.1915889,262.560339 L68.2867197,257.573789 L68.2867197,257.573789 L68.3810558,251.644786 L68.3810558,251.644786 L68.4781944,243.953611 L68.4781944,243.953611 L68.5771655,233.230804 L68.5771655,233.230804 L68.6641667,220.75 L66.7329167,220.75 C65.7029167,230.7925 54.2441667,246.62875 38.7941667,248.3025 C40.0816667,239.93375 40.0816667,233.8825 38.7941667,226.54375 C42.4517177,225.934158 46.2558351,224.614283 49.8562091,222.724248 L50.598092,222.325117 C58.8474216,217.778334 65.8802764,210.239796 67.3766667,201.4375 C76.3891667,202.9825 87.7191667,203.11125 95.3154167,201.4375 Z M401.654583,199.3775 C436.932083,199.3775 453.154583,214.18375 453.154583,233.8825 C453.154583,250.580087 441.545299,270.432372 388.344491,277.074048 L386.719583,277.27125 L386.719583,279.58875 L389.551708,279.582612 L389.551708,279.582612 L392.696144,279.561044 L392.696144,279.561044 L396.11426,279.519316 L396.11426,279.519316 L399.019843,279.46824 L399.019843,279.46824 L401.285854,279.418022 L401.285854,279.418022 L403.617012,279.356459 L403.617012,279.356459 L406.004974,279.282531 L406.004974,279.282531 L408.441396,279.195214 L408.441396,279.195214 L410.088479,279.12906 L410.088479,279.12906 L411.750918,279.056199 L411.750918,279.056199 L413.426242,278.976329 L413.426242,278.976329 L415.111978,278.889145 L415.111978,278.889145 L416.805654,278.794347 L416.805654,278.794347 L418.504797,278.691631 C418.788306,278.673834 419.071939,278.655696 419.355646,278.637208 L421.058354,278.522047 L421.058354,278.522047 L422.760349,278.398211 L422.760349,278.398211 L424.459157,278.265397 L424.459157,278.265397 L426.152308,278.123303 L426.152308,278.123303 L427.837327,277.971626 C428.397371,277.919436 428.955647,277.865599 429.511744,277.810063 L431.173085,277.638312 L431.173085,277.638312 L432.818878,277.456069 L432.818878,277.456069 L434.446652,277.263032 C434.716308,277.229943 434.985111,277.196391 435.253008,277.162371 L436.849116,276.952575 C444.771211,275.874972 451.785768,274.364211 456.502083,272.25 L456.335743,273.643576 L456.335743,273.643576 L456.18356,274.9883 L456.18356,274.9883 L456.045533,276.286798 C456.001883,276.712219 455.960593,277.130372 455.921663,277.541697 L455.811949,278.755624 L455.811949,278.755624 L455.716392,279.931204 C455.686899,280.316965 455.659766,280.696772 455.634991,281.071064 L455.567748,282.177831 L455.567748,282.177831 L455.51466,283.254131 L455.51466,283.254131 L455.47573,284.302591 L455.47573,284.302591 L455.450956,285.325836 C455.400818,288.191793 455.521149,290.785758 455.811949,293.376561 L455.921663,294.291268 C455.941128,294.443843 455.961183,294.596517 455.981828,294.749344 L456.112777,295.668582 L456.112777,295.668582 L456.257882,296.594123 C456.283246,296.749052 456.3092,296.904352 456.335743,297.060079 L456.502083,298 L353.373333,298 C354.789583,291.17625 354.789583,285.125 353.373333,278.30125 L355.381159,278.033401 L355.381159,278.033401 L357.401622,277.754748 C357.739297,277.707373 358.077408,277.659521 358.415908,277.611182 L360.451215,277.315191 L360.451215,277.315191 L362.493675,277.006882 L362.493675,277.006882 L364.541095,276.685651 C364.882623,276.631003 365.224266,276.57579 365.565979,276.520001 L367.616724,276.178251 C397.012219,271.177821 426.245833,261.72855 426.245833,239.805 C426.245833,226.80125 415.559583,219.33375 398.693333,219.33375 C383.629583,219.33375 366.763333,225.77125 353.888333,234.3975 C355.948333,227.1875 355.948333,218.4325 353.888333,209.935 C367.535833,203.213097 381.42503,200.519471 393.006685,199.687271 L394.307821,199.600895 L394.307821,199.600895 L395.58842,199.529725 C395.800095,199.519091 396.010881,199.509062 396.22076,199.499623 L397.469012,199.44995 L397.469012,199.44995 L398.694671,199.413737 C399.099367,199.403831 399.500161,199.396052 399.896916,199.390283 L401.074924,199.378891 C401.269194,199.3775 401.462419,199.3775 401.654583,199.3775 Z M290.028333,217.78875 C274.063333,217.78875 264.535833,229.7625 264.535833,250.23375 C264.535833,270.9625 274.063333,283.065 290.028333,283.065 C306.250833,283.065 315.907083,270.9625 315.907083,250.23375 C315.907083,229.7625 306.250833,217.78875 290.028333,217.78875 Z M164.711667,217.27375 C164.071818,217.27375 163.442479,217.282788 162.823844,217.300813 L161.903944,217.334584 C147.770697,217.962308 139.476667,223.434242 139.476667,233.11 C139.476667,243.1525 148.875417,249.3325 164.711667,249.3325 C167.562192,249.3325 170.204142,249.132268 172.620247,248.746071 L173.417227,248.61047 C183.931467,246.71115 189.946667,241.16975 189.946667,233.23875 C189.946667,226.424013 185.727568,221.574335 178.180004,219.115672 L177.495229,218.901897 C176.801604,218.694535 176.081499,218.506451 175.335553,218.337949 L174.581018,218.175987 C174.453835,218.150085 174.32594,218.124729 174.197335,218.099922 L173.417227,217.95767 C173.154371,217.912453 172.888703,217.86944 172.620247,217.828643 L171.806537,217.712909 L171.806537,217.712909 L170.976241,217.610536 C169.019642,217.387308 166.928742,217.27375 164.711667,217.27375 Z M250,0 C357.47591,0 449.111602,67.82004 484.445493,162.998539 L15.5545074,162.998539 C50.8883983,67.82004 142.52409,0 250,0 Z M206.063401,86.5036062 C202.236317,86.5036062 199.054012,87.5123772 196.516488,89.5299153 C193.978965,91.5474534 192.710203,94.3449719 192.710203,97.9224631 C192.710203,100.418388 193.375782,102.571123 194.706943,104.380669 C196.038103,106.190215 197.660454,107.594172 199.573996,108.592542 C201.487539,109.590912 203.401081,110.526884 205.314624,111.400458 C207.228166,112.274032 208.850517,113.314 210.181678,114.520364 C211.512838,115.726728 212.178418,117.141086 212.178418,118.763437 C212.178418,120.427387 211.616835,121.758547 210.493668,122.756917 C209.370502,123.755287 207.644155,124.254472 205.314624,124.254472 C201.612336,124.254472 197.306864,123.068907 192.398212,120.697779 L192.398212,127.249582 C196.516488,129.204723 200.905156,130.182294 205.564216,130.182294 C209.765691,130.182294 213.218386,129.069528 215.922305,126.843994 C218.626225,124.618461 219.978183,121.696149 219.978183,118.077057 C219.978183,115.456343 219.312604,113.189211 217.981443,111.275662 C216.650283,109.36212 215.027931,107.874964 213.11439,106.814196 C211.519771,105.930222 209.925152,105.111247 208.330533,104.35727 L207.373762,103.912683 C205.460219,103.039109 203.837868,102.040739 202.506708,100.917573 C201.175549,99.7944069 200.509968,98.5256444 200.509968,97.1112875 C200.509968,95.7802583 200.998753,94.667493 201.976324,93.7729878 C202.953895,92.878616 204.482649,92.4314281 206.562586,92.4314281 C210.722451,92.4314281 214.819928,93.5753925 218.855017,95.863325 L218.855017,89.3115219 C214.77835,87.4395781 210.514478,86.5036062 206.063401,86.5036062 Z M285.182931,87.1275875 L277.695156,87.1275875 L277.695156,115.081947 C277.695156,120.28179 279.088714,124.098475 281.87583,126.532003 C284.662947,128.96553 288.448434,130.182294 293.232289,130.182294 C297.974547,130.182294 301.739234,128.96553 304.52635,126.532003 C307.313467,124.098477 308.707024,120.281792 308.707024,115.081947 L308.707024,87.1275875 L301.219249,87.1275875 L301.219249,115.081947 C301.219249,117.619466 300.605667,119.751402 299.378504,121.477755 C298.151342,123.204103 296.102603,124.067278 293.232289,124.067278 C290.320377,124.067278 288.250839,123.214504 287.023676,121.508954 C285.796512,119.803411 285.182931,117.661075 285.182931,115.081947 L285.182931,87.1275875 Z M262.47066,87.1275875 L233.393134,87.1275875 L233.393134,93.3674 L244.188009,93.3674 L244.188009,129.558312 L251.675784,129.558312 L251.675784,93.3674 L262.47066,93.3674 L262.47066,87.1275875 Z M266.968998,51.9694711 L230.469471,52.5310022 L230.531002,56.5305289 L267.030529,55.9689978 L266.968998,51.9694711 Z" id="Shape" fill="#13E87C"></path>
    </g>
</svg>