<svg width="41" height="57" viewBox="0 0 41 57" xmlns="http://www.w3.org/2000/svg"><g fill="#000" fill-rule="nonzero"><path d="M29.424 3.275c4.768 3.977 7.595 9.113 8.687 15.209.053.299.084.601.11.907l.074.92c1.811-.967 2.545-.62 2.682 1.423a26.24 26.24 0 00-.144 1.893l-.013.523a19.58 19.58 0 000 .475l.01.432.028.575.08 1.082.014.26.006.246-.006.237c-.02.388-.098.752-.292 1.18-.768 1.42-1.725 1.907-2.676 1.881 3.204 7.541 1.37 16.263-5.125 21.826-2.39 2.048-5.269 3.041-8.31 3.605-5.058.938-9.947.313-14.367-2.307-4.544-2.691-7.185-6.91-8.208-12.05-.843-4.235-.331-8.193 1.452-11.85l-.277.074-.194.045-.201.039-.206.032-.208.022c-.07.006-.139.01-.209.011l-.208-.001C.815 29.915-.196 29.226.033 26.6c.072-.832.087-1.667.09-2.503l.004-1.673c.002-.278.007-.557.015-.835.008-.293.06-.593.144-.873.23-.771.868-1.105 1.636-.846.293.099.56.277.816.407l.095-.545.176-1.098c.118-.733.249-1.464.456-2.172C5.251 10.378 8.578 5.362 14.088 2.049c5.188-3.118 10.686-2.653 15.336 1.226zM27.28 17.432c-2.154.404-4.263 1.038-6.396 1.555-.247.059-.545.073-.778-.01-2.605-.923-5.264-1.606-8.036-1.703-1.772-.061-3.512.155-5.069 1.12-2.096 1.3-2.962 3.319-2.19 5.664.235.711.628 1.506 1.044 2.28l.818 1.49.185.343c-2.376 4.521-3.61 8.36-2.628 13.294.899 4.515 3.22 8.222 7.211 10.587 3.884 2.301 8.18 2.85 12.624 2.026 2.672-.495 5.201-1.368 7.302-3.167 6.742-5.775 8.527-14.961 3.328-22.173l-.243-.328a5.451 5.451 0 01-.188-.244l.264-.506.539-.997c.357-.663.698-1.327.96-2.02 1.15-3.034-.08-5.631-3.115-6.788-1.832-.699-3.75-.775-5.632-.423z"/><path d="M12.982 18.478c2.484.207 4.868.857 7.21 1.692.321.114.753.107 1.077-.007 2.83-.993 5.7-1.776 8.734-1.722 1.219.021 2.404.23 3.473.867 1.73 1.03 2.403 2.53 1.72 4.421-.283.784-.69 1.523-1.112 2.256l-.508.878c-.083.147-.166.294-.247.441-.15.274-.375.506-.586.784 5.535 6.858 4.734 16.381-1.822 21.996-1.972 1.69-4.345 2.508-6.852 2.973-4.171.773-8.203.258-11.847-1.902-3.747-2.219-5.924-5.699-6.768-9.936-.922-4.628.114-8.859 2.96-12.637l.099-.136.173-.256c-.61-.938-1.263-1.826-1.785-2.786a7.647 7.647 0 01-.805-2.187c-.344-1.805.376-3.137 2.051-4.016 1.525-.8 3.174-.861 4.835-.723zm8.24 9.99c-.317.151-.54.138-.867.017-.806-.3-1.633-.633-2.477-.735-2.984-.36-6.121 1.578-6.52 4.927-.065.54-.043 1.123-.251 1.605-1.004 2.329-1.688 4.73-1.965 7.255-.415 3.773 1.11 6.676 4.48 8.424 2.206 1.144 4.565 1.646 7.29 1.68 2.841-.063 5.759-.711 8.304-2.574 2.011-1.472 3.045-3.443 3.091-5.961.053-2.873-.685-5.561-1.717-8.202a4.8 4.8 0 01-.328-1.577c-.055-1.865-.793-3.381-2.305-4.451-2.14-1.514-4.42-1.52-6.735-.408zm5.748-7.645l-1.46.397c-.245.065-.489.128-.734.19-.479.12-.678.462-.783.895-.232.952.019 1.771.755 2.402.735.629 1.585.775 2.488.382.929-.404 1.401-1.154 1.44-2.138.037-.93-.715-2.26-1.706-2.128zm-12.663-.017l-.157.087-.346.177c-.176.095-.35.204-.486.35-.663.707-.722 1.888-.223 2.72.522.871 1.608 1.332 2.569 1.092 1.021-.255 1.79-1.092 1.846-2.093l.008-.239c.007-.714-.173-1.408-1.203-1.612l-.265-.055-.54-.126-1.203-.3z"/><path d="M18.588 35.466c-.858-.038-1.676-.208-2.345-.797-.604-.532-.817-1.288-.55-1.869.268-.58.977-.9 1.774-.809 1.148.129 1.932.803 2.509 1.733.612.987.229 1.663-.945 1.741-.148.01-.296.001-.443.001M22.834 35.643c-.482-.24-1.13-.36-1.404-.747-.382-.54.063-1.125.448-1.582.753-.897 1.653-1.515 2.906-1.287 1.092.199 1.547 1.224.944 2.161-.653 1.018-1.71 1.216-2.894 1.455M28.25 40.012c.81 1.688.262 3.613-1.208 4.777-1.462 1.158-3.168 1.691-4.994 1.816-2.713.185-5.416.032-8.102-.399-.142-.023-.278-.077-.457-.129l.128-.95c1.764 0 3.52.056 5.272-.015 1.793-.072 3.599-.16 5.3-.843 1.666-.668 2.864-1.75 3.307-3.568.062-.252.453-.424.754-.69"/></g></svg>
