<svg viewBox="0 0 226 104" xmlns="http://www.w3.org/2000/svg"><path d="M11.65 28C21.834 28 26 22.375 26 15.5S21.835 3 11.65 3H2v25h9.65zm-1.105-6H8V8h2.545C16.37 8 19 10.2 19 15s-2.631 7-8.455 7zM51 28v-5.083H40.604v-5.584h8.358v-5.041h-8.358V8.083H51V3H34v25h17zm25.773 0v-8.208l1.755-1.917L86.973 28H95L83.127 14l10.2-11h-7.232l-9.322 10.333V3H70v25h6.773zm45.075 0V13.625L132.97 28H138V3h-5.848v14.375L121.03 3H116v25h5.848zm34.801 0C166.835 28 171 22.375 171 15.5S166.835 3 156.65 3H147v25h9.65zm-1.104-6H153V8h2.545C161.37 8 164 10.2 164 15s-2.631 7-8.455 7zM196 28v-5.083h-10.396v-5.584h8.358v-5.041h-8.358V8.083H196V3h-17v25h17zm26.395 0c1.036 0 2.445-.206 3.605-.577v-4.036c-.539.206-.911.247-1.45.247-1.616 0-2.61-.659-3.605-2.512l-1.905-3.542c3.107-.947 4.93-3.624 4.93-6.96 0-3.996-2.61-7.62-8.66-7.62H204v24.712h6.712v-9.514h2.237l1.989 4.736c1.657 3.913 4.267 5.066 7.457 5.066zm-8.333-14H211V7h3.063C216.774 7 218 8.233 218 10.522c0 2.245-1.225 3.478-3.938 3.478z" fill="#000"/><path d="M6.613 65l2.106-5.333h9.351L20.218 65H27L16.385 40h-5.77L0 65h6.613zM16 55h-6l3-8 3 8zm28.307 10c3.378 0 6.633-.914 8.693-2.492v-5.732c-1.978 1.703-4.614 2.908-7.58 2.908-4.162 0-7.334-2.742-7.334-7.684 0-4.984 3.172-7.684 7.333-7.684 2.967 0 5.603 1.205 7.581 2.908v-5.732C50.94 39.914 47.685 39 44.307 39 37.18 39 31 43.942 31 52s6.18 13 13.307 13zm22.306 0l2.106-5.333h9.351L80.218 65H87L76.385 40h-5.77L60 65h6.613zM76 55h-6l3-8 3 8zm27.65 10C113.834 65 118 59.375 118 52.5S113.835 40 103.65 40H94v25h9.65zm-.105-5H101V45h2.545c5.824 0 8.455 2.357 8.455 7.5s-2.631 7.5-8.455 7.5zM144 65v-5.083h-10.396v-5.584h8.358v-5.041h-8.358v-4.209H144V40h-17v25h17zm15.69 0V51.375c0-.583-.164-2.5-.164-2.667.082.292.655 2.084.9 2.667L165.954 65h3.93l5.526-13.625.9-2.667c-.04.167-.163 2.084-.163 2.667V65H182V40h-7.246l-6.672 15.875L161.409 40H154v25h5.69zM199 65V40h-7v25h7zm27 0v-5.083h-10.396v-5.584h8.358v-5.041h-8.358v-4.209H226V40h-17v25h17z" fill="#000"/><path d="M14.292 104c5.125 0 9.25-1.692 10.708-2.311V89.844H14.958v4.623h3.709v4.085c-.959.413-1.959.66-3.334.66-4.25 0-7.25-2.847-7.25-7.882 0-5.241 3.167-8.047 7.792-8.047 3.542 0 5.958 1.238 8.083 2.888v-5.695C21.875 78.908 18.333 78 14.875 78 7.5 78 1 82.911 1 90.917 1 98.924 7.083 104 14.292 104zm34.103 0c1.036 0 2.445-.206 3.605-.577v-4.036c-.539.206-.911.247-1.45.247-1.616 0-2.61-.659-3.605-2.512L45.04 93.58c3.107-.947 4.93-3.624 4.93-6.96 0-3.996-2.61-7.62-8.66-7.62H30v24.712h6.712v-9.514h2.237l1.989 4.736c1.657 3.913 4.267 5.066 7.457 5.066zm-8.333-14H37v-7h3.063C42.775 83 44 84.233 44 86.522 44 88.767 42.775 90 40.062 90zm27.479 14C74.98 104 81 98.546 81 91s-6.018-13-13.46-13C60.06 78 54 83.454 54 91s6.059 13 13.54 13zm0-5C63.438 99 61 95.842 61 91c0-4.842 2.438-8 6.54-8 4.063 0 6.46 3.158 6.46 8 0 4.842-2.397 8-6.46 8zm24.307 5V89.625L102.97 104H108V79h-5.848v14.375L91.03 79H86v25h5.848zM120 104V79h-7v25h7zm11.848 0V89.625L142.97 104H148V79h-5.848v14.375L131.03 79H126v25h5.848zm33.444 0c5.125 0 9.25-1.692 10.708-2.311V89.844h-10.042v4.623h3.709v4.085c-.959.413-1.959.66-3.334.66-4.25 0-7.25-2.847-7.25-7.882 0-5.241 3.167-8.047 7.792-8.047 3.542 0 5.958 1.238 8.083 2.888v-5.695c-2.083-1.568-5.625-2.476-9.083-2.476C158.5 78 152 82.911 152 90.917c0 8.007 6.083 13.083 13.292 13.083zM198 104v-5.083h-10.396v-5.584h8.358v-5.041h-8.358v-4.209H198V79h-17v25h17zm10.848 0V89.625L219.97 104H225V79h-5.848v14.375L208.03 79H203v25h5.848z" fill="#000"/><g transform="translate(99)" fill="#000"><path d="M11 11v4.75H8.556v8.313L11 25.25V30l-2.444-1.187H2.554L0 30v-4.75l2.444-1.115V15.75H0V11z"/><ellipse cx="5.5" cy="3.5" rx="4.5" ry="3.5"/></g></svg>
