<?xml version="1.0" encoding="UTF-8"?>
<svg width="168px" height="24px" viewBox="0 0 168 24" version="1.1" xmlns="http://www.w3.org/2000/svg" xmlns:xlink="http://www.w3.org/1999/xlink">
    <!-- Generator: sketchtool 57.1 (101010) - https://sketch.com -->
    <title>55EBBF1F-AF01-4526-9E4C-08714FA1E6AC</title>
    <desc>Created with sketchtool.</desc>
    <defs>
        <path d="M112.980819,16.8167671 C112.980819,18.9770958 110.986847,20.2763835 109.089203,20.2763835 C107.925696,20.2763835 107.360546,19.445589 107.360546,18.645041 C107.360546,17.1491507 108.457313,16.4840548 110.221806,16.4840548 L112.980819,16.4840548 L112.980819,16.8167671 Z M110.056114,6.5151779 C106.629374,6.5151779 104.205703,8.40690399 103.673429,11.1659178 L107.161319,11.9635069 C107.692936,10.4012054 108.889648,10.0356164 110.056114,10.0356164 C111.584881,10.0356164 112.980826,10.6339726 112.980826,12.4980822 L112.980826,13.2295891 L110.188936,13.2295891 C105.964607,13.2295891 103.042196,15.3872878 103.042196,18.7114523 C103.042196,22.035288 105.269265,23.7971511 108.124936,23.7971511 C110.521319,23.7971511 112.116826,22.8332059 113.280004,21.4066853 L113.712333,23.5311785 L117.099949,23.5311785 L117.099949,13.5287672 C117.099949,8.17413686 114.044716,6.5151779 110.056114,6.5151779 L110.056114,6.5151779 Z M4.31835605,13.1270136 L12.3958353,13.1270136 L12.3958353,9.14104102 L4.31835605,9.14104102 L4.31835605,4.25194518 L14.3901366,4.25194518 L14.3901366,0.265972608 L-1.49505978e-13,0.265972608 L-1.49505978e-13,23.5311779 L14.71989,23.5311779 L14.71989,19.5452053 L4.31835605,19.5452053 L4.31835605,13.1270136 Z M17.2849318,4.25194518 L23.7336988,4.25194518 L23.7336988,23.5311779 L28.0494247,23.5311779 L28.0494247,4.25194518 L34.4978629,4.25194518 L34.4978629,0.265972608 L17.2849318,0.265972608 L17.2849318,4.25194518 Z M50.9904668,15.6200547 L42.4421926,0.265972608 L37.8936993,0.265972608 L37.8936993,23.5311779 L42.2094255,23.5311779 L42.2094255,8.17709583 L50.7580284,23.5311779 L55.3061929,23.5311779 L55.3061929,0.265972608 L50.9904668,0.265972608 L50.9904668,15.6200547 Z M78.5441083,3.98597278 C81.3695331,3.98597278 83.1646016,5.71430163 84.2613688,8.373699 L88.214136,7.34334279 C87.0174236,3.08843849 83.7323824,0 78.5441083,0 C72.7906835,0 67.4778066,3.9527673 67.4778066,11.8997266 C67.4778066,19.8443844 72.5911218,23.7971517 78.2117247,23.7971517 C81.2031769,23.7971517 82.9650399,22.4008777 83.8625742,21.0410968 L84.2281633,23.5311791 L87.8485469,23.5311791 L87.8485469,11.8001101 L79.3416974,11.8001101 L79.3416974,15.3872884 L83.6656427,15.3872884 C83.3996701,17.4812063 81.867944,19.8108502 78.4441631,19.8108502 C74.8181904,19.8108502 71.8599437,17.4812063 71.8599437,11.8997266 C71.8599437,6.47901399 74.8181904,3.98597278 78.5441083,3.98597278 L78.5441083,3.98597278 Z M95.6597306,9.50367105 L95.6597306,6.78082173 L91.5438951,6.78082173 L91.5438951,23.5311779 L95.6597306,23.5311779 L95.6597306,17.5811505 C95.6597306,12.1630683 97.7543059,10.2019724 100.147402,10.2019724 C100.845374,10.2019724 101.377319,10.3679998 101.876059,10.6671779 L102.640443,6.84723269 C101.975676,6.64799981 101.343785,6.5151779 100.612936,6.5151779 C98.7179223,6.5151779 96.8567717,7.54553406 95.6597306,9.50367105 L95.6597306,9.50367105 Z M125.513421,6.61479429 C125.513421,4.61753409 127.009311,3.520767 129.405366,3.520767 C130.867722,3.520767 131.632106,3.65358891 132.695996,4.0855889 L133.989695,0.963945172 C133.028708,0.465205463 131.266846,0 129.172599,0 C124.51627,0 121.394298,2.12449308 121.394298,6.58158881 L121.394298,6.78082168 L119.266846,6.78082168 L119.266846,10.3015887 L121.394298,10.3015887 L121.394298,23.5311773 L125.513421,23.5311773 L125.513421,10.3015887 L130.801311,10.3015887 L130.801311,23.5311773 L134.920434,23.5311773 L134.920434,6.78082168 L125.513421,6.78082168 L125.513421,6.61479429 Z M143.961534,13.0606028 C142.964383,12.6950137 142.366356,12.1630685 142.366356,11.4318904 C142.366356,10.5011506 143.097534,10.0356164 143.895123,10.0356164 C144.828822,10.0356164 145.925589,10.5011506 146.690301,11.4983014 L149.147178,9.23802731 C148.119781,7.61194506 146.158356,6.5151779 143.895123,6.5151779 C140.637698,6.5151779 138.546411,8.80569853 138.546411,11.3986849 C138.546411,13.9913425 140.108712,15.1545207 141.934027,15.919233 C143.961534,16.7832331 146.125151,17.0853701 146.125151,18.4813153 C146.125151,19.7115619 145.327561,20.2763839 144.061479,20.2763839 C142.432767,20.2763839 141.302794,19.1464112 140.704109,17.5176988 L137.416109,19.2792332 C138.247233,21.3402743 140.574246,23.7971511 144.061479,23.7971511 C147.687452,23.7971511 150.011507,21.2403291 150.011507,18.2156715 C150.011507,14.6229042 146.258301,13.8917261 143.961534,13.0606028 L143.961534,13.0606028 Z M160.58203,14.4900817 L167.296441,6.78082168 L162.210742,6.78082168 L156.759125,13.3594516 L156.759125,0 L152.640331,0 L152.640331,23.5311773 L156.759125,23.5311773 L156.759125,15.6200542 L162.675947,23.5311773 L167.728441,23.5311773 L160.58203,14.4900817 Z" id="path-1"></path>
    </defs>
    <g id="Interaksjonsdesign" stroke="none" stroke-width="1" fill="none" fill-rule="evenodd">
        <g id="Forside" transform="translate(-241.000000, -75.000000)">
            <g id="header-/-xl-invert">
                <g id="header-xl">
                    <g id="produkt-/-ETN-/-ETN_grafisk_1_RGB_sort-Branding/-ETN-/-ETN_grafisk_1_RGB_hvit" transform="translate(241.000000, 75.000000)">
                        <mask id="mask-2" fill="white">
                            <use xlink:href="#path-1"></use>
                        </mask>
                        <use id="ETN_grafisk_1_RGB_hvit" fill="#000" xlink:href="#path-1"></use>
                    </g>
                </g>
            </g>
        </g>
    </g>
</svg>
