<svg height="32" viewBox="0 0 158 32" width="158" xmlns="http://www.w3.org/2000/svg"><g><path d="m7.66060606 0v32h-7.66060606v-32z"/><path d="m48.5171717 0v32h-7.6904603v-20.0134157l-6.8322496 20.0134157h-6.6594928l-6.8768319-20.0586055v20.0586055h-7.6904603v-32h9.3957363l8.5932535 22.28985 8.4093512-22.28985z"/><path d="m61.9601021 20.7798036v11.2201964h-7.6974758v-32h12.4756044c3.7845457 0 6.6666801.93501636 8.6464032 2.80504909 1.979723 1.87003272 2.9714452 4.41327723 2.9751665 7.62973351.0346013 1.8659146-.425873 3.707426-1.3340803 5.3352034-.9216762 1.5894022-2.2936579 2.8667458-3.9408397 3.6690042-1.9827783.9430205-4.1596174 1.4005798-6.3522317 1.3352033zm8.5570924-10.3225806c0-2.80504909-1.5461935-4.20757363-4.6385804-4.20757363h-3.9073482v8.32538573h3.9073482c3.0923869 0 4.6385804-1.3726041 4.6385804-4.1178121z"/><path d="m98.5717989 31.9663883-6.9009121-12.0721876h-1.7615781v12.0721876h-7.7173895v-31.95908611h13.1754853c2.2164088-.07109716 4.4187215.37779742 6.4311575 1.31085472 1.634667.779517 2.998309 2.0323254 3.914618 3.59644755.891363 1.59889173 1.341139 3.40689868 1.303009 5.23781694.059616 2.136018-.617845 4.227299-1.918163 5.921254-1.426543 1.7268767-3.399902 2.9129316-5.5923112 3.3611659l7.5831742 12.5651587zm-8.6624902-17.3324123h4.7814261c1.5360215 0 2.6638043-.3398512 3.3833483-1.0195537.7720069-.8027188 1.1665142-1.8966121 1.0849084-3.0082435.0578917-1.10777464-.347371-2.18965986-1.1184622-2.98583575-.7456415-.724518-1.8641038-1.08677699-3.3553868-1.08677699h-4.7814261z"/><path d="m118.450404 6.15319895v6.70289215h10.750413v5.8334795h-10.750413v7.1067484h12.099091v6.203681h-19.789899v-32h19.789899v6.17002629z"/><path d="m156.66739 27.4499774c-.914976 1.4338294-2.229855 2.5818207-3.789629 3.3086402-1.894474.871612-3.971927 1.2949985-6.064526 1.2359549-3.577231 0-6.524721-.853137-8.842469-2.559411-2.306931-1.6959865-3.701198-4.3257641-3.78963-7.1477565h8.210865c.061371 1.0500448.519581 2.0402545 1.285567 2.778164.760067.6831327 1.763123 1.0482188 2.794712 1.0172017.858655.0480372 1.70208-.2368626 2.347559-.7929798.580863-.5536317.89208-1.3238427.855182-2.116436.022289-.7387444-.262004-1.4548564-.788109-1.9851841-.562302-.5532997-1.228441-.9952387-1.961888-1.3015808-.78252-.3390672-1.865005-.7437604-3.247456-1.2140795-1.690199-.5451563-3.340952-1.2010769-4.941051-1.9633088-1.316082-.664007-2.446285-1.6327708-3.292171-2.8219146-.974402-1.4427219-1.455833-3.1507322-1.374998-4.87819349-.044567-1.71214732.459696-3.39500505 1.442071-4.81256754 1.011986-1.38554901 2.405786-2.46097818 4.018796-3.10082477 1.849389-.7537244 3.837807-1.12607199 5.840949-1.09376535 3.547421 0 6.366354.8239699 8.456799 2.47190969 2.104885 1.67751241 3.38944 4.14552469 3.538105 6.79775166h-8.34501c-.097728-.91841686-.502459-1.77961818-1.151421-2.45003439-.673327-.62336428-1.578343-.94949309-2.504063-.90235641-.792297-.03528494-1.570178.21581874-2.185464.70547865-.582255.53306472-.888155 1.29436883-.832825 2.07268534-.015417.69684158.251872 1.37129301.743394 1.87580761.531115.5384842 1.168029.9663337 1.872457 1.2578301.745256.3244837 1.827742.7364687 3.247455 1.2359549 1.726297.5435694 3.407951 1.2145151 5.030482 2.0070594 1.335321.6922161 2.48446 1.6835139 3.353655 2.8930093.985398 1.4550704 1.474564 3.178074 1.397356 4.9219441.003845 1.6117325-.455157 3.1921054-1.324694 4.5610015z"/></g></svg>