<?xml version="1.0" encoding="UTF-8"?><svg viewBox="0 0 258 96" version="1.1" xmlns="http://www.w3.org/2000/svg" xmlns:xlink="http://www.w3.org/1999/xlink"><g fill="#2F1A45" fill-rule="evenodd"><path d="M2.79 44.532c.517 3.36 2.199 5.755 3.015 7.697.735 1.746 1.54 3.015 1.54 4.875 0 6.138-4.683 11.932-2.182 13.535 4.098 2.537 4.225 7.003 7.119 11.966 1.347 2.31.382 4.52 1.942 6.587.963 1.275.95 1.808 2.819 1.808 1.006 0 3.25 0 3.25-.008-.752-3.712-4.386-7.83-6.495-10.931-2.706-3.982-1.473-7.149-4.144-11.154-1.088-1.083 1.3-3.397 2.302-5.22 2.238-4.067 5.018-12.136 7.191-11.073 3.38 2.18 11.61.129 16.486-.77 2.298-.423 3.936.585 3.977 1.283.354 11.262-2.03 19.867-5.003 30.919-.449 1.667-2.566 3.592-1.283 6.928 0-.01 5.195.023 5.18.009-.721-1.81-.896-3.988-.742-6.288.367-5.474 3.14-11.741 4.284-15.966 1.78-6.576 3.87-13.06 6.179-19.468 1.106-3.07 5.862-.819 8.277.238 2.33 1.019 5.133 3.083 2.402 5.13-2.445 1.83-4.967 3.61-7.817 4.748-.735.294-3.51 4.675-3.51 5.018 0 1.448-.182 2.885-.145 4.335l.26-.08c4.099-1.246 7.32-6.98 10.704-9.603a75 75 0 004.455-3.767c1.969-1.79 1.921-1.58 1.195-3.948-.567-1.852-.763-4.136-2.244-5.396-1.23-1.045-3.446-1.646-4.927-2.247-2.23-.905-3.85-.867-3.713-3.608.092-1.84.543-3.651.903-5.453 1.692-8.474-4.07-11.019-9.538-16.483-3.161-3.16-1.38-7.588.254-11.156.596-1.302 3.406-4.563 2.137-5.433-2.272-1.557-2.479-1.175-3.555-.274-2.053 1.796-5.088 3.327-7.57 4.362-2.29.955-5.552.759-6.334 3.7-.001.004-.001.01-.003.014-.593.17-2.803.727-4.4.14-1.858-.683-4.446-.83-5.77-1.212-1.323-.382-2.5-1.285-4-1.886-.523-.209-1.213-.388-1.93-.557-1.875-4.278-7.915-8.066-4.229-4.3 1.315 1.342 1.997 3.027 2.27 3.84-.62-.155-1.17-.317-1.52-.501C8.812 4.319 3.24 1.489 2.77 1.885c-.47.395 5.138 2.792 4.977 3.977-.3 2.203-6.18 1.23-7.746 1.003 0 0-.117.83 2.037 1.33 2.153.499 4.128.352 6.08-.456 1.953-.808 4.639-.866 6.872.484 2.233 1.35 2.814 2.543 2.066 4.135-.747 1.591-2.44 3.896-4.486 4.128-2.046.231-1.961.301-1.665.546.296.246 2.84.747 4.613-.921 1.774-1.67 2.919-4.215 4.34-4.641 1.423-.427 2.476-.383 3.558.334 1.082.717 1.908 1.83 1.93 3.524.011.784.29 2.174.098 3.05-.728 3.31-2.33 2.172-1.774 2.982.254.37 2.65-.659 2.983-3.124.232-1.724.122-3.564.135-4.994.004-.454 2.055-.767 2.602-.9 0 0 .623.56.117 1.256-1.86 2.566-1.218 5.196-.192 8.275.641-.128 1.86-1.347 2.502-2.245 1.118-1.566.48-3.367 2.18-1.668 2.409 2.407 6.48 6.97 5.741 10.663-1.154 5.774-5.516 5.402-9.878 5.517-4.875.128-10.496-1.275-13.214-1.411-2.566-.129-5.902.256-9.494 2.052-.844.422-.044-1.59-.128-3.816-.11-2.94-2.778-3.155-3.689-3.095-.79.052-.573.24-.16.288.946.113 1.363.862 1.267 2.358-.24 3.736-3.095 4.971-.209 6.51 0 0-2.405 1.251-1.443 7.506"/><path d="M2.79 44.532c.517 3.36 2.199 5.755 3.015 7.697.735 1.746 1.54 3.015 1.54 4.875 0 6.138-4.683 11.932-2.182 13.535 4.098 2.537 4.225 7.003 7.119 11.966 1.347 2.31.382 4.52 1.942 6.587.963 1.275.95 1.808 2.819 1.808 1.006 0 3.25 0 3.25-.008-.752-3.712-4.386-7.83-6.495-10.931-2.706-3.982-1.473-7.149-4.144-11.154-1.088-1.083 1.3-3.397 2.302-5.22 2.238-4.067 5.018-12.136 7.191-11.073 3.38 2.18 11.61.129 16.486-.77 2.298-.423 3.936.585 3.977 1.283.354 11.262-2.03 19.867-5.003 30.919-.449 1.667-2.566 3.592-1.283 6.928 0-.01 5.195.023 5.18.009-.721-1.81-.896-3.988-.742-6.288.367-5.474 3.14-11.741 4.284-15.966 1.78-6.576 3.87-13.06 6.179-19.468 1.106-3.07 5.862-.819 8.277.238 2.33 1.019 5.133 3.083 2.402 5.13-2.445 1.83-4.967 3.61-7.817 4.748-.735.294-3.51 4.675-3.51 5.018 0 1.448-.182 2.885-.145 4.335l.26-.08c4.099-1.246 7.32-6.98 10.704-9.603a75 75 0 004.455-3.767c1.969-1.79 1.921-1.58 1.195-3.948-.567-1.852-.763-4.136-2.244-5.396-1.23-1.045-3.446-1.646-4.927-2.247-2.23-.905-3.85-.867-3.713-3.608.092-1.84.543-3.651.903-5.453 1.692-8.474-4.07-11.019-9.538-16.483-3.161-3.16-1.38-7.588.254-11.156.596-1.302 3.406-4.563 2.137-5.433-2.272-1.557-2.479-1.175-3.555-.274-2.053 1.796-5.088 3.327-7.57 4.362-2.29.955-5.552.759-6.334 3.7-.001.004-.001.01-.003.014-.593.17-2.803.727-4.4.14-1.858-.683-4.446-.83-5.77-1.212-1.323-.382-2.5-1.285-4-1.886-.523-.209-1.213-.388-1.93-.557-1.875-4.278-7.915-8.066-4.229-4.3 1.315 1.342 1.997 3.027 2.27 3.84-.62-.155-1.17-.317-1.52-.501C8.812 4.319 3.24 1.489 2.77 1.885c-.47.395 5.138 2.792 4.977 3.977-.3 2.203-6.18 1.23-7.746 1.003 0 0-.117.83 2.037 1.33 2.153.499 4.128.352 6.08-.456 1.953-.808 4.639-.866 6.872.484 2.233 1.35 2.814 2.543 2.066 4.135-.747 1.591-2.44 3.896-4.486 4.128-2.046.231-1.961.301-1.665.546.296.246 2.84.747 4.613-.921 1.774-1.67 2.919-4.215 4.34-4.641 1.423-.427 2.476-.383 3.558.334 1.082.717 1.908 1.83 1.93 3.524.011.784.29 2.174.098 3.05-.728 3.31-2.33 2.172-1.774 2.982.254.37 2.65-.659 2.983-3.124.232-1.724.122-3.564.135-4.994.004-.454 2.055-.767 2.602-.9 0 0 .623.56.117 1.256-1.86 2.566-1.218 5.196-.192 8.275.641-.128 1.86-1.347 2.502-2.245 1.118-1.566.48-3.367 2.18-1.668 2.409 2.407 6.48 6.97 5.741 10.663-1.154 5.774-5.516 5.402-9.878 5.517-4.875.128-10.496-1.275-13.214-1.411-2.566-.129-5.902.256-9.494 2.052-.844.422-.044-1.59-.128-3.816-.11-2.94-2.778-3.155-3.689-3.095-.79.052-.573.24-.16.288.946.113 1.363.862 1.267 2.358-.24 3.736-3.095 4.971-.209 6.51 0 0-2.405 1.251-1.443 7.506"/><path d="M50.102 91.085c.805 0 1.261-.309 1.367-.927V79.159l6.86 11.157c.326.513.806.77 1.44.77h.648c.838 0 1.257-.314 1.257-.94V73.825c-.106-.627-.562-.94-1.367-.94h-.745c-.846 0-1.27.317-1.27.952v10.718L51.58 73.654c-.358-.513-.818-.77-1.38-.77h-.928c-.764 0-1.16.318-1.184.953v16.296c0 .635.424.952 1.27.952h.745zm17.92-15.722c.862 0 1.293-.33 1.293-.989v-1.22c0-.676-.43-1.014-1.294-1.014h-.817c-.855 0-1.282.338-1.282 1.013v1.221c0 .66.427.989 1.282.989h.817zm-.037 15.722c.838 0 1.278-.317 1.318-.952V77.914c-.04-.627-.48-.94-1.318-.94h-.745c-.838 0-1.277.313-1.318.94v12.22c.04.634.48.951 1.318.951h.745zm11.401-.073c2.58-.049 4.37-.976 5.371-2.783a.79.79 0 00.11-.39c0-.245-.134-.452-.403-.623L83 86.532a1.443 1.443 0 00-.489-.097c-.317 0-.545.122-.683.366-.497.854-1.31 1.282-2.442 1.282-1.668 0-2.632-.9-2.893-2.698.375.049.928.073 1.66.073 4.02-.187 6.075-1.754 6.165-4.7-.31-2.49-1.913-3.76-4.81-3.808-4.012.081-6.152 2.392-6.42 6.933.016 4.663 2.115 7.04 6.298 7.13zm-1.11-8.35c-.717 0-1.327-.065-1.832-.195.293-1.66 1.282-2.56 2.967-2.697 1.123 0 1.753.378 1.892 1.135v.036c0 .725-.521 1.233-1.563 1.526-.488.13-.976.196-1.465.196zm14.807 8.509c1.668 0 2.677-.574 3.027-1.721v.683c.04.635.48.952 1.318.952h.757c.83 0 1.266-.317 1.306-.952V77.914c-.04-.627-.476-.94-1.306-.94h-.757c-.838 0-1.277.313-1.318.94v7.398c-.521 1.847-1.493 2.787-2.918 2.82-1.22 0-1.83-1.23-1.83-3.687v-6.53c-.041-.628-.48-.94-1.319-.94h-.745c-.838 0-1.277.312-1.318.94v6.579c0 4.451 1.7 6.677 5.103 6.677zm23.84-.122c2.409 0 4.175-1.25 5.298-3.748.602-1.4.903-3.027.903-4.883 0-1.407-.17-2.921-.513-4.54-.04-.603-.48-.904-1.318-.904h-.745c-.838 0-1.277.33-1.318.989.423 1.782.635 3.345.635 4.687 0 1.148-.15 2.14-.452 2.979-.635 1.636-1.473 2.47-2.515 2.502-1.22 0-1.83-1.216-1.83-3.65v-6.567c-.033-.627-.469-.94-1.307-.94h-.757c-.83 0-1.265.313-1.306.94v7.764c-.667 1.603-1.607 2.42-2.82 2.453-1.212 0-1.818-1.216-1.818-3.65v-6.567c-.041-.627-.48-.94-1.319-.94h-.744c-.839 0-1.278.313-1.319.94v6.653c0 4.321 1.742 6.482 5.225 6.482 1.896 0 3.263-.53 4.101-1.587.651 1.058 1.958 1.587 3.919 1.587zm16.32.036c.757 0 1.254-.28 1.49-.842l1.233-3.662h5.42l1.245 3.662c.228.562.724.842 1.49.842h.634c.757 0 1.135-.264 1.135-.793 0-.049-.012-.134-.036-.256l-5.506-16.309a1.275 1.275 0 00-.488-.623c-.212-.146-.492-.22-.842-.22h-1.026a1.45 1.45 0 00-.848.251c-.24.167-.405.364-.495.592l-5.505 16.309a1.543 1.543 0 00-.037.256c0 .529.383.793 1.148.793h.989zm7.3-7.03h-3.723l1.856-5.518 1.867 5.517zm11.548 6.994c.464 0 .883-.045 1.258-.134.512-.123.785-.737.818-1.844v-.06c0-.855-.359-1.282-1.075-1.282a.513.513 0 00-.232.048c-.13.057-.382.086-.756.086-.668 0-1.001-.42-1.001-1.258V72.628c-.041-.634-.48-.952-1.319-.952h-.744c-.839 0-1.278.318-1.319.952V86.74c.082 2.872 1.538 4.309 4.37 4.309zm8.814 0c.464 0 .883-.045 1.257-.134.513-.123.785-.737.818-1.844v-.06c0-.855-.358-1.282-1.074-1.282a.513.513 0 00-.232.048c-.13.057-.383.086-.757.086-.667 0-1.001-.42-1.001-1.258V72.628c-.04-.634-.48-.952-1.318-.952h-.745c-.838 0-1.278.318-1.318.952V86.74c.081 2.872 1.538 4.309 4.37 4.309zm9.216.159c1.97-.017 3.178-.635 3.626-1.856v1.025c.04.472.476.708 1.306.708h.757c.838 0 1.273-.317 1.306-.952V79.354c-.847-1.595-2.661-2.392-5.445-2.392-3.947.17-6.12 2.539-6.518 7.104 0 4.761 1.656 7.142 4.968 7.142zm.55-3.26c-1.522 0-2.283-1.29-2.283-3.87.211-2.628 1.286-3.979 3.222-4.052 1.09 0 1.803.191 2.137.574v4.187c-.48 2.1-1.506 3.153-3.077 3.161zm12.45 3.137c.839 0 1.278-.317 1.319-.952v-7.14c.008-1.718.732-2.613 2.173-2.686.683-.065 1.147-.35 1.391-.855l.538-1.318c.048-.139.073-.265.073-.379 0-.537-.366-.805-1.099-.805-1.505.04-2.53.85-3.076 2.429v-1.392c-.04-.675-.48-1.013-1.318-1.013h-.782c-.838 0-1.277.313-1.318.94v12.232c.081.626.529.94 1.343.94h.757zm12.598.123c1.725-.18 2.771-.717 3.137-1.612v.537c.041.635.477.952 1.307.952h.756c.839 0 1.274-.317 1.307-.952V72.628c-.033-.634-.468-.952-1.307-.952h-.756c-.83 0-1.266.318-1.307.952v4.969c-.618-.423-1.432-.635-2.441-.635-3.703.17-5.754 2.539-6.152 7.104 0 4.761 1.819 7.142 5.456 7.142zm-.06-3.26c-1.45 0-2.174-1.163-2.174-3.491 0-.122.004-.248.013-.378.211-2.629 1.285-3.98 3.222-4.053 1.09 0 1.803.191 2.136.574v4.187c-.48 2.1-1.546 3.153-3.198 3.161zm14.123 3.15c2.848-.147 4.305-1.62 4.37-4.42-.033-1.806-.89-3.128-2.57-3.967-1.68-.838-2.525-1.521-2.533-2.05.017-.472.257-.725.72-.757.456 0 .81.187 1.063.561.203.236.46.354.769.354.293 0 .716-.154 1.27-.464.439-.358.658-.728.658-1.11 0-.22-.077-.436-.232-.647-.846-1.083-2.156-1.624-3.93-1.624-2.474.212-3.74 1.498-3.797 3.858.033 1.53.902 2.728 2.607 3.595 1.704.866 2.565 1.678 2.581 2.435 0 .79-.337 1.216-1.013 1.282-.561 0-.972-.192-1.233-.574a1.139 1.139 0 00-.854-.354c-.31 0-.79.146-1.44.44-.562.276-.843.63-.843 1.061 0 .318.163.627.488.928.952.968 2.259 1.453 3.919 1.453zm12.793-.11c4.093-.049 6.164-2.4 6.213-7.056-.049-4.655-2.12-7.007-6.213-7.056-4.086.05-6.153 2.401-6.201 7.056.048 4.655 2.115 7.007 6.2 7.056zm0-2.93c-1.766 0-2.678-1.375-2.735-4.126.057-2.75.969-4.126 2.735-4.126 1.774 0 2.69 1.375 2.746 4.126-.057 2.75-.972 4.126-2.746 4.126zm14.636 2.93c4.093-.049 6.164-2.4 6.213-7.056-.049-4.655-2.12-7.007-6.213-7.056-4.085.05-6.152 2.401-6.201 7.056.049 4.655 2.116 7.007 6.2 7.056zm0-2.93c-1.766 0-2.677-1.375-2.734-4.126.057-2.75.968-4.126 2.734-4.126 1.774 0 2.69 1.375 2.747 4.126-.057 2.75-.973 4.126-2.747 4.126zm13.66 8.228c4.508-.09 6.827-2.133 6.958-6.128h.024V79.354c-.846-1.595-2.661-2.392-5.444-2.392-3.947.17-6.12 2.539-6.519 7.104 0 4.68 1.819 7.02 5.457 7.02 1.725-.18 2.77-.761 3.137-1.746-.147 2.53-1.375 3.817-3.687 3.857-.545.017-.834.33-.866.94v1.258c0 .577.313.874.94.89zm.537-8.46c-1.522 0-2.283-1.249-2.283-3.747.212-2.629 1.286-3.98 3.223-4.053 1.09 0 1.802.191 2.136.574v4.187c-.48 2.018-1.506 3.031-3.076 3.04z" fill-rule="nonzero"/></g></svg>
