<?xml version="1.0" encoding="UTF-8"?><svg width="161px" height="85px" viewBox="0 0 161 85" version="1.1" xmlns="http://www.w3.org/2000/svg" xmlns:xlink="http://www.w3.org/1999/xlink"><g fill="#A10000" fill-rule="evenodd"><path d="M2.976 82l.192-8.688L4.768 82h1.808l1.504-8.624L8.32 82h2.032l-.224-12.96h-2.96l-1.536 7.536-1.424-7.536H1.136L.912 82h2.064zm12.128.16c.96 0 1.712-.237 2.256-.712.544-.475.816-1.181.816-2.12v-.896h-2.4v.976c0 .224-.03.4-.088.528a.598.598 0 01-.24.28.674.674 0 01-.344.088.592.592 0 01-.336-.096.618.618 0 01-.224-.32 1.741 1.741 0 01-.08-.576v-1.776h3.712V75.68c0-.672-.115-1.237-.344-1.696a2.3 2.3 0 00-1.024-1.04c-.453-.235-1.021-.352-1.704-.352-.661 0-1.235.12-1.72.36-.485.24-.856.59-1.112 1.048-.256.459-.384 1.019-.384 1.68v3.392c0 .65.128 1.208.384 1.672.256.464.624.816 1.104 1.056.48.24 1.056.36 1.728.36zm.672-5.84h-1.312v-.784c0-.288.027-.51.08-.664.053-.155.125-.264.216-.328.09-.064.2-.096.328-.096.139 0 .259.027.36.08a.55.55 0 01.24.288c.059.139.088.33.088.576v.928zm5.824 5.84c.31 0 .619-.077.928-.232.31-.155.608-.37.896-.648V82h2.608V69.04h-2.608v4.288a3.21 3.21 0 00-.848-.536 2.44 2.44 0 00-.976-.2c-.47 0-.864.123-1.184.368-.32.245-.56.584-.72 1.016-.16.432-.24.936-.24 1.512v3.824c0 .939.187 1.648.56 2.128.373.48.901.72 1.584.72zm1.136-1.664a.536.536 0 01-.384-.136.777.777 0 01-.208-.368 1.955 1.955 0 01-.064-.52v-4.256c0-.277.053-.515.16-.712a.54.54 0 01.512-.296c.107 0 .219.021.336.064.117.043.23.09.336.144v5.84a2.153 2.153 0 01-.376.176.981.981 0 01-.312.064zm7.536-9.312v-1.808h-2.624v1.808h2.624zm0 10.816v-9.248h-2.608V82h2.608zm4.624.16c.65 0 1.208-.104 1.672-.312a2.315 2.315 0 001.072-.944c.25-.421.376-.941.376-1.56v-1.12h-2.512v1.232c0 .224-.021.403-.064.536a.53.53 0 01-.192.288.582.582 0 01-.336.088.499.499 0 01-.44-.224c-.101-.15-.152-.432-.152-.848v-3.84c0-.277.021-.493.064-.648a.637.637 0 01.192-.336.491.491 0 01.32-.104c.128 0 .237.027.328.08.09.053.16.147.208.28.048.133.072.323.072.568v1.056h2.512v-.976c0-.63-.123-1.15-.368-1.56-.245-.41-.6-.717-1.064-.92-.464-.203-1.027-.304-1.688-.304-.672 0-1.245.12-1.72.36-.475.24-.84.59-1.096 1.048-.256.459-.384 1.019-.384 1.68v3.392c0 .65.128 1.205.384 1.664.256.459.621.81 1.096 1.056.475.245 1.048.368 1.72.368zm6.384 0c.49 0 .883-.15 1.176-.448.293-.299.493-.64.6-1.024.021.053.053.224.096.512.043.288.08.555.112.8H45.6c-.021-.15-.045-.33-.072-.544a11.138 11.138 0 01-.064-.752 18.447 18.447 0 01-.024-1.008v-4.32c0-.821-.232-1.49-.696-2.008-.464-.517-1.165-.776-2.104-.776-1.077 0-1.885.264-2.424.792-.539.528-.835 1.347-.888 2.456l2.432.096.064-.672c.01-.139.032-.264.064-.376a.504.504 0 01.168-.264c.08-.064.195-.096.344-.096.15 0 .261.035.336.104.075.07.128.165.16.288.032.123.048.264.048.424v.928c-.437.15-.88.317-1.328.504a6.239 6.239 0 00-1.232.68 3.153 3.153 0 00-.904.992c-.23.395-.344.88-.344 1.456 0 .363.08.717.24 1.064.16.347.4.632.72.856.32.224.715.336 1.184.336zm.928-1.76c-.224 0-.4-.09-.528-.272-.128-.181-.192-.427-.192-.736 0-.235.035-.445.104-.632.07-.187.168-.36.296-.52a2.44 2.44 0 01.464-.44c.181-.133.379-.264.592-.392v2.528c-.053.075-.117.15-.192.224a.878.878 0 01-.248.176.686.686 0 01-.296.064zm7.488 1.6V69.04h-2.592V82h2.592zm8 0l.448-2.736h1.904L60.48 82h2.64l-2.416-12.96H57.44L54.992 82h2.704zm2.08-4.448H58.4l.688-5.056.688 5.056zm7.52 4.608c.65 0 1.208-.104 1.672-.312a2.315 2.315 0 001.072-.944c.25-.421.376-.941.376-1.56v-1.12h-2.512v1.232c0 .224-.021.403-.064.536a.53.53 0 01-.192.288.582.582 0 01-.336.088.499.499 0 01-.44-.224c-.101-.15-.152-.432-.152-.848v-3.84c0-.277.021-.493.064-.648a.637.637 0 01.192-.336.491.491 0 01.32-.104c.128 0 .237.027.328.08.09.053.16.147.208.28.048.133.072.323.072.568v1.056h2.512v-.976c0-.63-.123-1.15-.368-1.56-.245-.41-.6-.717-1.064-.92-.464-.203-1.027-.304-1.688-.304-.672 0-1.245.12-1.72.36-.475.24-.84.59-1.096 1.048-.256.459-.384 1.019-.384 1.68v3.392c0 .65.128 1.205.384 1.664.256.459.621.81 1.096 1.056.475.245 1.048.368 1.72.368zm7.344-.064c.31 0 .613-.016.912-.048.299-.032.517-.059.656-.08V79.92c-.096.01-.203.024-.32.04a2.851 2.851 0 01-.384.024.939.939 0 01-.584-.176c-.155-.117-.232-.31-.232-.576v-4.768H76v-1.712h-1.312v-2.816h-2.64v2.816h-.896v1.712h.896v5.024c0 .555.07 1.027.208 1.416.139.39.397.685.776.888.379.203.915.304 1.608.304zm5.424-10.912v-1.808H77.44v1.808h2.624zm0 10.816v-9.248h-2.608V82h2.608zm4.656.16c.661 0 1.235-.112 1.72-.336.485-.224.861-.56 1.128-1.008.267-.448.4-1.008.4-1.68v-3.52c0-.672-.133-1.232-.4-1.68a2.498 2.498 0 00-1.128-1.008c-.485-.224-1.059-.336-1.72-.336s-1.235.112-1.72.336c-.485.224-.859.56-1.12 1.008-.261.448-.392 1.008-.392 1.68v3.52c0 .672.13 1.232.392 1.68.261.448.635.784 1.12 1.008.485.224 1.059.336 1.72.336zm.016-1.728c-.17 0-.304-.045-.4-.136a.783.783 0 01-.208-.384 2.432 2.432 0 01-.064-.6V75.44c0-.235.021-.435.064-.6a.783.783 0 01.208-.384c.096-.09.23-.136.4-.136s.304.045.4.136c.096.09.163.219.2.384.037.165.056.365.056.6v3.872c0 .235-.019.435-.056.6a.735.735 0 01-.2.384c-.096.09-.23.136-.4.136zM92.016 82v-7.232c.15-.107.296-.19.44-.248.144-.059.27-.088.376-.088.203 0 .341.059.416.176.075.117.112.288.112.512V82h2.592v-7.248a3.02 3.02 0 00-.192-1.112 1.712 1.712 0 00-.568-.768c-.25-.187-.568-.28-.952-.28-.405 0-.792.096-1.16.288a4.382 4.382 0 00-1.064.8v-.928h-2.608V82h2.608zm11.76 0l.192-8.688 1.6 8.688h1.808l1.504-8.624.24 8.624h2.032l-.224-12.96h-2.96l-1.536 7.536-1.424-7.536h-3.072L101.712 82h2.064zm9.76 2.688c.544 0 1.032-.072 1.464-.216a2.39 2.39 0 001.096-.752c.299-.357.517-.856.656-1.496l2.128-9.472h-2.464l-.88 5.344-1.168-5.344h-2.448l2.176 7.792c.096.33.176.627.24.888s.096.483.096.664c0 .203-.056.363-.168.48-.112.117-.277.197-.496.24a4.413 4.413 0 01-.824.064v1.808h.592zm8.224-2.528c.49 0 .883-.15 1.176-.448.293-.299.493-.64.6-1.024.021.053.053.224.096.512.043.288.08.555.112.8h2.336c-.021-.15-.045-.33-.072-.544a11.138 11.138 0 01-.064-.752 18.447 18.447 0 01-.024-1.008v-4.32c0-.821-.232-1.49-.696-2.008-.464-.517-1.165-.776-2.104-.776-1.077 0-1.885.264-2.424.792-.539.528-.835 1.347-.888 2.456l2.432.096.064-.672c.01-.139.032-.264.064-.376a.504.504 0 01.168-.264c.08-.064.195-.096.344-.096.15 0 .261.035.336.104.075.07.128.165.16.288.032.123.048.264.048.424v.928c-.437.15-.88.317-1.328.504a6.239 6.239 0 00-1.232.68 3.153 3.153 0 00-.904.992c-.23.395-.344.88-.344 1.456 0 .363.08.717.24 1.064.16.347.4.632.72.856.32.224.715.336 1.184.336zm.928-1.76c-.224 0-.4-.09-.528-.272-.128-.181-.192-.427-.192-.736 0-.235.035-.445.104-.632.07-.187.168-.36.296-.52.128-.16.283-.307.464-.44.181-.133.379-.264.592-.392v2.528c-.053.075-.117.15-.192.224a.878.878 0 01-.248.176.686.686 0 01-.296.064zm7.392 1.6v-7.232c.15-.107.296-.19.44-.248.144-.059.27-.088.376-.088.203 0 .341.059.416.176.075.117.112.288.112.512V82h2.592v-7.248a3.02 3.02 0 00-.192-1.112 1.712 1.712 0 00-.568-.768c-.25-.187-.568-.28-.952-.28-.405 0-.792.096-1.16.288a4.382 4.382 0 00-1.064.8v-.928h-2.608V82h2.608zm8.064 0v-7.296c.15-.107.301-.19.456-.248.155-.059.29-.088.408-.088.181 0 .32.056.416.168.096.112.144.296.144.552V82h2.528v-7.296c.15-.107.304-.19.464-.248.16-.059.293-.088.4-.088.181 0 .317.056.408.168.09.112.136.296.136.552V82h2.56v-7.184c0-.47-.075-.872-.224-1.208a1.734 1.734 0 00-.624-.768 1.674 1.674 0 00-.944-.264 3.14 3.14 0 00-1.208.248c-.4.165-.781.45-1.144.856-.139-.363-.344-.637-.616-.824a1.669 1.669 0 00-.968-.28c-.384 0-.76.07-1.128.208-.368.139-.723.373-1.064.704v-.736h-2.56V82h2.56zm11.392.16c.49 0 .883-.15 1.176-.448.293-.299.493-.64.6-1.024.021.053.053.224.096.512.043.288.08.555.112.8h2.336c-.021-.15-.045-.33-.072-.544a11.138 11.138 0 01-.064-.752 18.447 18.447 0 01-.024-1.008v-4.32c0-.821-.232-1.49-.696-2.008-.464-.517-1.165-.776-2.104-.776-1.077 0-1.885.264-2.424.792-.539.528-.835 1.347-.888 2.456l2.432.096.064-.672c.01-.139.032-.264.064-.376a.504.504 0 01.168-.264c.08-.064.195-.096.344-.096.15 0 .261.035.336.104.075.07.128.165.16.288.032.123.048.264.048.424v.928c-.437.15-.88.317-1.328.504a6.239 6.239 0 00-1.232.68 3.153 3.153 0 00-.904.992c-.23.395-.344.88-.344 1.456 0 .363.08.717.24 1.064.16.347.4.632.72.856.32.224.715.336 1.184.336zm.928-1.76c-.224 0-.4-.09-.528-.272-.128-.181-.192-.427-.192-.736 0-.235.035-.445.104-.632.07-.187.168-.36.296-.52.128-.16.283-.307.464-.44.181-.133.379-.264.592-.392v2.528c-.053.075-.117.15-.192.224a.878.878 0 01-.248.176.686.686 0 01-.296.064zm7.424 1.6v-6.016c.213-.277.448-.496.704-.656.256-.16.533-.24.832-.24.16 0 .312.019.456.056.144.037.275.083.392.136v-2.592a.607.607 0 00-.176-.04 2.737 2.737 0 00-.224-.008c-.427 0-.79.141-1.088.424-.299.283-.597.69-.896 1.224v-1.536h-2.608V82h2.608z" fill-rule="nonzero"/><path d="M1.337 41.267l17.61.344 3.466 3.263c.441.4 1.054.557 1.635.417a1.792 1.792 0 001.261-1.115l6.065-15.49 8.066 24.63a2.581 2.581 0 002.487 1.74 2.58 2.58 0 002.429-1.819l8.515-27.053 9.047 31.685a2.943 2.943 0 002.826 2.124 2.943 2.943 0 002.835-2.111l12.963-44.327 12.87 44.324A2.95 2.95 0 0096.253 60a2.95 2.95 0 002.836-2.129l9.044-31.684 8.533 27.044a2.558 2.558 0 002.408 1.802 2.557 2.557 0 002.464-1.725l8.084-24.679 6.078 15.543a1.793 1.793 0 002.88.694l3.469-3.264 17.614-.335c.737 0 1.337-.596 1.337-1.329 0-.732-.6-1.328-1.337-1.328l-18.3-.348c-.422 0-.828.156-1.139.438l-2.043 1.788-6.718-18.966a2.154 2.154 0 00-2.05-1.397 2.152 2.152 0 00-2.01 1.452l-8.067 22.667-8.58-28.918a2.884 2.884 0 00-2.787-2.033c-1.28.011-2.4.858-2.751 2.081l-8.974 31.071L83.405 2.133A2.966 2.966 0 0080.555 0a2.966 2.966 0 00-2.854 2.128L64.764 46.5l-8.986-31.126a2.88 2.88 0 00-2.748-2.078 2.88 2.88 0 00-2.783 2.03L41.665 44.18l-8.05-22.61a2.172 2.172 0 00-2.029-1.464 2.173 2.173 0 00-2.068 1.409L22.813 40.47l-2.032-1.776a1.703 1.703 0 00-1.144-.441l-18.3.357C.599 38.61 0 39.206 0 39.938c0 .733.599 1.329 1.337 1.329z"/><path d="M69.713 41.5l19.584-.028c1.495-.002 2.706-.894 2.703-1.99-.003-1.096-1.219-1.984-2.714-1.982l-19.583.028c-1.495.002-2.706.894-2.703 1.99.003 1.096 1.219 1.984 2.713 1.982z"/></g></svg>