<svg width="441" height="140" viewBox="0 0 441 140" xmlns="http://www.w3.org/2000/svg"><g fill="#000" fill-rule="evenodd"><path d="M157.457 138.63c1.643 0 2.946-.462 3.907-1.399.945-.937 1.426-2.212 1.426-3.825s-.48-2.873-1.426-3.795c-.961-.906-2.264-1.367-3.907-1.367h-3.704v10.385h3.704zm0-1.583h-1.875v-7.22h1.875c2.17 0 3.457 1.366 3.457 3.579 0 2.212-1.286 3.64-3.457 3.64zm14.633 1.813c1.566 0 2.822-.507 3.767-1.537.946-1.03 1.426-2.335 1.426-3.917 0-1.583-.48-2.889-1.426-3.887-.945-.999-2.2-1.506-3.767-1.506-1.565 0-2.805.507-3.75 1.506-.946.998-1.427 2.304-1.427 3.887 0 1.582.48 2.888 1.426 3.917.946 1.03 2.201 1.537 3.751 1.537zm0-1.675c-1.038 0-1.86-.353-2.433-1.075-.574-.707-.868-1.614-.868-2.704 0-1.106.294-1.998.868-2.689.573-.691 1.395-1.03 2.433-1.03 1.039 0 1.86.339 2.45 1.03.573.691.868 1.583.868 2.689s-.295 2.012-.868 2.719c-.59.707-1.411 1.06-2.45 1.06zm14.479 1.675c1.565 0 2.82-.507 3.766-1.537.946-1.03 1.426-2.335 1.426-3.917 0-1.583-.48-2.889-1.426-3.887-.945-.999-2.2-1.506-3.766-1.506-1.566 0-2.806.507-3.752 1.506-.945.998-1.426 2.304-1.426 3.887 0 1.582.48 2.888 1.426 3.917.946 1.03 2.201 1.537 3.752 1.537zm0-1.675c-1.04 0-1.86-.353-2.434-1.075-.574-.707-.868-1.614-.868-2.704 0-1.106.294-1.998.868-2.689.573-.691 1.395-1.03 2.434-1.03 1.038 0 1.86.339 2.449 1.03.573.691.868 1.583.868 2.689s-.295 2.012-.868 2.719c-.59.707-1.41 1.06-2.45 1.06zm11.656 1.444v-4.578l4.589 4.578h2.263v-.092l-4.387-4.163h.527c1.023 0 1.86-.262 2.527-.8.65-.537.976-1.274.976-2.212 0-2.074-1.58-3.118-3.921-3.118h-4.403v10.385h1.83zm2.574-5.623h-2.574v-3.226h2.574c1.193 0 2.046.568 2.046 1.613s-.853 1.613-2.046 1.613zm16.043 5.623l.868-2.32h4.589l.868 2.32h1.922v-.092l-3.968-10.293h-2.233l-3.968 10.293v.092h1.922zm4.93-3.825h-3.52l1.752-4.717 1.768 4.717zm9.285 3.825v-7.482l5.317 7.482h1.72v-10.385h-1.767v7.466l-5.301-7.466h-1.736v10.385h1.767zm13.982 0v-7.482l5.317 7.482h1.72v-10.385h-1.767v7.466l-5.301-7.466h-1.736v10.385h1.767zm19.562 0v-1.582h-5.518v-2.904h5.177v-1.567h-5.177v-2.75h5.518v-1.582h-7.347v10.385h7.347zm9.41-3.78v-1.582h-4.945v1.583h4.944zm6.68 3.78v-7.328l3.55 7.328h.155l3.55-7.328v7.328h1.767v-10.385h-2.03l-3.349 6.99-3.348-6.99h-2.062v10.385h1.767zm21.547 0v-1.582h-5.518v-2.904h5.177v-1.567h-5.177v-2.75h5.518v-1.582h-7.348v10.385h7.348zm6.65 0v-10.385h-1.83v10.385h1.83zm15.718 0v-8.803h3.488v-1.582h-8.805v1.582h3.488v8.803h1.83zm9.549 0v-4.47h5.007v4.47h1.829v-10.385h-1.83v4.332h-5.006v-4.332h-1.83v10.385h1.83zm19.36 0v-1.582h-5.518v-2.904h5.178v-1.567h-5.178v-2.75h5.519v-1.582h-7.348v10.385h7.348z" fill-rule="nonzero"/><path d="M310.609 30.871h9.899c0-1.547-.843-3.351-4.913-3.351-3.336 0-4.583 1.326-4.986 3.351zm18.698 6.115c-.146 2.062-1.54 7.073-12.649 7.073h-1.503c-10.742 0-13.199-5.784-13.199-10.499v-.515c0-4.715 2.347-10.498 12.722-10.498h1.614c11.145 0 13.088 5.819 13.088 11.602v.737h-18.881c.403 2.284 1.797 3.868 5.683 3.868 3.74 0 4.253-1.4 4.436-1.768h8.689zm-32.009 6.556h-8.323V15.658h8.323v27.884zm-22.622-8.324v-1.289c-.697.184-2.347.515-4.107.81-3.227.552-4.142 1.03-4.142 2.32v.074c0 1.142.915 1.99 3.116 1.99 3.739 0 5.133-2.322 5.133-3.905zm-7.663 8.73h-.623c-5.684 0-8.25-2.91-8.25-6.557v-.147c0-3.72 2.2-5.673 9.35-6.262l5.682-.443c1.136-.11 1.504-.478 1.504-1.215v-.036c0-.922-.404-1.806-3.814-1.806h-.11c-3.41 0-3.739 1.364-3.739 2.063h-8.36v-.036c0-2.395.99-6.962 11.513-6.962h1.173c10.67 0 11.477 4.052 11.477 6.998v6.557c0 .995.183 1.436 1.318 1.436h.954v6.004h-6.746c-2.09 0-3.044-1.509-3.446-2.688-.808.92-2.971 3.093-7.883 3.093zm-13.493-.406h-8.323V23.025h8.323v20.517zm.036-22.579h-8.397v-5.378h8.397v5.378zm-12.98 14.291c0 3.094-1.577 8.84-12.393 8.84h-1.797c-10.925 0-12.759-6.592-12.759-10.644v-.516c0-4.014 1.87-10.46 12.722-10.46h1.577c11.146 0 12.65 5.672 12.65 8.544v.037h-8.69c-.11-.589-.77-2.873-4.546-2.873h-.33c-3.704 0-4.73 2.579-4.73 4.936v.037c0 2.394 1.136 5.157 4.803 5.157h.33c3.813 0 4.473-2.469 4.473-3.058h8.69zm-44.292 3.058c4.106 0 5.133-3.058 5.133-5.12 0-2.174-1.027-5.01-5.133-5.01h-.33c-4.253 0-5.133 2.836-5.133 5.01 0 2.1.88 5.12 5.133 5.12h.33zm-.734 5.783c-11.769 0-13.382-6.74-13.382-10.46v-.517c0-3.609 1.576-10.645 13.345-10.645h1.247c12.173 0 13.308 7.036 13.308 10.609v.589c0 3.647-1.21 10.424-13.344 10.424h-1.174zm-30.066-.073c-10.888 0-11.732-4.716-11.732-6.778v-.147h8.91c.11.625.476 1.951 3.666 1.951h.073c2.86 0 3.557-.81 3.557-1.694 0-1.031-.513-1.547-3.63-1.73l-3.043-.222c-7.187-.405-9.276-3.094-9.276-6.335v-.221c0-3.425 2.162-6.262 11.402-6.262h.917c10.375 0 11.879 3.462 11.879 6.41v.073h-8.652c-.183-.701-.478-1.806-3.557-1.806h-.147c-2.75 0-3.446.627-3.446 1.548 0 .995.733 1.584 3.446 1.694l2.97.11c7.736.295 9.752 2.653 9.752 6.152v.332c0 3.388-1.54 6.925-12.098 6.925h-.99zm261.979 17.027c-4.034 0-5.096 2.43-5.096 4.383v.073c0 1.915 1.136 4.42 5.096 4.42h.367c3.812 0 5.06-2.393 5.06-4.346v-.147c0-1.952-1.284-4.383-5.097-4.383h-.33zm-.11 22.8c-11.256 0-12.429-4.346-12.429-6.777v-.148h9.019c.183.479.77 1.363 3.96 1.363h.366c3.337 0 4.583-1.657 4.583-3.979v-1.436c-.77.774-2.897 2.726-7.736 2.726h-.513c-8.249 0-10.852-5.194-10.852-9.835v-.626c0-4.826 2.75-9.762 10.669-9.762h.403c4.913 0 7.113 1.732 7.993 2.432V55.78h8.286v18.196c0 5.6-3.007 9.871-12.576 9.871h-1.173zM383.28 55.78h8.25v3.241c.99-1.178 3.703-3.756 8.506-3.756h.366c6.013 0 8.689 3.977 8.689 7.771v13.26h-8.322v-10.46c0-2.248-1.247-4.236-4.473-4.236-3.117 0-4.693 2.099-4.693 4.53v10.167h-8.323V55.78zm-5.72 20.517h-8.323V55.78h8.323v20.517zm.037-22.58H369.2V48.34h8.397v5.378zm-35.31 22.58V55.78h8.25v3.352c.587-.994 2.566-3.794 6.93-3.794h.256c5.28 0 7.113 3.573 7.113 8.103 0 1.142-.036 1.806-.073 2.652h-8.397v-.625c0-2.505-.659-3.868-2.712-3.868s-3.043 1.474-3.043 3.978v10.719h-8.323zm-23.392-12.672h9.899c0-1.547-.843-3.351-4.913-3.351-3.336 0-4.583 1.326-4.986 3.351zm18.698 6.115c-.146 2.063-1.539 7.073-12.649 7.073h-1.503c-10.742 0-13.199-5.783-13.199-10.498V65.8c0-4.715 2.347-10.498 12.722-10.498h1.614c11.146 0 13.088 5.82 13.088 11.603v.737h-18.881c.403 2.283 1.796 3.868 5.683 3.868 3.74 0 4.253-1.4 4.436-1.769h8.689zm-45.723-8.583c-3.995 0-5.022 2.726-5.022 4.79v.11c0 1.952 1.063 4.824 5.022 4.824h.368c3.813 0 5.06-2.688 5.06-4.825v-.11c0-2.174-1.247-4.789-5.06-4.789h-.368zm13.714-12.744v27.884h-8.324v-2.541c-.696.81-3.006 2.946-7.772 2.946h-.44c-7.81 0-10.815-5.23-10.815-10.277v-.737c0-4.972 2.822-10.314 10.741-10.314h.44c4.73 0 6.93 1.696 7.846 2.395v-9.356h8.324zm-40.662 19.56v-1.29c-.697.184-2.347.515-4.107.81-3.227.553-4.142 1.032-4.142 2.32v.075c0 1.142.915 1.989 3.116 1.989 3.739 0 5.133-2.321 5.133-3.905zm-7.663 8.729h-.623c-5.683 0-8.25-2.91-8.25-6.556v-.148c0-3.72 2.2-5.672 9.35-6.262l5.682-.442c1.137-.11 1.504-.479 1.504-1.216v-.036c0-.92-.405-1.805-3.814-1.805H261c-3.41 0-3.739 1.363-3.739 2.062h-8.359v-.036c0-2.394.99-6.962 11.512-6.962h1.173c10.67 0 11.477 4.052 11.477 6.998v6.558c0 .994.183 1.435 1.319 1.435h.953v6.005h-6.746c-2.09 0-3.044-1.51-3.446-2.69-.808.922-2.97 3.095-7.883 3.095zM218.026 55.78h8.25v3.241c.99-1.178 3.703-3.756 8.506-3.756h.367c6.012 0 8.689 3.977 8.689 7.771v13.26h-8.323v-10.46c0-2.248-1.246-4.236-4.473-4.236-3.116 0-4.693 2.099-4.693 4.53v10.167h-8.323V55.78zm-23.393 7.845h9.899c0-1.547-.843-3.351-4.912-3.351-3.337 0-4.584 1.326-4.987 3.351zm18.7 6.115c-.148 2.063-1.54 7.073-12.65 7.073h-1.503c-10.743 0-13.2-5.783-13.2-10.498V65.8c0-4.715 2.347-10.498 12.722-10.498h1.614c11.146 0 13.09 5.82 13.09 11.603v.737h-18.883c.403 2.283 1.797 3.868 5.683 3.868 3.74 0 4.253-1.4 4.436-1.769h8.69zm-39.674-3.83c0-1.952-.99-4.753-4.986-4.753h-.33c-3.922 0-5.133 2.69-5.133 4.752v.147c0 2.1 1.21 4.825 5.133 4.825h.33c3.997 0 4.986-2.872 4.986-4.825v-.147zm-2.492 10.792c-4.876 0-7.26-2.136-8.14-3.02-.294.847-.44 1.767-.55 2.615h-7.516V48.414h8.323v9.835c.88-.884 3.446-2.874 8.213-2.874h.44c7.809 0 10.411 5.232 10.411 10.24v.59c0 4.715-2.53 10.498-10.742 10.498h-.44zm197.923 19.68h9.9c0-1.548-.844-3.353-4.914-3.353-3.337 0-4.583 1.327-4.986 3.352zm18.699 6.113c-.147 2.063-1.54 7.072-12.65 7.072h-1.503c-10.743 0-13.198-5.782-13.198-10.497v-.515c0-4.716 2.346-10.498 12.722-10.498h1.613c11.145 0 13.089 5.82 13.089 11.602v.737H368.98c.403 2.284 1.796 3.868 5.683 3.868 3.739 0 4.253-1.4 4.436-1.769h8.69zm-32.008 6.557h-8.323V88.536h8.323v20.517zm.036-22.58h-8.396v-5.378h8.396v5.378zm-13.127 22.58h-7.222c-3.263 0-5.464-1.805-5.464-5.488v-9.357h-4.29v-5.672h4.29v-6.188h8.25v6.188h4.436v5.672h-4.436v6.593c0 1.585.404 2.175 2.054 2.175h2.382v6.077zm-46.38-20.516h8.25v3.241c.99-1.178 3.703-3.757 8.506-3.757h.366c6.014 0 8.69 3.98 8.69 7.773v13.26H313.8V98.592c0-2.247-1.247-4.235-4.473-4.235-3.117 0-4.693 2.099-4.693 4.53v10.166h-8.324V88.536zm-23.392 7.846h9.899c0-1.547-.843-3.352-4.913-3.352-3.336 0-4.583 1.327-4.986 3.352zm18.698 6.114c-.146 2.063-1.54 7.072-12.649 7.072h-1.503c-10.742 0-13.199-5.782-13.199-10.497v-.515c0-4.716 2.347-10.498 12.722-10.498h1.614c11.145 0 13.088 5.82 13.088 11.602v.737h-18.881c.403 2.284 1.797 3.868 5.683 3.868 3.74 0 4.253-1.4 4.436-1.769h8.689zm-73.588 6.557V88.536h8.25v3.278c.88-1.179 3.41-3.794 7.993-3.794h.256c3.997 0 6.343 1.88 7.517 4.126 1.576-1.952 4.437-4.126 8.762-4.126h.293c6.453 0 8.58 4.31 8.58 8.141v12.892h-8.323V98.445c0-2.063-1.063-4.088-4.106-4.088-2.897 0-4.253 2.099-4.253 4.456v10.24h-8.287V98.445c0-2.063-1.025-4.088-4.106-4.088-2.896 0-4.253 1.988-4.253 4.456v10.24h-8.323zm-23.393-12.67h9.899c0-1.548-.843-3.353-4.912-3.353-3.337 0-4.584 1.327-4.987 3.352zm18.7 6.113c-.148 2.063-1.54 7.072-12.65 7.072h-1.503c-10.743 0-13.2-5.782-13.2-10.497v-.515c0-4.716 2.347-10.498 12.722-10.498h1.614c11.146 0 13.09 5.82 13.09 11.602v.737h-18.883c.403 2.284 1.797 3.868 5.683 3.868 3.74 0 4.253-1.4 4.436-1.769h8.69zm-45.724-8.583c-3.995 0-5.022 2.727-5.022 4.79v.11c0 1.952 1.063 4.825 5.022 4.825h.368c3.813 0 5.059-2.689 5.059-4.825v-.11c0-2.174-1.246-4.79-5.06-4.79h-.367zm13.713-12.744v27.884H173v-2.542c-.698.81-3.007 2.947-7.773 2.947h-.44c-7.81 0-10.816-5.23-10.816-10.276v-.737c0-4.973 2.823-10.314 10.743-10.314h.439c4.73 0 6.93 1.695 7.847 2.393V81.17h8.322z"/><path d="M74.634 75.257c.289.172 1.538.887 3.47 1.679C71.971 74.3 66.898 69 63.524 63.248c-2.754 4.457-6.577 8.955-11.09 11.591l-.04.024c3.28-1.804 6.884-2.718 10.712-2.718 4.06 0 8.046 1.076 11.528 3.112zm43.378-44.493l.108.19.383.716a32.11 32.11 0 014.15 15.747 31.878 31.878 0 01-4.727 16.743c-.152 14.169-5.705 27.5-15.676 37.597-10.1 10.23-23.573 15.973-37.904 16.167l-1.24-.025v.028l.453.002v9.19l-.191-.001.053.003 1.016-.007c16.794-.228 32.546-6.94 44.353-18.9 11.82-11.97 18.33-27.83 18.33-44.654a63.461 63.461 0 00-9.108-32.796zm-77.372 86.89a31.818 31.818 0 01-5.763-8.169c.057.115.106.235.165.35C19.54 100.244 9.19 83.086 9.19 63.56a54.28 54.28 0 017.727-27.951l-.027.039-7.783-4.883.091-.147-.007.011-.084.136A63.467 63.467 0 000 63.56c0 34.982 28.409 63.453 63.368 63.558l-.423-.03c-8.495-.041-16.41-3.388-22.305-9.434zm18.406-70.237l.004.384c-.05 3.801-1.06 7.436-3.004 10.801a22.844 22.844 0 01-8.212 8.28l.023-.012a.083.083 0 00.022-.012c4.553-2.522 10.36-3.577 15.644-3.61-2.397-4.464-4.4-9.886-4.472-15.392l-.005-.44zM36.143 15.6c.547 0 1.09.014 1.631.041l-.025-.002c7.77-4.183 16.581-6.45 25.81-6.45 19.178 0 36.557 9.792 46.515 26.205l.405.755a22.822 22.822 0 01.001 0l-.463-.863L118 30.745l.011.019-.01-.02C106.374 11.495 86.022 0 63.559 0 41.146 0 20.838 11.442 9.2 30.618c6.043-9.263 16.367-15.017 26.944-15.017zm43.153 51.737c-4.6-2.696-10.428-3.92-15.773-4.09 2.633-4.645 4.661-10.146 4.717-15.407l.001-.058v-.043h.001v.096c.142 9.736 6.056 17.856 14.453 21.027-2.053-.735-3.321-1.48-3.346-1.494l.02.012-.073-.043z" fill-opacity=".8"/><path d="M63.559 117.93l-.453-.002v-.028c-12.548 0-22.376-10.05-22.376-22.877 0-8.356 4.348-15.99 11.365-19.992h.002l.002.005.083-.05.19-.11.02-.012h.002l.04-.025c4.513-2.636 8.337-7.134 11.09-11.59-.204-.346.19.353 0 0-5.284.032-11.093 1.088-15.644 3.608a.159.159 0 01-.023.013l-.023.013s-.002 0-.003.002c-.598.332-1.18.685-1.75 1.052l-.09.057c-.163.106-.322.217-.484.327-.134.09-.27.178-.403.272-.053.037-.105.077-.159.115-5.737 4.076-9.923 9.977-11.978 16.714a32.905 32.905 0 00-1.375 11.41c.01.182.027.364.04.547.03.418.064.835.108 1.25.023.21.049.42.075.63.05.396.108.79.173 1.182.033.2.064.402.1.601.082.448.176.894.277 1.337.03.132.055.265.086.396.136.569.288 1.132.454 1.69.043.147.093.29.138.434.13.414.266.827.412 1.235.069.195.144.386.216.58a34.636 34.636 0 00.679 1.652c.167.377.345.75.527 1.119a31.806 31.806 0 005.763 8.17c5.894 6.046 13.81 9.392 22.306 9.433l.422.029c.064 0 .127.003.191.003v-9.19zm46.458-82.642l.463.862c.41.725.77 1.473 1.098 2.232a22.837 22.837 0 011.886 9.035 22.74 22.74 0 01-1.727 8.69 22.86 22.86 0 01-1.59 3.164c-4.017 6.604-11.283 11.024-19.56 11.024-.055 0-.106-.004-.16-.005a22.274 22.274 0 01-7.731-1.427c-2.054-.734-3.323-1.48-3.348-1.494l.02.012-.071-.044c-4.602-2.695-10.43-3.92-15.774-4.089-.042.075.043-.073 0 0-.16.277.168-.27 0 0C66.897 69 71.971 74.3 78.105 76.936c2.602 1.069 6.46 2.271 10.969 2.502.42.02.843.036 1.272.04.081.001.16.006.24.006.499 0 .994-.015 1.486-.037l.31-.015c.492-.028.98-.063 1.465-.113.021-.002.041-.005.062-.006.465-.049.929-.11 1.39-.177l.293-.045a31.11 31.11 0 001.413-.253c.046-.01.093-.021.14-.03.431-.09.858-.19 1.282-.297l.271-.069c.456-.12.91-.247 1.358-.386l.188-.06c.404-.129.805-.265 1.202-.408l.24-.087c.437-.161.87-.332 1.298-.512.072-.03.143-.063.215-.094a30.82 30.82 0 001.14-.515c.066-.032.134-.063.2-.096a31.76 31.76 0 001.231-.63l.232-.128c.367-.201.729-.41 1.086-.626.052-.03.104-.06.156-.092.393-.24.779-.488 1.16-.744l.235-.16c.352-.241.7-.488 1.043-.742l.102-.075c.366-.275.725-.56 1.08-.849l.233-.193c.343-.287.68-.577 1.01-.876a30.804 30.804 0 001.03-.98 34.215 34.215 0 001.17-1.217l.026-.027a32.515 32.515 0 001.08-1.259c.287-.35.569-.705.841-1.07.029-.037.056-.076.084-.114a31.432 31.432 0 00.904-1.281 31.878 31.878 0 005.411-17.804 32.105 32.105 0 00-4.15-15.746l-.382-.717-.108-.19-.012-.018-7.984 4.542zM68.24 47.74v.102c-.057 5.262-2.085 10.762-4.718 15.407-.34-.01.34 0 0 0-.067 0 .067 0 0 0-2.398-4.464-4.4-9.885-4.471-15.391l-.006-.44c0-12.476-10.274-22.626-22.902-22.626-.463 0-.924.017-1.386.05-.145.01-.288.032-.433.045-.318.03-.635.057-.952.1-.183.027-.366.065-.55.096-.276.046-.553.088-.828.145-.19.04-.379.093-.569.137-.266.064-.533.121-.798.195-.194.053-.385.12-.577.178-.258.079-.518.153-.775.24-.187.066-.372.143-.559.213-.257.096-.516.187-.77.294-.187.076-.37.166-.555.249-.25.111-.501.218-.748.338-.188.09-.37.194-.555.29-.24.125-.482.245-.718.378-.182.102-.359.215-.537.322-.234.14-.47.275-.7.423-.176.113-.347.237-.52.355-.226.154-.454.302-.675.463-.17.124-.332.259-.5.386-.217.168-.437.331-.65.505-.161.133-.316.277-.474.413-.21.182-.42.358-.624.546-.153.143-.3.295-.45.443-.199.193-.4.383-.591.583-.147.152-.285.316-.429.472-.185.205-.373.405-.552.615-.138.164-.266.334-.4.5-.173.216-.35.427-.515.648-.128.172-.245.351-.368.525-.152.215-.31.425-.454.646a.599.599 0 00-.015.026l-.028.039-7.783-4.883c.03-.05.062-.098.093-.147 6.044-9.264 16.366-15.018 26.945-15.018.546 0 1.089.015 1.63.041.153.008.303.024.455.034.383.024.768.049 1.147.087.208.02.413.051.62.076.321.038.642.073.96.12.227.035.453.08.68.118.292.05.585.098.874.155.236.048.47.105.704.157.275.061.551.12.823.189.24.06.478.13.716.196.262.072.524.143.784.221.24.073.479.155.717.234.25.082.503.163.752.253.24.084.475.178.71.269.244.093.487.185.727.284.235.097.468.202.702.305.234.103.47.205.7.315.233.108.46.223.688.337.228.114.455.227.68.346.226.119.45.244.672.37.22.123.44.247.657.375.22.13.438.266.654.401.213.133.425.266.635.404.214.14.424.285.634.43a29.448 29.448 0 011.816 1.353 30.663 30.663 0 011.158.972 30.671 30.671 0 011.11 1.027 34.4 34.4 0 011.062 1.076 29.529 29.529 0 011.009 1.126c.164.192.326.385.486.58a39.566 39.566 0 01.926 1.192c.15.204.298.41.444.618.143.205.288.41.426.619.142.211.28.426.417.643.133.21.266.42.394.633.134.22.262.445.39.67.122.214.245.43.363.648.123.228.24.46.359.692.11.22.223.44.33.662.113.238.22.48.33.722.099.222.2.443.294.67.105.247.2.497.298.747.089.225.179.45.261.677.094.256.179.516.265.774.076.228.156.454.227.683.082.267.155.538.23.807.065.227.132.452.19.68.072.28.133.561.197.842.051.225.106.449.153.676.06.293.109.59.16.886.037.22.08.435.114.655.048.317.085.637.124.956.025.205.054.406.075.611.036.362.06.727.084 1.091.011.167.029.331.037.499a30.8 30.8 0 01.042 1.612v.065l.004.243v.014z"/></g></svg>
