<svg width="155" height="24" viewBox="0 0 155 24" xmlns="http://www.w3.org/2000/svg"><g fill-rule="nonzero" fill="none"><path d="M8.74 2.339c-.311 0-.627.029-.943.089a6.675 6.675 0 00-4.318 2.86 6.911 6.911 0 00-1.068 5.131c.877 4.803 5.425 7.985 10.14 7.092 2.84-.538 5.07-2.146 6.448-4.652 1.19-2.161 1.647-4.84 1.317-7.628l-4.474.076c.09.29.163.588.219.894.302 1.656-.118 3.405-1.153 4.8-1.55 2.087-3.769 3.023-5.935 2.501-1.997-.48-3.53-2.119-3.905-4.174a1.168 1.168 0 01.919-1.363 1.148 1.148 0 011.338.936A2.92 2.92 0 009.5 11.226c1.275.306 2.578-.29 3.577-1.636.646-.871.911-1.95.727-2.961a5.278 5.278 0 00-.732-1.88c-.936-1.477-2.565-2.41-4.332-2.41M10.957 20c-5.19 0-9.82-3.771-10.803-9.154a9.272 9.272 0 011.433-6.882C2.951 1.939 5.007.577 7.377.129c2.85-.54 5.63.66 7.283 2.86l6.62-.113a1.157 1.157 0 011.147.955c.67 3.67.163 7.283-1.425 10.172-1.697 3.086-4.55 5.148-8.032 5.807-.676.128-1.35.19-2.013.19" fill="#000"/><path d="M31.144 13.59c-.017-.672.17-1.216.561-1.634.39-.417.903-.634 1.538-.651.748-.033 1.391.2 1.928.7.537.5.928 1.257 1.172 2.273.179.72.467 1.29.866 1.707.399.418 1.038.7 1.916.848.846.147 1.582.078 2.21-.21.625-.286.955-.7.988-1.24.097-.802-.66-1.646-2.27-2.53-.212-.131-1.042-.614-2.49-1.45-1.448-.835-2.384-1.392-2.807-1.67-2.327-1.474-3.384-3.178-3.173-5.11.163-1.49.972-2.645 2.429-3.464C35.468.34 37.335-.045 39.613.004c1.286.033 2.502.246 3.65.64 1.147.392 2.078.945 2.794 1.657.716.713 1.025 1.503.928 2.371-.066.54-.298.954-.696 1.24-.399.287-.85.398-1.355.332-1.383-.18-2.327-1.18-2.83-2.997-.31-1.146-1.1-1.818-2.369-2.014-.748-.115-1.375-.02-1.879.282-.505.303-.79.741-.854 1.314-.13.967.561 1.892 2.074 2.777.18.114.96.557 2.344 1.326 1.383.77 2.375 1.343 2.977 1.72.521.311.948.59 1.282.835.333.246.716.574 1.147.983.43.41.744.868.94 1.375a3.61 3.61 0 01.22 1.622c-.115 1.409-.998 2.576-2.649 3.5-1.652.926-3.6 1.364-5.846 1.315-2.31-.049-4.267-.5-5.87-1.35-1.603-.853-2.428-1.966-2.477-3.342M54.981 11.083V12.3c.098 3.316.789 4.973 2.073 4.973.683 0 1.235-.451 1.658-1.355.423-.903.634-2.3.634-4.19 0-1.89-.211-3.29-.634-4.202-.423-.912-.975-1.368-1.658-1.368-1.284 0-1.975 1.641-2.073 4.924zm-5.267-4.6c0-.266.147-.432.439-.498l3.633-.796c.277-.05.455.042.537.274l.22.72c1.121-.712 2.088-1.126 2.901-1.242 2.146-.299 3.954.203 5.426 1.504 1.471 1.302 2.125 3.063 1.963 5.284-.163 2.172-.996 3.85-2.5 5.035-1.503 1.186-3.344 1.68-5.523 1.48-.325-.033-.935-.19-1.829-.473v4.65a.666.666 0 01-.231.51.789.789 0 01-.549.212h-3.706a.788.788 0 01-.55-.212.666.666 0 01-.23-.51V6.483zM73.484 7.358c-.454.917-.68 2.325-.68 4.226 0 1.9.226 3.305.68 4.213.454.91 1.05 1.363 1.79 1.363.738 0 1.338-.454 1.8-1.363.463-.908.694-2.313.694-4.213s-.231-3.31-.693-4.226c-.463-.917-1.063-1.376-1.802-1.376-.74 0-1.335.46-1.789 1.376m-6.627 4.226c0-2.15.794-3.81 2.381-4.976 1.588-1.167 3.6-1.75 6.035-1.75 2.452 0 4.473.583 6.06 1.75 1.587 1.167 2.381 2.825 2.381 4.976 0 2.134-.794 3.785-2.38 4.951-1.588 1.167-3.609 1.75-6.06 1.75-2.437 0-4.448-.583-6.036-1.75-1.587-1.166-2.38-2.817-2.38-4.951M85.628 7.136a.502.502 0 01-.345-.124.381.381 0 01-.14-.296l.025-.766c0-.099.06-.19.18-.272 1.651-.626 2.997-1.762 4.036-3.41a.961.961 0 01.613-.42 50.66 50.66 0 011.61-.395.684.684 0 01.537.074c.17.1.255.231.255.396v3.854h2.172c.085 0 .144.029.179.086a.182.182 0 010 .185l-.332.816c-.086.181-.24.272-.46.272h-1.559c.017 2.24.026 4.669.026 7.288 0 1.022.323 1.556.97 1.606.426.033.818-.156 1.176-.568.051-.1.144-.149.281-.149.102 0 .183.037.243.112.06.074.064.169.013.284-1.074 1.91-2.7 2.758-4.88 2.544-.818-.082-1.495-.35-2.032-.803-.537-.452-.903-.934-1.099-1.445a4.307 4.307 0 01-.293-1.556V7.136h-1.176zM96.485 7.136a.502.502 0 01-.345-.124.381.381 0 01-.14-.296l.025-.766c0-.099.06-.19.18-.272 1.651-.626 2.997-1.762 4.036-3.41a.961.961 0 01.614-.42c.102-.032.638-.164 1.61-.395a.684.684 0 01.536.074c.17.1.255.231.255.396v3.854h2.172c.085 0 .145.029.18.086a.182.182 0 010 .185l-.333.816c-.086.181-.24.272-.46.272h-1.559c.017 2.24.026 4.669.026 7.288 0 1.022.323 1.556.97 1.606.426.033.818-.156 1.176-.568.051-.1.145-.149.281-.149.102 0 .183.037.243.112.06.074.064.169.013.284-1.074 1.91-2.7 2.758-4.88 2.544-.818-.082-1.495-.35-2.032-.803-.536-.452-.903-.934-1.098-1.445a4.307 4.307 0 01-.294-1.556V7.136h-1.176zM114.761 5.924c-.696.199-1.206.729-1.53 1.59-.325.86-.446 1.836-.365 2.928l5.346-.05c-.081-1.39-.393-2.494-.936-3.313-.543-.82-1.194-1.229-1.956-1.229-.178 0-.364.025-.559.074m-7.046 5.66c-.017-2.085.708-3.727 2.174-4.927 1.466-1.2 3.325-1.8 5.577-1.8 2.041 0 3.734.55 5.079 1.65 1.344 1.102 2.114 2.678 2.308 4.73.016.099-.016.19-.097.272a.393.393 0 01-.292.124l-9.404.1c.227 1.191.745 2.2 1.556 3.028.81.828 1.798 1.258 2.964 1.29a5.718 5.718 0 002.272-.372 3.55 3.55 0 001.786-1.44c.113-.198.3-.256.56-.173.129.05.218.133.266.248.05.116.04.24-.024.372-.632 1.159-1.563 2.048-2.794 2.669-1.232.62-2.463.93-3.694.93-1.49 0-2.843-.24-4.058-.72a6.784 6.784 0 01-2.989-2.27c-.778-1.035-1.174-2.272-1.19-3.711M125.655 18.286a.808.808 0 01-.561-.215.672.672 0 01-.237-.517V6.61c0-.27.15-.437.45-.505l3.715-.807c.283-.05.466.042.55.278l.448 1.538c.865-1.429 2.128-2.177 3.791-2.245 1.23-.067 2.261.164 3.093.694.831.53 1.289 1.248 1.372 2.156a2.11 2.11 0 01-.424 1.513c-.333.438-.848.681-1.547.732-1.48.084-2.369-.672-2.668-2.27-.15-.723-.483-1.084-.998-1.084-.383 0-.723.172-1.023.517-.299.344-.532.756-.698 1.235-.166.48-.303 1.03-.412 1.653a17.173 17.173 0 00-.212 1.576c-.033.428-.05.82-.05 1.173v4.791a.672.672 0 01-.236.517.809.809 0 01-.561.215h-3.792zM137.714 21.141c0-.517.204-.949.61-1.296.408-.347.857-.537 1.349-.57.763-.08 1.386.061 1.869.425.483.363.733.916.75 1.66.034.969.382 1.46 1.043 1.477.305 0 .576-.105.814-.315.407-.372.708-.787.903-1.247.195-.46.28-.885.254-1.272a6.797 6.797 0 00-.152-1.078 3.345 3.345 0 00-.268-.788l-.152-.29-5.824-10.708a.47.47 0 01.038-.46.594.594 0 01.42-.267l4.527-.679c.322-.064.525.033.61.291l4.095 8.067 3.738-7.727a.544.544 0 01.433-.315l1.5-.267c.119-.016.204.008.255.073.05.064.059.137.025.218l-4.07 7.97c-.152.323-.419.88-.8 1.672-.382.791-.658 1.365-.827 1.72-.17.355-.437.872-.801 1.55a23.21 23.21 0 01-.877 1.526c-.221.34-.513.747-.878 1.224-.365.476-.7.836-1.005 1.078a7.06 7.06 0 01-1.042.678c-.39.21-.789.347-1.196.412-.543.064-.924.097-1.144.097-1.255 0-2.268-.279-3.04-.836-.771-.557-1.157-1.231-1.157-2.023" fill="#000"/></g></svg>
