<svg viewBox="0 0 1440 389" xmlns="http://www.w3.org/2000/svg" fill-rule="evenodd" clip-rule="evenodd" stroke-linejoin="round" stroke-miterlimit="2"><path d="M1123.89 29.08c0 16.058-13.016 29.074-29.073 29.074-16.06 0-29.076-13.016-29.076-29.075 0-16.058 13.015-29.079 29.076-29.079 16.057 0 29.073 13.02 29.073 29.08zm70.565 0c0 16.058-13.016 29.074-29.077 29.074-16.057 0-29.072-13.016-29.072-29.075 0-16.058 13.015-29.079 29.072-29.079 16.061 0 29.077 13.02 29.077 29.08zm70.561 0c0 16.058-13.016 29.074-29.073 29.074-16.061 0-29.077-13.016-29.077-29.075 0-16.058 13.016-29.079 29.077-29.079 16.057 0 29.073 13.02 29.073 29.08zm70.564 0c0 16.058-13.015 29.074-29.076 29.074-16.057 0-29.073-13.016-29.073-29.075 0-16.058 13.016-29.079 29.073-29.079 16.061 0 29.077 13.02 29.077 29.08zm-197.85 59.403c0 13.467-10.911 24.384-24.377 24.384-13.465 0-24.377-10.917-24.377-24.384 0-13.462 10.912-24.379 24.377-24.379 13.466 0 24.377 10.917 24.377 24.38zm53.138 0c0 13.467-10.92 24.384-24.382 24.384-13.461 0-24.381-10.917-24.381-24.384 0-13.462 10.92-24.379 24.381-24.379 13.462 0 24.382 10.917 24.382 24.38zm53.132 0c0 13.467-10.92 24.384-24.38 24.384-13.462 0-24.382-10.917-24.382-24.384 0-13.462 10.92-24.379 24.381-24.379 13.462 0 24.382 10.917 24.382 24.38zm53.13 0c0 13.467-10.912 24.384-24.377 24.384-13.466 0-24.378-10.917-24.378-24.384 0-13.462 10.912-24.379 24.378-24.379 13.465 0 24.377 10.917 24.377 24.38zm53.133 0c0 13.467-10.912 24.384-24.373 24.384-13.466 0-24.382-10.917-24.382-24.384 0-13.462 10.916-24.379 24.382-24.379 13.461 0 24.373 10.917 24.373 24.38zm-209.07 49.134c0 10.383-8.42 18.804-18.803 18.804-10.378 0-18.798-8.42-18.798-18.804 0-10.384 8.42-18.8 18.798-18.8 10.382 0 18.803 8.416 18.803 18.8zm46.721 0c0 10.383-8.416 18.804-18.799 18.804-10.382 0-18.802-8.42-18.802-18.804 0-10.384 8.42-18.8 18.802-18.8 10.383 0 18.799 8.416 18.799 18.8zm46.721 0c0 10.383-8.416 18.804-18.799 18.804-10.382 0-18.798-8.42-18.798-18.804 0-10.384 8.416-18.8 18.798-18.8 10.383 0 18.799 8.416 18.799 18.8zm46.721 0c0 10.383-8.416 18.804-18.798 18.804-10.387 0-18.799-8.42-18.799-18.804 0-10.384 8.412-18.8 18.799-18.8 10.382 0 18.798 8.416 18.798 18.8zm46.721 0c0 10.383-8.416 18.804-18.798 18.804-10.383 0-18.799-8.42-18.799-18.804 0-10.384 8.416-18.8 18.799-18.8 10.382 0 18.798 8.416 18.798 18.8zm46.721 0c0 10.383-8.412 18.804-18.798 18.804-10.383 0-18.799-8.42-18.799-18.804 0-10.384 8.416-18.8 18.799-18.8 10.386 0 18.798 8.416 18.798 18.8z" fill="#000" fill-rule="nonzero"/><path d="M1154.217 181.154c0 9.859-7.991 17.85-17.849 17.85-9.862 0-17.857-7.991-17.857-17.85 0-9.858 7.995-17.85 17.857-17.85 9.858 0 17.849 7.992 17.849 17.85zm45.317 0c0 9.859-7.991 17.85-17.849 17.85-9.862 0-17.857-7.991-17.857-17.85 0-9.858 7.995-17.85 17.857-17.85 9.858 0 17.849 7.992 17.849 17.85zm45.316 0c0 9.859-7.99 17.85-17.852 17.85-9.858 0-17.853-7.991-17.853-17.85 0-9.858 7.995-17.85 17.853-17.85 9.862 0 17.853 7.992 17.853 17.85zm66.962 0c0 9.859-7.991 17.85-17.849 17.85-9.861 0-17.852-7.991-17.852-17.85 0-9.858 7.99-17.85 17.852-17.85 9.858 0 17.849 7.992 17.849 17.85zm42.255 0c0 9.859-7.987 17.85-17.849 17.85-9.857 0-17.853-7.991-17.853-17.85 0-9.858 7.996-17.85 17.853-17.85 9.862 0 17.849 7.992 17.849 17.85zm42.259 0c0 9.859-7.991 17.85-17.849 17.85-9.857 0-17.848-7.991-17.848-17.85 0-9.858 7.99-17.85 17.848-17.85 9.858 0 17.849 7.992 17.849 17.85zm-233.764 42.384c0 9.216-7.466 16.683-16.682 16.683-9.212 0-16.682-7.467-16.682-16.683 0-9.213 7.47-16.684 16.682-16.684 9.216 0 16.682 7.471 16.682 16.684zm40.3 0c0 9.216-7.466 16.683-16.681 16.683-9.212 0-16.682-7.467-16.682-16.683 0-9.213 7.47-16.684 16.682-16.684 9.215 0 16.681 7.471 16.681 16.684zm40.298 0c0 9.216-7.467 16.683-16.683 16.683-9.207 0-16.678-7.467-16.678-16.683 0-9.213 7.47-16.684 16.678-16.684 9.216 0 16.682 7.471 16.682 16.684zm96.104 0c0 9.216-7.466 16.683-16.682 16.683-9.212 0-16.682-7.467-16.682-16.683 0-9.213 7.47-16.684 16.682-16.684 9.216 0 16.682 7.471 16.682 16.684zm39.492 0c0 9.216-7.47 16.683-16.686 16.683-9.212 0-16.682-7.467-16.682-16.683 0-9.213 7.47-16.684 16.682-16.684 9.216 0 16.686 7.471 16.686 16.684zm39.493 0c0 9.216-7.47 16.683-16.682 16.683-9.216 0-16.682-7.467-16.682-16.683 0-9.213 7.466-16.684 16.682-16.684 9.212 0 16.682 7.471 16.682 16.684zm-251.946 38.271c0 7.583-6.145 13.733-13.732 13.733s-13.737-6.15-13.737-13.733c0-7.592 6.15-13.738 13.737-13.738s13.732 6.146 13.732 13.738zm37.077 0c0 7.583-6.15 13.733-13.737 13.733s-13.732-6.15-13.732-13.733c0-7.592 6.145-13.738 13.732-13.738s13.736 6.146 13.736 13.738zm37.071 0c0 7.583-6.154 13.733-13.736 13.733-7.583 0-13.737-6.15-13.737-13.733 0-7.592 6.154-13.738 13.737-13.738 7.582 0 13.736 6.146 13.736 13.738zm116.674 0c0 7.583-6.15 13.733-13.733 13.733-7.586 0-13.736-6.15-13.736-13.733 0-7.592 6.15-13.738 13.736-13.738 7.583 0 13.733 6.146 13.733 13.738zm41.438 0c0 7.583-6.145 13.733-13.736 13.733-7.583 0-13.733-6.15-13.733-13.733 0-7.592 6.15-13.738 13.733-13.738 7.59 0 13.736 6.146 13.736 13.738zm41.438 0c0 7.583-6.145 13.733-13.732 13.733s-13.736-6.15-13.736-13.733c0-7.592 6.149-13.738 13.736-13.738 7.587 0 13.732 6.146 13.732 13.738z" fill="#000" fill-rule="nonzero"/><path d="M51.746 92.775l32.293 121.48 32.293-96.522-8.808-24.958h49.542l42.567 121.48 31.56-121.48h51.746l-54.312 182.771h-52.112l-36.33-100.192-33.76 100.192h-52.48L0 92.776h51.746zm314.107 150.109c14.311 0 25.323-9.913 25.323-22.759s-11.012-22.75-25.323-22.75-25.685 9.904-25.685 22.75 11.374 22.759 25.685 22.759zM311.174 99.75c13.207-5.508 33.764-10.646 52.846-10.646 49.17 0 77.793 23.492 77.793 76.704v109.738H391.91v-13.58c-9.174 10.638-23.123 17.613-40.734 17.613-40.734 0-60.187-28.625-60.187-59.454 0-32.662 23.853-58.72 60.92-58.72 15.412 0 30.827 5.508 40.001 13.212v-9.909c0-22.02-14.678-31.195-33.764-31.195-16.148 0-33.393 5.504-46.97 13.579V99.75zm170.628-77.442h50.275v253.238h-50.275zM588.21 275.546v-140.2h-27.89v-42.57h30.827V52.77l46.97-10.642v50.646h30.827v42.57h-30.826v140.201h-49.909zm143.842-113.408h78.897c-.733-18.713-16.51-31.559-37.797-31.559-22.014 0-38.53 14.313-41.1 31.559zm0 37.804c4.403 20.92 22.752 34.496 48.441 34.496 22.749 0 45.5-6.604 62.016-17.246v48.075c-16.144 8.437-39.63 14.312-66.053 14.312-54.312 0-94.313-38.533-94.313-95.42 0-53.58 38.535-95.055 91.376-95.055 52.846 0 85.505 39.638 85.505 86.98 0 7.708-1.466 17.983-2.937 23.858H732.052zm283.28 70.829c-10.274 5.504-27.89 8.808-40.367 8.808-57.983 0-96.513-41.841-96.513-95.42 0-53.95 38.53-95.055 96.513-95.055 12.111 0 30.093 3.304 40.367 8.442v52.85c-9.54-6.608-23.485-12.475-40.367-12.475-26.785 0-45.871 20.912-45.871 46.237 0 25.326 19.086 46.609 45.87 46.609 16.516 0 31.198-5.871 40.368-12.842v52.846zm-708.874 66.383h-9.55v20.438h9.55c5.945 0 10.466-3.188 10.466-10.138 0-6.95-4.52-10.3-10.466-10.3zm-16.753-6.866h16.753c10.632 0 17.92 6.362 17.92 17.083 0 10.808-7.288 17.083-17.92 17.083h-9.55v22.784h-7.203v-56.95zm63.72 6.866h-9.629v19.434h9.629c5.945 0 10.47-3.434 10.47-9.638 0-6.196-4.525-9.796-10.47-9.796zm-16.832-6.866h16.832c10.636 0 17.92 5.946 17.92 15.996 0 8.208-5.109 12.979-11.72 14.57 6.782 3.184 12.644 12.9 14.736 26.384h-7.454c-2.596-14.154-9.712-23.788-17.165-23.788h-5.946v23.788h-7.203v-56.95zm59.616 34.087h18.257l-9.129-24.625-9.128 24.625zm20.602 6.95H393.78L388 387.238h-8.124l21.44-56.95h8.124l21.436 56.95h-8.12l-5.946-15.913zm62.795 12.813c-4.27 2.516-9.462 3.937-14.99 3.937-16.666 0-29.31-12.646-29.31-29.316 0-16.663 12.644-29.309 29.31-29.309 5.528 0 10.72 1.425 14.99 3.938v8.454c-3.854-3.263-9.045-5.275-14.99-5.275-12.395 0-21.774 9.804-21.774 22.192 0 12.479 9.295 22.195 21.774 22.195 5.945 0 11.224-2.008 14.99-5.191v8.375zm22.348-46.984H486.71v-6.866h37.517v6.866h-15.07v50.084h-7.203v-50.084zm32.818-6.866h7.204v56.95h-7.204zm64.141 53.85c-4.27 2.516-9.462 3.937-14.99 3.937-16.666 0-29.31-12.646-29.31-29.316 0-16.663 12.644-29.309 29.31-29.309 5.528 0 10.72 1.425 14.99 3.938v8.454c-3.854-3.263-9.045-5.275-14.99-5.275-12.395 0-21.774 9.804-21.774 22.192 0 12.479 9.295 22.195 21.773 22.195 5.946 0 11.22-2.008 14.99-5.191v8.375zm22.852-19.763h18.253l-9.129-24.625-9.124 24.625zm20.598 6.95h-23.031l-5.775 15.913h-8.124l21.436-56.95h8.128l21.436 56.95h-8.124l-5.946-15.913zm24.019 15.913v-56.95h7.204v50.083h23.448v6.867h-30.652zm52.158-56.95h8.041l12.983 47.654 15.323-41.625-1.925-6.03h7.454l15.157 47.655 12.895-47.654h8.037l-16.412 56.95h-8.12l-13.565-41.204-15.328 41.204h-8.041l-16.499-56.95zm96.376 34.087h18.256l-9.128-24.625-9.128 24.625zm20.602 6.95h-23.036l-5.77 15.913h-8.128l21.44-56.95h8.124l21.44 56.95h-8.129l-5.941-15.913zm50.9-30.654c-3.1-2.43-7.62-4.437-12.39-4.437-6.2 0-9.966 3.183-9.966 7.954 0 2.933 1.674 5.279 5.278 7.541l9.879 6.192c7.032 4.438 9.628 8.713 9.628 14.658 0 8.125-5.941 15.496-18.003 15.496-5.778 0-10.72-1.762-13.986-3.433v-8.458c3.012 2.512 7.87 5.108 13.82 5.108 6.866 0 10.549-3.938 10.549-8.375 0-3.017-2.008-5.78-6.196-8.375l-9.799-6.196c-6.528-4.02-8.874-8.296-8.874-13.992 0-7.283 4.941-14.904 17.836-14.904 4.937 0 9.212 1.338 12.224 3.1v8.121zm24.36-3.517h-15.24v-6.866h37.518v6.866h-15.074v50.084h-7.204v-50.084zm32.819 50.084v-56.95h30.647v6.866H950.8v18.005h21.77v6.866H950.8v18.346h23.444v6.867h-30.647zm93.275-46.567c-3.1-2.43-7.62-4.437-12.395-4.437-6.195 0-9.966 3.183-9.966 7.954 0 2.933 1.675 5.279 5.28 7.541l9.878 6.192c7.036 4.438 9.632 8.713 9.632 14.658 0 8.125-5.945 15.496-18.007 15.496-5.774 0-10.72-1.762-13.982-3.433v-8.458c3.017 2.512 7.87 5.108 13.816 5.108 6.87 0 10.553-3.938 10.553-8.375 0-3.017-2.012-5.78-6.2-8.375l-9.795-6.196c-6.532-4.02-8.878-8.296-8.878-13.992 0-7.283 4.941-14.904 17.836-14.904 4.945 0 9.212 1.338 12.228 3.1v8.121zm40.438 40.283c12.479 0 21.861-9.716 21.861-22.195 0-12.388-9.382-22.192-21.86-22.192-12.395 0-21.774 9.804-21.774 22.192 0 12.479 9.379 22.195 21.773 22.195zm0-51.504c16.666 0 29.31 12.646 29.31 29.309 0 16.67-12.644 29.316-29.31 29.316-16.665 0-29.305-12.646-29.305-29.316 0-16.663 12.64-29.309 29.305-29.309zm41.939 57.788v-56.95h7.203v50.083h23.448v6.867h-30.651zm80.889-56.95v36.596c0 12.983-7.958 21.191-20.599 21.191-12.732 0-20.69-8.208-20.69-21.191v-36.596h7.208v37.1c0 8.125 5.27 13.65 13.482 13.65 8.12 0 13.4-5.525 13.4-13.65v-37.1h7.199zm25.193 6.866h-15.24v-6.866h37.518v6.866h-15.074v50.084h-7.204v-50.084zm32.819-6.866h7.207v56.95h-7.207zm49.154 50.666c12.474 0 21.856-9.716 21.856-22.195 0-12.388-9.382-22.192-21.856-22.192-12.4 0-21.778 9.804-21.778 22.192 0 12.479 9.379 22.195 21.778 22.195zm0-51.504c16.665 0 29.306 12.646 29.306 29.309 0 16.67-12.64 29.316-29.306 29.316-16.665 0-29.31-12.646-29.31-29.316 0-16.663 12.645-29.309 29.31-29.309zm49.475 16.921v40.867h-7.204v-50.504l-3.937-5.859v-.587h8.712l32.66 44.554v-44.554h7.2v56.95h-7.2l-30.231-40.867zm80.793-5.7c-3.1-2.43-7.62-4.437-12.39-4.437-6.196 0-9.966 3.183-9.966 7.954 0 2.933 1.675 5.279 5.278 7.541l9.879 6.192c7.032 4.438 9.628 8.713 9.628 14.658 0 8.125-5.941 15.496-18.003 15.496-5.778 0-10.72-1.762-13.986-3.433v-8.458c3.016 2.512 7.87 5.108 13.82 5.108 6.87 0 10.549-3.938 10.549-8.375 0-3.017-2.008-5.78-6.195-8.375l-9.8-6.196c-6.528-4.02-8.874-8.296-8.874-13.992 0-7.283 4.941-14.904 17.836-14.904 4.941 0 9.212 1.338 12.224 3.1v8.121z" fill="#000" fill-rule="nonzero"/></svg>
