<svg viewBox="0 0 500 500" xmlns="http://www.w3.org/2000/svg"><path d="M484.07 338.004C448.468 432.656 357.099 500 250 500S51.533 432.656 15.93 338.004h468.14zM266.97 437.969l-36.5.562.062 4 36.5-.562-.062-4zm19.845-67.79c-6.157 0-10.628 1.84-13.416 5.522-2.787 3.681-4.18 9.016-4.18 16.005 0 14.767 5.865 22.151 17.596 22.151 11.69 0 17.534-7.384 17.534-22.151 0-6.989-1.394-12.324-4.18-16.005-2.788-3.682-7.239-5.522-13.354-5.522zm-75.875.624h-15.35v42.43h15.35c6.157 0 10.629-1.83 13.416-5.49 2.787-3.661 4.18-9.007 4.18-16.037 0-6.947-1.383-12.168-4.149-15.662-2.766-3.494-7.249-5.241-13.447-5.241zm41.744 0h-7.488v42.43h7.488v-42.43zm34.131 5.303c3.578 0 6.094 1.207 7.55 3.62 1.456 2.412 2.184 6.406 2.184 11.98 0 5.657-.728 9.776-2.184 12.355-1.456 2.579-3.972 3.868-7.55 3.868-3.577 0-6.105-1.29-7.581-3.868-1.477-2.58-2.215-6.698-2.215-12.355 0-5.574.727-9.568 2.183-11.98 1.456-2.413 3.994-3.62 7.613-3.62zm-75.875.936c3.66 0 6.209 1.072 7.644 3.214 1.435 2.142 2.153 5.959 2.153 11.45 0 5.574-.728 9.516-2.184 11.824-1.456 2.31-3.994 3.463-7.613 3.463h-7.862v-29.95h7.862zm79.347-177.793c32.316 0 54.075 18.668 54.075 50.084 0 32.058-21.759 50.727-54.075 50.727-32.445 0-54.204-18.669-54.204-50.727 0-31.416 21.759-50.084 54.204-50.084zm-125.317.129c29.999 0 56.521 10.943 56.521 48.28 0 32.832-21.372 51.887-59.868 51.887-1.257 0-2.549-.023-3.872-.07l-1.333-.058c-11.42-.558-25.028-3.038-38.828-9.27 1.803-7.726 1.674-14.034 0-23.69 9.013 7.982 24.205 14.805 41.071 14.805 23.071 0 47.782-13.25 38.155-47.994l-.302-1.06h-2.06c.257 19.957-11.716 32.06-38.11 32.06-22.145 0-44.548-7.983-44.548-31.03 0-25.106 26.523-33.86 53.174-33.86zm-69.654 2.06l-.086 1.11-.125 1.753-.118 1.85-.075 1.286-.107 2.003-.067 1.383-.096 2.14-.09 2.217-.082 2.287-.1 3.15-.088 3.253-.076 3.344-.033 1.703-.058 3.457-.054 4.404-.035 4.473-.014 3.612-.003 2.72.007 3.132.025 4.494.045 4.464.065 4.41.066 3.474.079 3.412.092 3.339.105 3.253.118 3.155.064 1.537.138 2.985.112 2.156.079 1.395.082 1.358.13 1.968.137 1.878.096 1.2.099 1.157.155 1.65h-28.97l.058-.74.11-1.517.106-1.567.102-1.614.096-1.659.137-2.565.086-1.758.082-1.792.078-1.824.074-1.854.07-1.88.099-2.865.061-1.934.113-3.918.1-3.964.088-3.989.095-4.986.094-5.93.097-7.69.1-10.723.086-12.481h-1.931c-1.03 10.042-12.489 25.879-27.939 27.553 1.288-8.37 1.288-14.42 0-21.76 3.658-.609 7.462-1.929 11.062-3.819l.742-.399c8.25-4.547 15.282-12.085 16.779-20.887 9.012 1.544 20.342 1.673 27.938 0zm306.34-2.06c35.277 0 51.5 14.806 51.5 34.505 0 16.697-11.61 36.55-64.81 43.191l-1.625.197v2.318l2.832-.006 3.144-.022 3.418-.042 2.906-.05 2.266-.051 2.331-.062 2.388-.073 2.436-.088 1.647-.066 1.663-.073 1.675-.08 1.686-.087 1.694-.095 1.699-.102.85-.055 1.703-.115 1.702-.124 1.7-.133 1.692-.142 1.685-.151c.56-.053 1.119-.106 1.675-.162l1.661-.172 1.646-.182 1.628-.193.806-.1 1.596-.21c7.922-1.078 14.937-2.589 19.653-4.703l-.166 1.394-.152 1.344-.138 1.299a160 160 0 00-.124 1.255l-.11 1.214-.096 1.175c-.03.386-.056.766-.081 1.14l-.067 1.107-.053 1.076-.04 1.049-.024 1.023c-.05 2.866.07 5.46.36 8.05l.11.915.06.458.132.92.145.925.078.466.166.94H353.373c1.417-6.824 1.417-12.875 0-19.699l2.008-.268 2.02-.278 1.015-.144 2.035-.296 2.043-.308 2.047-.321 1.025-.166 2.05-.342c29.396-5 58.63-14.45 58.63-36.373 0-13.004-10.686-20.471-27.553-20.471-15.063 0-31.93 6.437-44.805 15.064 2.06-7.21 2.06-15.965 0-24.463 13.648-6.722 27.537-9.416 39.119-10.248l1.3-.086 1.281-.071.633-.03 1.248-.05 1.226-.036c.404-.01.805-.018 1.202-.024l1.178-.011.58-.001zm-111.627 18.41c-15.965 0-25.492 11.974-25.492 32.446 0 20.728 9.527 32.831 25.492 32.831 16.223 0 25.88-12.103 25.88-32.831 0-20.472-9.657-32.445-25.88-32.445zm-125.316-.514c-.64 0-1.27.009-1.888.027l-.92.034c-14.133.627-22.427 6.1-22.427 15.775 0 10.042 9.398 16.222 25.235 16.222 2.85 0 5.492-.2 7.908-.586l.797-.136c10.514-1.899 16.53-7.44 16.53-15.371 0-6.815-4.22-11.665-11.767-14.123l-.685-.214a32.683 32.683 0 00-2.16-.564l-.754-.162a37.76 37.76 0 00-.384-.076l-.78-.142a41.322 41.322 0 00-.797-.13l-.813-.115-.83-.102a55.378 55.378 0 00-6.265-.337zM250 0c107.476 0 199.112 67.82 234.445 162.999H15.555C50.888 67.82 142.525 0 250 0zm-43.937 86.504c-3.827 0-7.009 1.008-9.547 3.026-2.537 2.017-3.806 4.815-3.806 8.392 0 2.496.666 4.65 1.997 6.459 1.331 1.81 2.953 3.213 4.867 4.212 1.914.998 3.827 1.934 5.74 2.807 1.914.874 3.537 1.914 4.868 3.12 1.33 1.207 1.996 2.621 1.996 4.243 0 1.664-.561 2.996-1.684 3.994-1.123.998-2.85 1.497-5.18 1.497-3.702 0-8.007-1.185-12.916-3.556v6.552c4.118 1.955 8.507 2.932 13.166 2.932 4.202 0 7.654-1.112 10.358-3.338 2.704-2.226 4.056-5.148 4.056-8.767 0-2.62-.665-4.888-1.997-6.801-1.33-1.914-2.953-3.401-4.867-4.462a83.385 83.385 0 00-4.783-2.457l-.957-.444c-1.914-.874-3.536-1.872-4.867-2.995-1.331-1.124-1.997-2.392-1.997-3.807 0-1.33.489-2.444 1.466-3.338.978-.894 2.507-1.342 4.587-1.342 4.16 0 8.257 1.144 12.292 3.432v-6.551c-4.077-1.872-8.34-2.808-12.792-2.808zm79.12.624h-7.488v27.954c0 5.2 1.394 9.016 4.18 11.45 2.788 2.434 6.573 3.65 11.357 3.65 4.743 0 8.507-1.216 11.294-3.65 2.787-2.434 4.181-6.25 4.181-11.45V87.128h-7.488v27.954c0 2.537-.613 4.67-1.84 6.396-1.228 1.726-3.276 2.59-6.147 2.59-2.912 0-4.981-.853-6.208-2.559-1.227-1.706-1.841-3.848-1.841-6.427V87.128zm-22.712 0h-29.078v6.24h10.795v36.19h7.488v-36.19h10.795v-6.24zm4.498-35.159l-36.5.562.062 4 36.5-.562-.062-4z" fill="#13E87C" fill-rule="evenodd"/></svg>
