<svg viewBox="0 0 156.333 40" xmlns="http://www.w3.org/2000/svg"><g fill="none" fill-rule="evenodd"><path fill="currentColor" d="M0 0h39v40H0zM41.333 0h115v40h-115z"/><g fill="#FFF" fill-rule="nonzero"><path d="M48.741 19.985c3.563-.386 6.205-4.037 6.443-6.353h.445c-.03 4.097-.06 12.914-.445 17.812h6.68c-.505-5.076-.505-17.13-.09-22.265-1.751.386-4.364.356-6.442 0-.505 2.969-3.74 5.314-6.59 5.789.296 1.692.296 3.087 0 5.017zM90.868 19.837c0-8.61-6.116-11.133-13.033-11.133-6.145 0-12.26 2.019-12.26 7.808 0 5.314 5.165 7.154 10.271 7.154 6.086 0 8.847-2.79 8.788-7.392h.475c2.404 8.194-3.355 11.311-8.729 11.311-3.889 0-7.392-1.573-9.47-3.414.386 2.227.416 3.681 0 5.463 3.681 1.662 7.303 2.167 10.153 2.167 8.877 0 13.805-4.394 13.805-11.964zm-7.274-3.325c0 2.286-2.167 3.71-5.818 3.71-3.652 0-5.82-1.424-5.82-3.74 0-2.375 2.168-3.652 5.82-3.652 3.651 0 5.818 1.336 5.818 3.682zM106.73 31.92c7.452 0 12.47-4.305 12.47-11.697 0-7.244-5.018-11.549-12.47-11.549-7.48 0-12.498 4.305-12.498 11.549 0 7.392 5.018 11.696 12.499 11.696zm-.058-3.92c-3.682 0-5.879-2.79-5.879-7.57 0-4.72 2.197-7.48 5.879-7.48 3.74 0 5.967 2.76 5.967 7.48 0 4.78-2.227 7.57-5.967 7.57zM121.278 31.444h23.78c-.327-1.78-.327-3.265 0-5.937-3.444 1.544-12.202 1.692-16.091 1.692v-.534c12.587-1.485 15.319-6.116 15.319-10.005 0-4.542-3.741-7.956-11.875-7.956-2.97 0-7.036.475-11.014 2.434.475 1.96.475 3.978 0 5.64 2.968-1.988 6.857-3.473 10.33-3.473 3.89 0 6.354 1.722 6.354 4.72 0 5.879-9.114 7.868-16.803 8.877a10.652 10.652 0 010 4.542z"/></g><g fill="#FFF" fill-rule="nonzero"><path d="M8.28 10.969c0 .562.15 1.047.449 1.455.3.407.665.724 1.096.949.432.224.863.435 1.294.632a4.24 4.24 0 011.096.703c.3.272.45.59.45.956 0 .375-.127.675-.38.9-.253.224-.642.337-1.166.337-.834 0-1.804-.267-2.91-.801v1.476a6.83 6.83 0 002.966.66c.946 0 1.724-.25 2.333-.752.61-.501.914-1.16.914-1.975 0-.59-.15-1.101-.45-1.532a3.245 3.245 0 00-1.096-1.005 18.602 18.602 0 00-1.293-.654 4.747 4.747 0 01-1.097-.674c-.3-.253-.45-.54-.45-.858 0-.3.11-.55.33-.752.22-.201.565-.302 1.034-.302.937 0 1.86.258 2.769.773V9.029a6.828 6.828 0 00-2.882-.633c-.862 0-1.579.228-2.15.682-.572.455-.858 1.085-.858 1.89zM18.56 18.095h1.688V9.942h2.43V8.537h-6.55v1.405h2.433zM27.529 18.236c1.068 0 1.916-.274 2.544-.822.628-.548.942-1.408.942-2.58V8.537h-1.687v6.297c0 .572-.138 1.052-.414 1.441-.277.39-.738.584-1.385.584-.656 0-1.122-.192-1.399-.577-.276-.384-.414-.867-.414-1.448V8.537h-1.687v6.297c0 1.172.314 2.032.942 2.58.628.548 1.48.822 2.558.822zM8.485 21.188v9.559h3.458c1.387 0 2.394-.413 3.022-1.237.628-.825.942-2.03.942-3.613 0-1.565-.312-2.74-.935-3.528-.623-.787-1.633-1.18-3.03-1.18H8.486zm1.686 8.153v-6.747h1.772c.824 0 1.398.241 1.722.724.323.482.485 1.342.485 2.58 0 1.255-.164 2.143-.492 2.663-.328.52-.9.78-1.715.78H10.17zM20.16 21.188h-1.686v9.558h1.687zM26.864 30.887c2.633 0 3.95-1.663 3.95-4.99 0-1.574-.314-2.776-.942-3.605-.628-.83-1.63-1.244-3.008-1.244-1.387 0-2.394.414-3.022 1.244-.628.829-.942 2.03-.942 3.605 0 3.327 1.321 4.99 3.964 4.99zm0-8.504c.806 0 1.373.272 1.7.815.329.544.493 1.443.493 2.7 0 1.274-.164 2.201-.492 2.782-.328.581-.895.872-1.701.872s-1.375-.29-1.708-.872c-.333-.58-.499-1.508-.499-2.783 0-1.256.164-2.155.492-2.699.328-.543.9-.815 1.715-.815z"/></g></g></svg>
