<svg viewBox="0 0 11 11"><g fill-rule="nonzero"><path d="M5.238 8.5l-.501.008-.47.015-.438.023-.404.033C2.2 8.698 1.5 8.969 1.5 9.5s.7.802 1.925.921l.404.033.437.023.47.015.502.007h.524l.501-.007.47-.015.438-.023.404-.033C8.8 10.302 9.5 10.031 9.5 9.5s-.7-.802-1.925-.921l-.404-.033-.437-.023-.47-.015-.502-.007h-.524zM9.875 0C10.496 0 11 .504 11 1.125v5.75C11 7.496 10.496 8 9.875 8h-8.75A1.125 1.125 0 010 6.875v-5.75C0 .504.504 0 1.125 0h8.75zm0 1h-8.75a.125.125 0 00-.119.085L1 1.125v5.75c0 .055.036.102.085.119l.04.006h8.75a.125.125 0 00.119-.085l.006-.04v-5.75a.125.125 0 00-.085-.119L9.875 1z"/></g></svg>
