<svg viewBox="0 0 17 9" xmlns="http://www.w3.org/2000/svg"><g fill="none" fill-rule="evenodd"><path d="M7.469 5.976a1.48 1.48 0 00-.087-.407 1.653 1.653 0 00-.18-.38 1.94 1.94 0 00-.606-.58c.161-.208.302-.431.42-.666a2 2 0 00.193-.667 1.06 1.06 0 00-.573-1.02 1.113 1.113 0 00-1.14.127 1.48 1.48 0 00-.434.546c-.076.171-.14.347-.193.527a5.293 5.293 0 01-.58-.667 1.813 1.813 0 01-.273-.6 3.08 3.08 0 01-.067-.733c0-.214-.038-.426-.113-.627a1.14 1.14 0 00-.487-.56 1.48 1.48 0 00-1.14-.146 1.08 1.08 0 00-.813.826 2.62 2.62 0 000 1.094 2.4 2.4 0 00.36.786h-.114a2.44 2.44 0 01-.44 0 2.04 2.04 0 00-.666 0 .72.72 0 00-.36.294 1.013 1.013 0 00-.08 1 1.2 1.2 0 00.62.666c.361.135.748.19 1.133.16a1.907 1.907 0 001.047-.366c.388.232.762.488 1.12.766a2.4 2.4 0 01.56.7c.082.172.134.357.153.547.027.247.078.49.153.727.096.243.258.456.467.613a1.66 1.66 0 001.107.3c.43-.024.801-.306.94-.713.085-.511.11-1.03.073-1.547z" fill="#000"/><path d="M15.882 3.15a.707.707 0 00-.326-.294 1.78 1.78 0 00-.667 0c-.13.01-.262.01-.393 0h-.1a2.6 2.6 0 00.34-.807 2.76 2.76 0 000-1.073 1.067 1.067 0 00-.72-.927 1.333 1.333 0 00-1.087.167c-.225.14-.395.355-.48.607-.065.195-.097.4-.093.606.023.235.023.472 0 .707a1.84 1.84 0 01-.267.593 5.56 5.56 0 01-.507.62 3.46 3.46 0 00-.16-.486 1.54 1.54 0 00-.406-.56 1.013 1.013 0 00-1.127-.107c-.339.215-.53.6-.5 1 .022.23.083.456.18.667a4.1 4.1 0 00.4.666 1.867 1.867 0 00-.58.607 1.96 1.96 0 00-.247.773v1.08c.008.152.034.302.08.447.118.395.463.68.874.72a1.5 1.5 0 001.053-.313c.202-.161.355-.376.44-.62.08-.234.136-.475.167-.72.02-.189.07-.373.146-.547.122-.25.29-.477.494-.667.299-.284.617-.547.953-.786.277.21.612.334.96.353.355.023.71-.034 1.04-.167.277-.135.488-.375.587-.666a1.06 1.06 0 00-.054-.874z" fill="#000" fill-rule="nonzero"/><path d="M6.929 7.31a.54.54 0 01-.513.306c-.246 0-.483-.09-.667-.253a.707.707 0 01-.227-.32 5.333 5.333 0 01-.173-.727 2 2 0 00-.24-.613 3.067 3.067 0 00-.793-.787c-.43-.273-.876-.523-1.334-.747-.086-.053-.286 0-.293 0-.257.139-.55.2-.84.174a2.08 2.08 0 01-.847-.22.52.52 0 01-.253-.267.36.36 0 010-.32.127.127 0 01.093-.08c.134 0 .287 0 .42-.047.172-.027.341-.067.507-.12a1.88 1.88 0 00.48-.233.18.18 0 00.067-.247.233.233 0 00-.1-.08 2 2 0 01-.3-.786 2.093 2.093 0 01.1-.854.487.487 0 01.36-.3.8.8 0 01.586.107c.14.08.237.216.267.373.043.382.11.76.2 1.134a2.4 2.4 0 00.473.726c.28.281.578.542.894.78a.193.193 0 00.126.134.213.213 0 00.267-.14c.09-.246.206-.48.347-.7a.94.94 0 01.3-.287.493.493 0 01.486 0 .427.427 0 01.234.387c.015.21-.012.42-.08.62-.07.23-.162.453-.274.666v.034a.22.22 0 00.054.293c.152.148.27.328.346.527.04.093.06.186.094.28.033.093.1.286.14.433.173.633.266.807.093 1.173v-.02zM15.282 3.816a.473.473 0 01-.22.273 1.72 1.72 0 01-.753.234 1.247 1.247 0 01-.76-.2s-.213-.087-.3 0c-.425.228-.836.48-1.233.753a2.88 2.88 0 00-.727.773 8.5 8.5 0 00-.387 1.334.667.667 0 01-.213.326.84.84 0 01-.573.247.493.493 0 01-.447-.307 1.053 1.053 0 01-.087-.373c.027-.29.094-.575.2-.847.04-.146.08-.286.127-.433.047-.147.047-.193.087-.28a1.42 1.42 0 01.313-.54.22.22 0 00.04-.293 4.733 4.733 0 01-.24-.667 1.853 1.853 0 01-.073-.62.453.453 0 01.206-.393.38.38 0 01.407 0c.114.073.21.17.28.286.128.213.237.436.327.667a.207.207 0 00.26.147.193.193 0 00.126-.14c.298-.246.578-.51.84-.794.183-.211.327-.452.427-.713.089-.37.151-.747.187-1.127a.553.553 0 01.206-.34.613.613 0 01.507-.1.44.44 0 01.34.314c.08.279.105.57.073.86a2.04 2.04 0 01-.273.8s-.067 0-.08.06a.18.18 0 00.053.253c.136.097.284.176.44.233.157.053.317.093.48.12.12 0 .254 0 .38.047.127.047.047.033.067.067a.413.413 0 01-.007.353v.02z" fill="#FAF77D" fill-rule="nonzero"/></g></svg>
