<svg xmlns="http://www.w3.org/2000/svg" viewBox="0 0 200 49.548">
	<g transform="translate(11882.544 13473.916)">
		<path d="M14.6,16.251V14.315a1.951,1.951,0,0,0-1.951-1.951H8.915V10.57c-.006-2.1.468-3.352.894-3.809l.02-.025a2.183,2.183,0,0,1,1.054-.575,25.457,25.457,0,0,1,4.168-.323h.717A1.951,1.951,0,0,0,17.72,3.887V2.139A1.947,1.947,0,0,0,16.142.223c-.236-.046-.5-.092-.793-.137C14.981.029,13.048,0,12.668,0h-.027C9.5,0,6.824.734,5.032,2.656l0,0C3.278,4.588,2.649,7.315,2.64,10.63V47.159A1.951,1.951,0,0,0,4.591,49.11H6.964a1.949,1.949,0,0,0,1.951-1.951V18.2h3.732A1.949,1.949,0,0,0,14.6,16.251" transform="translate(-11885.184 -13473.916)" fill="#272827"/>
		<path d="M232.423,49.118a1.88,1.88,0,0,0,1.364.606H236.2a1.949,1.949,0,0,0,1.841-1.308l14.8-42.461A1.951,1.951,0,0,0,251,3.36h-2.372a1.948,1.948,0,0,0-1.843,1.309l-14.8,42.461h0a1.8,1.8,0,0,0-.115.63,2,2,0,0,0,.552,1.358" transform="translate(-11935.494 -13474.653)" fill="#7476eb"/>
		<path d="M171.35,52.251h2.31a1.949,1.949,0,0,0,1.951-1.951V30.381a10.922,10.922,0,0,1,.562-3.366h0a10.889,10.889,0,0,1,1.643-3.179,8.159,8.159,0,0,1,2.473-2.225,6.047,6.047,0,0,1,3.113-.768,5.475,5.475,0,0,1,3.36.894,5.65,5.65,0,0,1,1.9,2.65,12.59,12.59,0,0,1,.719,4.434V50.3a1.951,1.951,0,0,0,1.951,1.951h2.31a1.949,1.949,0,0,0,1.95-1.951V30.381a10.955,10.955,0,0,1,.561-3.366h0a10.862,10.862,0,0,1,1.642-3.18,8.171,8.171,0,0,1,2.474-2.225,6.051,6.051,0,0,1,3.113-.768,5.471,5.471,0,0,1,3.359.894,5.633,5.633,0,0,1,1.9,2.649,12.6,12.6,0,0,1,.719,4.435V50.3a1.951,1.951,0,0,0,1.951,1.951h2.31a1.949,1.949,0,0,0,1.951-1.951V28.257a17.409,17.409,0,0,0-1.252-6.923,10.4,10.4,0,0,0-4.031-4.782A11.848,11.848,0,0,0,203.9,14.88h-.039a12.469,12.469,0,0,0-6.767,1.926,12.864,12.864,0,0,0-3.43,3.237,10.2,10.2,0,0,0-3.312-3.484,11.557,11.557,0,0,0-6.307-1.679H184a12.364,12.364,0,0,0-6.7,1.927,12.008,12.008,0,0,0-1.687,1.324v-.7A1.956,1.956,0,0,0,173.69,15.5H171.35a1.951,1.951,0,0,0-1.951,1.951V50.3a1.951,1.951,0,0,0,1.951,1.951" transform="translate(-11921.783 -13477.182)" fill="#272827"/>
		<path d="M130.368,50.517h0a16.083,16.083,0,0,0,8.7,2.3h.037a16.209,16.209,0,0,0,8.552-2.22,14.474,14.474,0,0,0,5.665-6.606h0v0a24.9,24.9,0,0,0,1.9-10.058,25.1,25.1,0,0,0-1.857-9.98l0,0v0a14.91,14.91,0,0,0-5.568-6.722,15.785,15.785,0,0,0-8.686-2.339h-.04a16.191,16.191,0,0,0-8.586,2.253,14.439,14.439,0,0,0-5.665,6.614A24.99,24.99,0,0,0,122.96,33.94a24.765,24.765,0,0,0,1.814,9.857,14.457,14.457,0,0,0,5.594,6.72m1.5-26.542a7.826,7.826,0,0,1,2.976-2.335,10.559,10.559,0,0,1,4.236-.8,9.962,9.962,0,0,1,4.127.81,8.063,8.063,0,0,1,2.984,2.4c1.705,2.183,2.674,5.386,2.676,9.819v.006c0,4.568-.968,7.812-2.612,9.906a7.714,7.714,0,0,1-2.95,2.328,10.5,10.5,0,0,1-4.224.8,8.447,8.447,0,0,1-7.148-3.223c-1.726-2.189-2.7-5.364-2.7-9.75V33.93c0-4.607.978-7.867,2.638-9.956" transform="translate(-11911.591 -13477.182)" fill="#272827"/>
		<line y2="0.004" transform="translate(-11794.188 -13426.886)"/>
		<line y1="0.004" transform="translate(-11816.355 -13426.886)"/>
		<path d="M80.48,2.111V47.069a1.949,1.949,0,0,0,1.951,1.951h2.34A1.958,1.958,0,0,0,86.693,47.1V27.15a9.906,9.906,0,0,1,.607-3.314v0a10.5,10.5,0,0,1,1.794-3.161,8.7,8.7,0,0,1,2.787-2.248,7.844,7.844,0,0,1,3.665-.814,7.422,7.422,0,0,1,4.087.965,5.608,5.608,0,0,1,2.167,2.644,11.254,11.254,0,0,1,.786,4.369v21.48a1.951,1.951,0,0,0,1.951,1.951h2.4A1.957,1.957,0,0,0,108.86,47.1V25.027a15.723,15.723,0,0,0-1.45-7.015,10.98,10.98,0,0,0-4.394-4.728,13.486,13.486,0,0,0-6.838-1.636h-.029a13.871,13.871,0,0,0-7.192,1.929,13.612,13.612,0,0,0-2.264,1.687V2.111A1.951,1.951,0,0,0,84.741.16H82.4a1.961,1.961,0,0,0-1.926,1.925Zm5.432,44.958v0Zm22.167,0v0Z" transform="translate(-11902.268 -13473.951)" fill="#272827"/>
		<line y2="0.004" transform="translate(-11826.408 -13457.794)"/>
		<path d="M59.84,7.871V39.9c.006,3.28.646,6,2.379,7.929l0,0,0,0c1.8,1.954,4.5,2.7,7.682,2.7h0q.561,0,1.1-.035a4.547,4.547,0,0,0,1.369-.288A1.952,1.952,0,0,0,73.608,48.4V46.648A1.951,1.951,0,0,0,71.657,44.7h-.916a9.262,9.262,0,0,1-2.651-.325,2.194,2.194,0,0,1-1.058-.57l-.022-.027c-.428-.458-.9-1.714-.9-3.81V19.375h4.073a1.957,1.957,0,0,0,1.922-1.922V15.489a1.951,1.951,0,0,0-1.951-1.951H66.115V7.871A1.951,1.951,0,0,0,64.164,5.92h-2.4A1.959,1.959,0,0,0,59.84,7.845Zm11.489,9.554v0Z" transform="translate(-11897.737 -13475.215)" fill="#272827"/>
		<line y2="0.004" transform="translate(-11869.806 -13470.157)"/>
		<line y1="0.004" transform="translate(-11877.049 -13426.886)"/>
		<line y2="0.004" transform="translate(-11871.366 -13457.794)"/>
		<path d="M17.161,41.747v.023a10.778,10.778,0,0,0,1.659,5.976,10.33,10.33,0,0,0,4.634,3.845A16.581,16.581,0,0,0,30.1,52.814a15.137,15.137,0,0,0,5.125-.958,16.286,16.286,0,0,0,5.037-2.972c.293-.25.569-.517.838-.791a9.2,9.2,0,0,0,1.138,3.23,1.937,1.937,0,0,0,1.663.929h0l1.142-.013a1.951,1.951,0,0,0,1.929-1.951v-20.9a18.291,18.291,0,0,0-1.417-7.474,11.26,11.26,0,0,0-4.632-5.228,14.73,14.73,0,0,0-7.579-1.8,17.255,17.255,0,0,0-7.562,1.536,12.139,12.139,0,0,0-5.151,4.605l-.009.014a1.687,1.687,0,0,0-.253.888,1.782,1.782,0,0,0,1.2,1.673h0l1.915.681a2.7,2.7,0,0,0,.908.156,2.745,2.745,0,0,0,2.125-1.014,7.81,7.81,0,0,1,.578-.633c1.253-1.216,3.112-1.933,6-1.944a10.445,10.445,0,0,1,3.662.571,5,5,0,0,1,2.16,1.519c1.084,1.33,1.766,3.386,1.83,6.332-2.788.044-5.261.16-7.4.36a34.753,34.753,0,0,0-7.893,1.643h0l-.009,0-.023.007,0,0a12.546,12.546,0,0,0-6.06,3.751,10.167,10.167,0,0,0-2.2,6.676Zm22.18-.325a11.5,11.5,0,0,1-3.853,4.014,9.463,9.463,0,0,1-5.2,1.477,7.939,7.939,0,0,1-5.215-1.487,4.338,4.338,0,0,1-1.22-1.58,5.627,5.627,0,0,1-.417-2.227,5.061,5.061,0,0,1,.651-2.563,5.227,5.227,0,0,1,2.395-1.921,21.978,21.978,0,0,1,6.056-1.577,67.9,67.9,0,0,1,8.227-.578v1.207a10.207,10.207,0,0,1-1.423,5.234" transform="translate(-11888.371 -13477.182)" fill="#272827"/>
	</g>
</svg>
