<?xml version="1.0" encoding="UTF-8"?>
<svg width="76px" height="79px" viewBox="0 0 76 79" version="1.1" xmlns="http://www.w3.org/2000/svg" xmlns:xlink="http://www.w3.org/1999/xlink">
    <title>laravel</title>
    <g id="DESIGN" stroke="none" stroke-width="1" fill="none" fill-rule="evenodd">
        <g id="SERVICE-/-WEBDESIGN" transform="translate(-1103.000000, -2055.000000)" fill="#FF2D20">
            <g id="Group-6" transform="translate(94.564815, 1501.000000)">
                <g id="laravel" transform="translate(1008.435185, 554.000000)">
                    <path d="M75.9571434,17.6995653 C75.9853241,17.8038701 76,17.9114146 76,18.0194589 L76,34.813111 C76,35.251851 75.7652933,35.6570685 75.3847021,35.8753416 L61.2894832,43.9905388 L61.2894832,60.0755269 C61.2894832,60.5132761 61.0568333,60.9173524 60.6772465,61.1377576 L31.2546824,78.0752853 C31.1873364,78.11355 31.113868,78.1380395 31.0403996,78.1640596 C31.0128489,78.1732431 30.9868289,78.1900796 30.9577476,78.1977326 C30.7520728,78.2518951 30.5358799,78.2518951 30.330205,78.1977326 C30.296532,78.188549 30.2659202,78.1701819 30.2337777,78.1579372 C30.1664317,78.1334477 30.0960245,78.1120195 30.0317396,78.0752853 L0.615297861,61.1377576 C0.234938503,60.9192517 0,60.5141816 0,60.0755269 L0,9.69457071 C0,9.5843681 0.0153059169,9.47722669 0.0428565674,9.37314645 C0.0520401176,9.33794284 0.0734684013,9.30580042 0.0857131349,9.27059681 C0.10867201,9.20631196 0.130100294,9.14049651 0.163773311,9.08080344 C0.186732187,9.04100805 0.220405204,9.00886563 0.247955855,8.97213143 C0.283159463,8.92315249 0.315301889,8.87264297 0.356627865,8.8297864 C0.391831474,8.79458279 0.437749225,8.76856273 0.477544609,8.7379509 C0.521931768,8.7012167 0.561727152,8.66142131 0.612236678,8.63234007 L0.61376727,8.63234007 L15.3227535,0.163576225 C15.7017753,-0.0545254082 16.168205,-0.0545254082 16.5472268,0.163576225 L31.256213,8.63234007 L31.2592742,8.63234007 C31.3082531,8.6629519 31.3495791,8.7012167 31.3939662,8.73642031 C31.4337616,8.76703214 31.4781488,8.79458279 31.5133524,8.82825581 C31.556209,8.87264297 31.5868208,8.92315249 31.623555,8.97213143 C31.6495751,9.00886563 31.6847787,9.04100805 31.706207,9.08080344 C31.7414106,9.1420271 31.7613083,9.20631196 31.7857977,9.27059681 C31.7980425,9.30580042 31.8194707,9.33794284 31.8286543,9.37467704 C31.856835,9.47898185 31.8712428,9.5865264 31.8715109,9.69457071 L31.8715109,41.1620054 L44.1284891,34.1044471 L44.1284891,18.0179283 C44.1284891,17.9107869 44.1437951,17.8021149 44.1713457,17.6995653 C44.1820599,17.6628311 44.2019575,17.6306886 44.2142023,17.595485 C44.2386917,17.5312002 44.26012,17.4653847 44.293793,17.4056917 C44.3167519,17.3658963 44.3504249,17.3337539 44.376445,17.2970197 C44.4131792,17.2480407 44.443791,17.1975312 44.4866476,17.1546746 C44.5218512,17.119471 44.5662384,17.093451 44.6060338,17.0628391 C44.6519515,17.0261049 44.6917469,16.9863095 44.7407258,16.9572283 L44.7422564,16.9572283 L59.4527732,8.48846445 C59.831711,8.27004857 60.2983088,8.27004857 60.6772465,8.48846445 L75.3862327,16.9572283 C75.4382728,16.9878401 75.4780682,17.0261049 75.523986,17.0613085 C75.5622508,17.0919204 75.6066379,17.119471 75.6418415,17.153144 C75.6846981,17.1975312 75.7153099,17.2480407 75.7520441,17.2970197 C75.7795948,17.3337539 75.8132678,17.3658963 75.8346961,17.4056917 C75.8698997,17.4653847 75.8897974,17.5312002 75.9142869,17.595485 C75.9280622,17.6306886 75.9479599,17.6628311 75.9571434,17.6995653 Z M73.5479921,34.1044471 L73.5479921,20.1393284 L68.4006122,23.102554 L61.2894832,27.1968867 L61.2894832,41.1620054 L73.5495227,34.1044471 L73.5479921,34.1044471 Z M58.8390059,59.366863 L58.8390059,45.3925608 L51.8442019,49.3874051 L31.8699803,60.7872521 L31.8699803,74.8931851 L58.8390059,59.366863 Z M2.45200789,11.8144402 L2.45200789,59.366863 L29.4179724,74.8916545 L29.4179724,60.7887827 L15.3304064,52.8159305 L15.3258146,52.8128693 L15.3196923,52.8098081 C15.2722439,52.7822575 15.2324485,52.7424621 15.1880614,52.7087891 C15.1497966,52.6781773 15.1054094,52.6536878 15.0717364,52.6200148 L15.0686752,52.615423 C15.0288798,52.5771582 15.0013292,52.5297099 14.9676562,52.4868533 C14.9370443,52.4455273 14.9003101,52.4103237 14.8758207,52.3674671 L14.8742901,52.3628754 C14.8467394,52.3169576 14.8299029,52.2618563 14.8100052,52.2098162 C14.7901075,52.1638985 14.7640875,52.1210419 14.7518428,52.072063 L14.7518428,52.0705324 C14.7365368,52.0123699 14.7334757,51.9511462 14.7273533,51.8914531 C14.7212309,51.8455354 14.7089862,51.7996176 14.7089862,51.7536999 L14.7089862,51.7506387 L14.7089862,18.8719985 L7.59938776,14.7761351 L2.45200789,11.8159708 L2.45200789,11.8144402 Z M15.9365207,2.64007359 L3.68107303,9.69457071 L15.9334595,16.7490678 L28.1873766,9.69304011 L15.9334595,2.64007359 L15.9365207,2.64007359 Z M22.3099045,46.6660131 L29.419503,42.5732109 L29.419503,11.8144402 L24.2721231,14.7776657 L17.1609941,18.8719985 L17.1609941,49.6307692 L22.3099045,46.6660131 Z M60.0650099,10.9649618 L47.8110928,18.0194589 L60.0650099,25.0739561 L72.3173964,18.0179283 L60.0650099,10.9649618 Z M58.8390059,27.1968867 L51.7278769,23.102554 L46.580497,20.1393284 L46.580497,34.1044471 L53.6900955,38.1972492 L58.8390059,41.1620054 L58.8390059,27.1968867 Z M30.6424457,58.6673826 L48.616184,48.4062958 L57.6007572,43.2788137 L45.3560237,36.2289083 L31.2577436,44.3456361 L18.4084263,51.7429857 L30.6424457,58.6673826 Z" id="Shape"></path>
                </g>
            </g>
        </g>
    </g>
</svg>
