<?xml version="1.0" encoding="UTF-8"?>
<!-- Generated by Pixelmator Pro 2.4.2 -->
<svg width="432" height="165" viewBox="0 0 432 165" xmlns="http://www.w3.org/2000/svg" xmlns:xlink="http://www.w3.org/1999/xlink">
    <path id="ploiio" fill="#1853db" fill-rule="evenodd" stroke="none" d="M 381.762939 117.087891 C 391.95993 117.087891 398.952454 113.22847 402.740723 105.509521 C 406.528992 97.790573 408.423096 89.203011 408.423096 79.746582 C 408.423096 71.201614 407.055908 64.251816 404.321533 58.896973 C 399.992096 50.465942 392.529602 46.250488 381.933838 46.250488 C 372.534363 46.250488 365.698517 49.839317 361.426025 57.01709 C 357.153534 64.194862 355.017334 72.85363 355.017334 82.993652 C 355.017334 92.734909 357.153534 100.852509 361.426025 107.34668 C 365.698517 113.840851 372.477417 117.087891 381.762939 117.087891 Z M 382.361084 32.834961 C 394.153137 32.834961 404.122101 36.765579 412.268311 44.626953 C 420.41452 52.488319 424.487549 64.05233 424.487549 79.319336 C 424.487549 94.073639 420.898712 106.264275 413.720947 115.891602 C 406.543182 125.518929 395.406403 130.33252 380.310303 130.33252 C 367.720734 130.33252 357.723267 126.074341 350.317627 117.557861 C 342.911987 109.041382 339.209229 97.605537 339.209229 83.25 C 339.209229 67.869064 343.111359 55.621468 350.915771 46.506836 C 358.720184 37.392204 369.201843 32.834961 382.361084 32.834961 Z M 311.817627 35.911133 L 327.454834 35.911133 L 327.454834 127 L 311.817627 127 Z M 311.817627 1.475098 L 327.454834 1.475098 L 327.454834 18.906738 L 311.817627 18.906738 Z M 272.121338 108.37207 L 289.980225 108.37207 L 289.980225 127 L 272.121338 127 Z M 234.817627 35.911133 L 250.454834 35.911133 L 250.454834 127 L 234.817627 127 Z M 234.817627 1.475098 L 250.454834 1.475098 L 250.454834 18.906738 L 234.817627 18.906738 Z M 179.056885 117.087891 C 189.253876 117.087891 196.246399 113.22847 200.034668 105.509521 C 203.822937 97.790573 205.717041 89.203011 205.717041 79.746582 C 205.717041 71.201614 204.349869 64.251816 201.615479 58.896973 C 197.286026 50.465942 189.823532 46.250488 179.227783 46.250488 C 169.828323 46.250488 162.992447 49.839317 158.719971 57.01709 C 154.447495 64.194862 152.311279 72.85363 152.311279 82.993652 C 152.311279 92.734909 154.447495 100.852509 158.719971 107.34668 C 162.992447 113.840851 169.771362 117.087891 179.056885 117.087891 Z M 179.655029 32.834961 C 191.447083 32.834961 201.416061 36.765579 209.562256 44.626953 C 217.70845 52.488319 221.781494 64.05233 221.781494 79.319336 C 221.781494 94.073639 218.192657 106.264275 211.014893 115.891602 C 203.837128 125.518929 192.700348 130.33252 177.604248 130.33252 C 165.014664 130.33252 155.017212 126.074341 147.611572 117.557861 C 140.205933 109.041382 136.503174 97.605537 136.503174 83.25 C 136.503174 67.869064 140.405319 55.621468 148.209717 46.506836 C 156.014114 37.392204 166.495789 32.834961 179.655029 32.834961 Z M 109.538818 1.475098 L 124.919678 1.475098 L 124.919678 127 L 109.538818 127 Z M 55.657959 116.660645 C 62.835728 116.660645 68.802872 113.655716 73.55957 107.645752 C 78.316269 101.635788 80.69458 92.649475 80.69458 80.686523 C 80.69458 73.394821 79.640717 67.128609 77.532959 61.887695 C 73.545311 51.804634 66.253716 46.763184 55.657959 46.763184 C 45.005238 46.763184 37.713642 52.089462 33.782959 62.742188 C 31.675201 68.438828 30.621338 75.673462 30.621338 84.446289 C 30.621338 91.510124 31.675201 97.519997 33.782959 102.476074 C 37.770611 111.932503 45.062202 116.660645 55.657959 116.660645 Z M 15.838623 35.911133 L 30.792236 35.911133 L 30.792236 48.044922 C 33.868423 43.886375 37.229393 40.667816 40.875244 38.38916 C 46.059189 34.971176 52.154507 33.262207 59.161377 33.262207 C 69.529266 33.262207 78.330452 37.235558 85.565186 45.182373 C 92.799919 53.129189 96.417236 64.479584 96.417236 79.233887 C 96.417236 99.172134 91.204887 113.413528 80.780029 121.958496 C 74.171921 127.370308 66.481567 130.076172 57.70874 130.076172 C 50.815804 130.076172 45.033794 128.566589 40.362549 125.547363 C 37.628159 123.838371 34.580502 120.904648 31.219482 116.746094 L 31.219482 163.486816 L 15.838623 163.486816 Z"/>
</svg>
