
<svg width="700px" height="331px" viewBox="0 0 700 331" version="1.1" xmlns="http://www.w3.org/2000/svg" xmlns:xlink="http://www.w3.org/1999/xlink">
    <g id="DESIGN" stroke="none" stroke-width="1" fill="none" fill-rule="evenodd">
        <g id="SERVICE-/-WEBDESIGN" transform="translate(47.000000, -1241.000000)" fill-rule="nonzero">
            <g id="statamic-peak-logo" transform="translate(-47.000000, 1241.000000)">
                <path d="M700,0 C683.768,17.21 667.537,36.014 651.306,55.23 L646.879,60.48 L642.453,65.744 L626.961,84.212 L622.534,89.478 L618.108,94.731 C606.304,108.712 594.501,122.484 582.698,135.591 C605.238,160.883 627.781,183.518 650.323,205.056 L653.978,208.539 C655.806,210.276 657.634,212.007 659.462,213.731 L663.117,217.173 L666.773,220.6 L670.428,224.015 L674.084,227.419 L677.74,230.813 L681.395,234.199 L686.879,239.266 L690.535,242.638 C603.205,258.224 515.875,257.941 428.545,254.341 L421.911,254.061 C419.701,253.966 417.49,253.869 415.279,253.771 L408.646,253.469 L402.013,253.159 L395.381,252.84 L388.748,252.515 L378.798,252.018 L349.559,250.525 C337.378,249.903 319.106,249.028 294.744,247.902 L279.829,279.432 C270.651,298.083 263.769,312.285 259.183,322.038 C211.407,323.089 163.633,324.638 115.859,326.248 L72.863,327.7 C48.976,328.503 25.09,329.289 1.203,330.003 L0,330.325 L1.763,307.36 L3.526,284.243 L5.289,261.016 L11.753,175.561 L13.516,152.356 L14.691,136.951 L16.454,113.971 L18.217,91.178 L18.805,83.629 C20.842,83.292 22.885,82.961 24.929,82.639 C53.103,78.211 81.274,75.399 109.45,73.732 C166.013,70.398 222.574,71.634 279.137,73.972 L285.924,74.258 L289.318,74.404 L296.105,74.704 L300.405,66.745 C310.438,48.157 320.47,29.404 330.503,10.02 C408.881,9.148 487.259,6.885 565.638,4.364 L588.031,3.637 L644.016,1.798 L666.409,1.069 C677.606,0.707 688.803,0.349 700,0 Z" id="Path" fill="#FFFFFF"></path>
                <path d="M297.466,181.213 C304.276,169.057 311.09,157.063 317.899,145.101 L315.846,144.948 C308.602306,144.40609 301.357284,143.882089 294.111,143.376 C273.321,141.926 252.53,140.66 231.741,139.793 C230.76244,152.319285 229.797439,164.846626 228.846,177.375 C250.464,178.203 272.086,179.473 293.701,180.955 C294.955,181.039 296.212,181.126 297.466,181.213 M102.821,140.193 C101.298626,160.076686 99.8159559,179.963393 98.373,199.853 C113.701,198.554 129.031,197.686 144.359,197.175 C183.622,195.805 187.841,136.727 148.817,137.735 C133.483,138.152 118.152,138.941 102.821,140.194 M690.535,242.638 C654.587,209.497 618.642,175.922 582.697,135.59 C621.797,92.175 660.895,41.46 700,0 C576.834,3.845 453.669,8.649 330.503,10.02 C319.036,32.173 307.573,53.501 296.105,74.704 C233.886,71.927 171.67,70.064 109.45,73.732 C81.274,75.398 53.103,78.212 24.93,82.639 C22.886,82.961 20.842,83.292 18.805,83.629 C12.535,164.006 6.269,248.989 0,330.325 L1.204,330.004 C87.194,327.434 173.187,323.93 259.183,322.038 C265.900611,307.756926 272.783071,293.553978 279.829,279.432 C250.042,278.942 220.249,278.758 190.462,279.125 C192.356088,251.619809 194.323428,224.119712 196.364,196.625 C185.927,213.41 167.577,226.255 141.804,227.137 C126.35428,227.669817 110.918192,228.543363 95.507,229.757 C94.2409911,247.373563 92.9999899,264.991914 91.784,282.612 C81.4888291,283.237137 71.1994221,283.953832 60.917,284.762 L55.628,285.187 C59.845,225.714 64.064,168.567 68.281,115.173 C70.872,114.066 135.514,108.736 150.749,109.214 C176.503,108.645 193.005,120.462 200.942,136.637 C201.664,127.435 202.392,118.341 203.112,109.392 C245.992,110.249 288.87,113.028 331.749,115.989 C343.583,94.447 355.414,72.73 367.252,50.165 C378.475,50.451 389.698,50.715 400.921,50.947 C416.598,95.437 432.276,140.467 447.953,183.267 C451.372708,139.441114 454.636062,95.6031687 457.743,51.754 C468.034,51.823 478.321,51.841 488.611,51.802 C486.882647,76.6209205 485.099309,101.435981 483.261,126.247 C505.779,102.755 528.297,77.498 550.816,50.761 C563.598,50.367 576.38,49.856 589.166,49.211 C589.144,49.561 589.117,49.913 589.093,50.265 C562.833,80.934 536.573,110.315 510.311,137.197 C534.455,166.064 558.593,193.165 582.739,218.094 C582.689,218.696 582.637,219.297 582.592,219.899 C569.896948,220.63955 557.188443,221.12798 544.474,221.364 C523.503,198.706 502.531,174.375 481.56,148.941 C479.75202,172.879901 477.885015,196.814307 475.959,220.744 C459.98,220.209 444.002,219.448 428.023,218.548 C424.182512,208.206986 420.378155,197.85259 416.61,187.485 C388.085,185.596 359.556,183.295 331.03,181.123 C325.519523,191.079547 320.046817,201.056953 314.612,211.055 L314.032,211.019 C314.025,211.073 314.022,211.13 314.016,211.184 C284.78,209.274 255.538,207.607 226.299,206.708 C225.351,219.535 224.397,232.567 223.445,245.809 C379.14,247.773 534.84,270.425 690.535,242.639 M380.78,85.946 C389.157,110.116 397.538,134.433 405.916,158.431 C385.552,157.023 365.188,155.431 344.821,153.848 C356.808,131.499 368.794,109.105 380.78,85.946" id="Shape" fill="#FF0274"></path>
            </g>
        </g>
    </g>
</svg>
