<?xml version="1.0" encoding="UTF-8"?>
<svg width="76px" height="62px" viewBox="0 0 76 62" version="1.1" xmlns="http://www.w3.org/2000/svg" xmlns:xlink="http://www.w3.org/1999/xlink">
    <title>statamic</title>
    <defs>
        <linearGradient x1="34.0711196%" y1="19.7823919%" x2="68.5782411%" y2="84.8779497%" id="linearGradient-1">
            <stop stop-color="#DA2FB6" offset="0%"></stop>
            <stop stop-color="#FE1876" offset="100%"></stop>
        </linearGradient>
    </defs>
    <g id="DESIGN" stroke="none" stroke-width="1" fill="none" fill-rule="evenodd">
        <g id="SERVICE-/-WEBDESIGN" transform="translate(-493.000000, -1674.000000)" fill="url(#linearGradient-1)" fill-rule="nonzero">
            <g id="Group-6" transform="translate(94.564815, 1501.000000)">
                <g id="statamic" transform="translate(398.435185, 173.000000)">
                    <path d="M62.6326584,61.3181818 C68.1915022,61.3181818 70.2295751,58.9105339 70.2295751,53.0194805 L70.2295751,41.544733 C70.2295751,36.0634921 72.8790698,32.9386724 75.4266609,31.4531025 C75.7826488,31.2357198 76,30.847323 76,30.4285714 C76,30.0098199 75.7826488,29.6214231 75.4266609,29.4040404 C72.1347981,27.187601 70.1796868,23.4490057 70.2295751,19.4660895 L70.2295751,8.1962482 C70.2295751,1.84415584 68.4921179,0 62.9434645,0 L13.0565355,0 C7.50788205,0 5.7755201,1.84415584 5.7755201,8.1962482 L5.7755201,19.4660895 C5.82427677,23.4499823 3.86714092,27.1887834 0.573339062,29.4040404 C0.217351203,29.6214231 0,30.0098199 0,30.4285714 C0,30.847323 0.217351203,31.2357198 0.573339062,31.4531025 C3.12093017,32.8874459 5.7755201,36.0122655 5.7755201,41.544733 L5.7755201,53.0194805 C5.7755201,58.9105339 7.81359298,61.3181818 13.3673416,61.3181818 L62.6326584,61.3181818 Z M37.875168,50.8167388 C31.9138048,50.8167388 27.5829,49.0238095 23.5526108,45.4891775 C22.9532569,44.9380666 22.6190705,44.1540939 22.635478,43.3376623 C22.6107817,42.6835406 22.8307447,42.0438534 23.2519951,41.544733 L24.4595533,39.95671 C24.9187374,39.2729704 25.6773875,38.8534631 26.4976262,38.8297258 C27.4180102,38.8811275 28.3034387,39.2016005 29.0452173,39.7518038 C31.8532614,41.6218985 35.1541985,42.6032451 38.5222562,42.5692641 C41.3246064,42.5692641 43.5664866,41.3910534 43.5664866,38.9834055 C43.5664866,32.7337662 22.8749516,36.1659452 22.8749516,22.1298701 C22.8749516,14.5995671 28.9891703,10.3989899 36.9427497,10.3989899 C41.461663,10.3199574 45.9056298,11.5659932 49.731657,13.9848485 C50.53997,14.5840698 51.0136342,15.5365062 51.0054526,16.546176 C51.0173881,17.149619 50.83903,17.7413746 50.4959344,18.2366522 L49.5788016,19.6197691 C49.070442,20.4643696 48.1658468,20.9868326 47.1840659,21.002886 C46.4337603,20.9533135 45.7025394,20.7437657 45.0389942,20.3881674 C42.6950103,19.1729193 40.0892839,18.5571223 37.4522679,18.5952381 C34.4461104,18.5952381 32.6627966,20.2344877 32.6627966,21.9249639 C32.6627966,28.3282828 53.3441698,24.8448773 53.3441698,38.47114 C53.3594268,46.1038961 47.2452081,50.8167388 37.875168,50.8167388 Z" id="Shape"></path>
                </g>
            </g>
        </g>
    </g>
</svg>
