<?xml version="1.0" encoding="UTF-8"?>
<svg width="76px" height="46px" viewBox="0 0 76 46" version="1.1" xmlns="http://www.w3.org/2000/svg" xmlns:xlink="http://www.w3.org/1999/xlink">
    <title>tailwind</title>
    <g id="DESIGN" stroke="none" stroke-width="1" fill="none" fill-rule="evenodd">
        <g id="SERVICE-/-WEBDESIGN" transform="translate(-493.000000, -2055.000000)" fill="#07B6D5" fill-rule="nonzero">
            <g id="Group-6" transform="translate(94.564815, 1501.000000)">
                <g id="tailwind" transform="translate(398.435185, 554.000000)">
                    <path d="M37.076381,0.0151938559 C23.6730453,0.446396041 19.6893913,10.1379025 18.7764706,15.38827 C19.9660063,13.4421058 23.7145417,9.17191884 29.2335623,9.17191884 C35.6655036,9.17191884 40.5620782,16.4384275 43.5498187,18.7065863 C47.1796744,21.4622312 54.4735788,25.1006939 64.0490381,22.1508274 C71.6843749,19.7986627 75.2254283,11.5939764 76,7.70173193 C72.3068208,12.7840877 66.7048074,15.8367774 59.7749094,12.2380495 C55.0028239,9.759876 51.4341339,-0.446754481 37.076381,0.0151938559 Z" id="Path"></path>
                    <path d="M18.2999104,22.368135 C4.89657467,22.7993372 0.912920701,32.4908436 0,37.7412112 C1.18956057,35.7950469 4.93807107,31.52486 10.4570917,31.52486 C16.889033,31.52486 21.7856076,38.7913687 24.7733481,41.0595275 C28.4032038,43.8151724 35.6971083,47.4536351 45.2725675,44.5037686 C52.9079043,42.1516039 56.4489577,33.9469176 57.2235294,30.0546731 C53.5303502,35.1370289 47.9283368,38.1897186 40.9984388,34.5909907 C36.2263533,32.1128172 32.6576633,21.9061867 18.2999104,22.368135 Z" id="Path"></path>
                </g>
            </g>
        </g>
    </g>
</svg>
