<?xml version="1.0" encoding="UTF-8"?>
<svg width="218px" height="307px" viewBox="0 0 218 307" version="1.1" xmlns="http://www.w3.org/2000/svg" xmlns:xlink="http://www.w3.org/1999/xlink">
    <title>FLAM logo 2021</title>
    <g id="FLAM-logo-2021" stroke="none" stroke-width="1" fill="none" fill-rule="evenodd">
        <polygon id="Fill-1" fill="#BD252C" points="0.1416 219.8739 38.4786 219.8739 38.4786 237.2949 20.2216 237.2949 20.2216 253.8029 36.7576 253.8029 36.7576 270.3639 20.2216 270.3639 20.2216 306.9269 0.1416 306.9269"></polygon>
        <polygon id="Fill-2" fill="#BD252C" points="66.6602 219.8739 66.6602 289.5059 83.4802 289.5059 83.4802 306.9269 46.7842 306.9269 46.7842 219.8739"></polygon>
        <path d="M218.0762,219.8739 L218.0762,306.9269 L198.2892,306.9269 L198.2622,244.7219 L190.3862,306.9269 L176.3502,306.9269 L167.9522,244.4949 L168.0172,306.9269 L148.2302,306.9269 L148.2302,219.8739 L177.5212,219.8739 C178.3882,225.1079 179.2842,231.2769 180.2082,238.3799 L183.4222,263.3169 L188.6242,219.8739 L218.0762,219.8739 Z" id="Fill-3" fill="#BD252C"></path>
        <path d="M98.0391,204.2782 C98.0051,204.2782 97.9701,204.2782 97.9351,204.2702 C82.1941,201.9112 69.2831,197.7222 59.5581,191.8212 C50.7261,186.4642 44.4701,179.6772 40.9621,171.6532 C34.2821,156.3712 37.8401,136.7542 50.7251,117.8302 C62.4601,100.5932 60.1901,90.2252 56.4291,73.0482 L56.1941,71.9772 C56.1381,71.7162 56.2321,71.4452 56.4411,71.2772 C56.5691,71.1732 56.7261,71.1202 56.8851,71.1202 C56.9841,71.1202 57.0841,71.1412 57.1781,71.1842 C66.0191,75.2172 72.6361,82.3992 76.3111,91.9542 C79.5671,100.4192 80.3301,110.2332 78.5561,120.5182 C87.7611,106.3842 85.2801,96.2892 82.1871,83.7122 C80.4571,76.6752 78.4961,68.6992 78.4961,59.0002 C78.4961,45.2762 82.5181,32.3512 90.1241,21.6242 C96.8891,12.0862 106.3521,4.5552 116.7721,0.4202 C116.8571,0.3862 116.9451,0.3702 117.0331,0.3702 C117.2661,0.3702 117.4901,0.4852 117.6241,0.6902 C117.8081,0.9702 117.7681,1.3422 117.5301,1.5782 C117.4321,1.6762 107.6021,11.7382 107.6021,34.6302 C107.6021,52.6982 116.2531,68.8302 123.5101,79.1812 C129.5561,87.8052 135.6641,93.9602 138.2251,96.3982 C137.8911,85.9132 140.3861,77.3952 145.8291,70.3972 C150.6231,64.2372 157.8381,59.0652 168.5381,54.1202 C168.6331,54.0762 168.7331,54.0542 168.8341,54.0542 C169.0421,54.0542 169.2461,54.1472 169.3841,54.3182 C169.5871,54.5702 169.5931,54.9282 169.3981,55.1862 C164.8281,61.2542 162.7641,69.2882 163.2621,79.0682 C163.7931,89.4862 167.2341,101.6742 173.4901,115.2912 C183.5671,137.2282 184.6431,157.1522 176.5991,172.9082 C168.6361,188.5042 151.7921,199.5682 129.1681,204.0602 C129.1221,204.0702 129.0761,204.0742 129.0301,204.0742 C128.7391,204.0742 128.4721,203.8942 128.3681,203.6122 C128.2481,203.2862 128.3821,202.9212 128.6851,202.7512 C140.3651,196.2122 145.8891,188.6672 145.5731,179.6882 C145.3991,174.7242 143.0171,171.0482 140.4941,167.1562 C137.0061,161.7752 133.0821,155.7202 135.1031,145.3752 C126.6571,153.4512 128.9411,162.9822 130.4811,169.4112 C130.6381,170.0612 130.7831,170.6732 130.9081,171.2412 C130.9751,171.5422 130.8381,171.8512 130.5701,172.0052 C130.4601,172.0682 130.3391,172.0982 130.2191,172.0982 C130.0451,172.0982 129.8731,172.0342 129.7391,171.9112 C119.7741,162.7212 121.7231,155.0392 123.7861,146.9062 C124.7251,143.2032 125.6961,139.3742 125.5991,135.1972 C125.4171,127.3832 120.7841,116.6722 112.4961,111.2092 C119.6131,135.8062 103.8111,154.3432 96.5471,161.2782 C96.4121,161.4072 96.2361,161.4732 96.0591,161.4732 C95.9341,161.4732 95.8081,161.4412 95.6951,161.3732 C95.4221,161.2092 95.2931,160.8822 95.3791,160.5762 C96.6311,156.1232 96.0841,150.9522 93.8391,146.0152 C92.0691,142.1252 89.4321,138.8532 86.6071,136.9812 C88.7711,149.6112 86.2101,155.1922 83.2611,161.6132 C81.5761,165.2822 79.8341,169.0772 78.6381,174.6792 C76.1081,186.5172 82.1861,195.2312 98.3431,202.9342 C98.6591,203.0842 98.8161,203.4442 98.7151,203.7782 C98.6231,204.0792 98.3461,204.2782 98.0391,204.2782" id="Fill-5" fill="#BD252C"></path>
        <path d="M96.1486,306.927 L84.6146,219.969 L107.9916,219.969 L109.3516,235.599 L117.4396,235.599 L118.6536,219.969 L141.7626,219.969 L128.8316,306.927 L96.1486,306.927 Z M109.0636,251.014 C109.6526,258.711 111.0996,270.886 113.4036,287.537 C114.5546,273.037 115.7026,260.863 116.8476,251.014 L109.0636,251.014 Z" id="Fill-7" fill="#BD252C"></path>
    </g>
</svg>