<?xml version="1.0" encoding="UTF-8"?>
<svg width="177px" height="101px" viewBox="0 0 177 101" version="1.1" xmlns="http://www.w3.org/2000/svg" xmlns:xlink="http://www.w3.org/1999/xlink">
    <title>Logo_Mestrik</title>
    <g id="Logo_Mestrik" stroke="none" stroke-width="1" fill="none" fill-rule="evenodd">
        <path d="M82.6947,49.2807 C83.8957,53.5187 81.4097,57.9687 77.1717,59.1707 L36.7817,70.6177 C32.5437,71.8177 28.0937,69.3337 26.8927,65.0947 L15.2907,24.1417 C14.0897,19.9037 16.5747,15.4537 20.8127,14.2537 L61.2087,2.8087 C65.4467,1.6087 69.8967,4.0937 71.0967,8.3327 L82.6947,49.2807 Z" id="Fill-1" fill="#DE6D2B"></path>
        <path d="M98.8078,73.1751 C94.9728,75.3441 90.0628,73.9811 87.8958,70.1461 L67.2328,33.6001 C65.0648,29.7651 66.4288,24.8531 70.2628,22.6851 L107.3018,1.7361 C111.1348,-0.4319 116.0468,0.9311 118.2138,4.7651 L138.8808,41.3121 C141.0478,45.1461 139.6848,50.0571 135.8518,52.2261 L98.8078,73.1751 Z" id="Fill-3" fill="#37296F"></path>
        <path d="M105.2956,70.7898 C100.9106,71.2128 96.9776,67.9728 96.5556,63.5878 L92.5266,21.7978 C92.1036,17.4148 95.3446,13.4808 99.7296,13.0568 L142.0846,8.9658 C146.4696,8.5418 150.4026,11.7838 150.8256,16.1678 L154.8586,57.9588 C155.2806,62.3438 152.0396,66.2768 147.6556,66.6998 L105.2956,70.7898 Z" id="Fill-6" fill="#C8B232"></path>
        <path d="M95.7362,70.5447 C94.1872,74.6687 89.5462,76.7737 85.4232,75.2247 L46.1132,60.4527 C41.9902,58.9037 39.8842,54.2617 41.4332,50.1387 L56.4012,10.2987 C57.9502,6.1757 62.5912,4.0687 66.7152,5.6187 L106.0222,20.3877 C110.1452,21.9377 112.2522,26.5787 110.7032,30.7017 L95.7362,70.5447 Z" id="Fill-9" fill="#A7245A"></path>
        <path d="M60.2308,19.897 C60.1288,20.077 59.9928,20.197 59.8568,20.197 C59.6528,20.197 57.5438,18.878 55.0948,18.878 C53.5308,18.878 51.8988,19.418 51.8988,21.215 C51.8988,23.493 55.8778,23.913 58.8708,25.862 C60.6048,27 61.7958,28.589 61.7958,30.867 C61.7958,34.673 58.7348,37.191 54.4498,37.191 C50.9798,37.191 47.3418,35.873 47.3418,35.392 C47.3418,35.304 47.4438,35.093 47.5108,34.913 L48.2938,32.935 C48.3618,32.755 48.5318,32.636 48.6678,32.636 C48.8718,32.636 51.3888,33.954 54.3138,33.954 C56.2178,33.954 57.3738,33.055 57.3738,31.197 C57.3738,28.53 53.9048,28.259 50.4358,26.401 C48.6338,25.442 47.4768,24.243 47.4768,21.755 C47.4768,17.44 51.0148,15.641 54.9598,15.641 C58.1898,15.641 61.5238,16.959 61.5238,17.469 C61.5238,17.559 61.4888,17.679 61.3528,17.919 L60.2308,19.897 Z" id="Fill-12" fill="#FFFFFE"></path>
        <path d="M74.4112,36.0526 C74.4112,36.5916 74.2752,36.6816 73.6972,36.6816 L70.5342,36.6816 C69.9562,36.6816 69.8202,36.5916 69.8202,36.0526 L69.8202,19.7476 L65.3642,19.7476 C64.8882,19.7476 64.7872,19.6566 64.7872,19.2376 L64.7872,16.6596 C64.7872,16.2406 64.8882,16.1506 65.3642,16.1506 L79.3762,16.1506 C80.0572,16.1506 80.2272,16.2106 80.2272,16.4806 C80.2272,16.6296 80.1922,16.6896 80.1252,16.8996 L79.4102,19.2686 C79.2752,19.7476 78.9012,19.7476 78.6292,19.7476 L74.4112,19.7476 L74.4112,36.0526 Z" id="Fill-14" fill="#FFFFFE"></path>
        <path d="M89.3872,25.052 C91.5982,25.052 93.4692,24.753 93.4692,21.995 C93.4692,19.387 91.5302,19.297 89.7612,19.297 L88.5032,19.297 L88.5032,25.052 L89.3872,25.052 Z M88.5032,36.053 C88.5032,36.591 88.3672,36.682 87.7892,36.682 L84.6262,36.682 C84.0472,36.682 83.9112,36.591 83.9112,36.053 L83.9112,16.781 C83.9112,16.241 84.0472,16.15 84.6262,16.15 L90.1352,16.15 C92.7542,16.15 98.0602,16.3 98.0602,21.935 C98.0602,25.801 95.4412,26.91 94.1822,27.48 L99.2502,35.483 C99.3522,35.633 99.5212,35.872 99.5212,36.053 C99.5212,36.232 99.1812,36.322 98.8422,36.411 L95.9842,37.131 C95.8492,37.161 95.6452,37.192 95.5092,37.192 C95.3382,37.192 95.0672,36.831 94.7272,36.262 L90.1352,28.2 L88.5032,28.2 L88.5032,36.053 Z" id="Fill-16" fill="#FFFFFE"></path>
        <path d="M112.8389,36.0526 C112.8389,36.5916 112.7029,36.6816 112.1249,36.6816 L103.7919,36.6816 C103.2139,36.6816 103.0789,36.5916 103.0789,36.0526 L103.0789,34.4346 C103.0789,33.8936 103.2139,33.8036 103.7919,33.8036 L105.6639,33.8036 L105.6639,19.0286 L103.7919,19.0286 C103.2139,19.0286 103.0789,18.9376 103.0789,18.3976 L103.0789,16.7806 C103.0789,16.2406 103.2139,16.1506 103.7919,16.1506 L112.1249,16.1506 C112.7029,16.1506 112.8389,16.2406 112.8389,16.7806 L112.8389,18.3976 C112.8389,18.9376 112.7029,19.0286 112.1249,19.0286 L110.2539,19.0286 L110.2539,33.8036 L112.1249,33.8036 C112.7029,33.8036 112.8389,33.8936 112.8389,34.4346 L112.8389,36.0526 Z" id="Fill-18" fill="#FFFFFE"></path>
        <path d="M122.2197,36.0526 C122.2197,36.5916 122.0837,36.6816 121.5057,36.6816 L118.3427,36.6816 C117.7637,36.6816 117.6287,36.5916 117.6287,36.0526 L117.6287,16.7806 C117.6287,16.2406 117.7637,16.1506 118.3427,16.1506 L121.5057,16.1506 C122.0837,16.1506 122.2197,16.2406 122.2197,16.7806 L122.2197,25.1716 L122.2877,25.1716 L129.7697,16.0316 C129.8717,15.8806 130.1447,15.6406 130.3477,15.6406 C130.5187,15.6406 130.6877,15.7616 130.9597,15.8806 L133.2727,16.8996 C133.4767,16.9896 133.7147,17.1696 133.7147,17.2596 C133.7147,17.5586 133.5787,17.6196 133.4767,17.7396 L126.2317,26.1606 L134.2247,34.9126 C134.3277,35.0336 134.4637,35.0926 134.4637,35.3916 C134.4637,35.4826 134.2247,35.6626 134.0207,35.7526 L131.3007,36.9516 C131.0277,37.0706 130.8577,37.1916 130.6877,37.1916 C130.4847,37.1916 130.2117,36.9516 130.1097,36.8016 L122.2877,27.6306 L122.2197,27.6306 L122.2197,36.0526 Z" id="Fill-20" fill="#FFFFFE"></path>
        <path d="M59.6281,40.9929 C59.7641,40.3939 59.9681,40.3939 60.1381,40.3939 C60.3421,40.3939 60.5121,40.4239 60.6481,40.4539 L63.1991,40.9029 C63.4711,40.9639 63.8451,41.0229 63.8451,41.2029 C63.8451,41.3529 63.7431,41.6529 63.6751,41.8619 L58.7091,60.9249 C58.5731,61.3439 58.4711,61.4639 57.9611,61.4639 L55.0361,61.4639 C54.4241,61.4639 54.3901,61.3749 54.2881,60.9249 L52.0441,50.8539 C51.7381,49.5049 51.4321,47.6469 51.2621,45.6689 L51.1931,45.6689 C51.0241,47.6769 50.7171,49.4759 50.3431,50.8539 L47.5891,60.9249 C47.4531,61.3749 47.4531,61.4639 46.8401,61.4639 L43.9161,61.4639 C43.4061,61.4639 43.2691,61.3439 43.1681,60.9249 L38.7461,41.8319 C38.7121,41.6229 38.6101,41.3529 38.6101,41.1729 C38.6101,40.9929 38.9851,40.9339 39.2561,40.8729 L41.9101,40.4539 C42.0451,40.4239 42.2151,40.3939 42.4201,40.3939 C42.5891,40.3939 42.7941,40.3939 42.9301,40.9929 L44.9701,50.7049 C45.3101,52.3519 45.5821,54.8399 45.7181,56.3699 L45.7861,56.3699 C45.9901,54.6599 46.4671,52.2319 46.8741,50.7049 L49.2881,41.5619 C49.4591,40.9339 49.4931,40.6639 50.3091,40.6639 L52.6221,40.6639 C53.1661,40.6639 53.2011,40.9339 53.3701,41.5619 L55.7851,50.7049 C56.1931,52.2319 56.5321,54.6599 56.7381,56.3699 L56.8051,56.3699 C56.9411,54.8399 57.2481,52.3519 57.5871,50.7049 L59.6281,40.9929 Z" id="Fill-22" fill="#FFFFFE"></path>
        <path d="M80.7369,60.5654 C80.7369,61.1044 80.6359,61.1944 80.0569,61.1944 L68.8679,61.1944 C68.2889,61.1944 68.1539,61.1044 68.1539,60.5654 L68.1539,41.2934 C68.1539,40.7534 68.2889,40.6634 68.8679,40.6634 L80.0239,40.6634 C80.7029,40.6634 80.8729,40.7234 80.8729,40.9934 C80.8729,41.1424 80.8389,41.2024 80.7719,41.4124 L80.1249,43.4204 C79.9899,43.8704 79.6159,43.8994 79.3429,43.8994 L72.7449,43.8994 L72.7449,48.8454 L78.5259,48.8454 C79.1389,48.8454 79.2409,48.9354 79.2409,49.4764 L79.2409,51.4544 C79.2409,51.9934 79.1049,52.0824 78.5259,52.0824 L72.7449,52.0824 L72.7449,57.9584 L80.0239,57.9584 C80.6359,57.9584 80.7369,58.0474 80.7369,58.5864 L80.7369,60.5654 Z" id="Fill-24" fill="#FFFFFE"></path>
        <path d="M90.8056,49.5648 C93.0166,49.5648 94.8876,49.2658 94.8876,46.5078 C94.8876,43.8998 92.9486,43.8098 91.1796,43.8098 L89.9216,43.8098 L89.9216,49.5648 L90.8056,49.5648 Z M89.9216,60.5658 C89.9216,61.1038 89.7856,61.1948 89.2076,61.1948 L86.0446,61.1948 C85.4656,61.1948 85.3296,61.1038 85.3296,60.5658 L85.3296,41.2938 C85.3296,40.7538 85.4656,40.6628 86.0446,40.6628 L91.5536,40.6628 C94.1726,40.6628 99.4786,40.8128 99.4786,46.4478 C99.4786,50.3138 96.8596,51.4228 95.6006,51.9928 L100.6686,59.9958 C100.7706,60.1458 100.9396,60.3848 100.9396,60.5658 C100.9396,60.7448 100.5996,60.8348 100.2606,60.9238 L97.4026,61.6438 C97.2676,61.6738 97.0636,61.7048 96.9276,61.7048 C96.7566,61.7048 96.4856,61.3438 96.1456,60.7748 L91.5536,52.7128 L89.9216,52.7128 L89.9216,60.5658 Z" id="Fill-26" fill="#FFFFFE"></path>
        <path d="M111.0302,57.9576 C114.8732,57.9576 116.3012,56.4886 116.3012,50.7636 C116.3012,45.3986 114.8392,43.9006 111.0302,43.9006 L109.8052,43.9006 L109.8052,57.9576 L111.0302,57.9576 Z M111.2342,40.6636 C117.7292,40.6636 121.1302,42.5216 121.1302,50.8236 C121.1302,59.4256 117.1862,61.1946 111.1312,61.1946 L105.9282,61.1946 C105.3502,61.1946 105.2142,61.0746 105.2142,60.5646 L105.2142,41.2926 C105.2142,40.7536 105.3502,40.6636 105.9622,40.6636 L111.2342,40.6636 Z" id="Fill-28" fill="#FFFFFE"></path>
        <path d="M133.4671,47.8569 C133.1611,46.6879 132.8901,44.9189 132.7201,43.6599 L132.6511,43.6599 C132.5151,44.9189 132.2091,46.6579 131.8691,47.8569 L130.3721,53.0119 L134.8611,53.0119 L133.4671,47.8569 Z M128.4681,60.5659 C128.3321,61.1049 128.2641,61.1939 127.7541,61.1939 L124.3191,61.1939 C123.8761,61.1939 123.6731,61.1349 123.6391,60.9239 C123.6391,60.7749 123.7411,60.5349 123.7741,60.4149 L130.4741,41.1129 C130.6101,40.7229 130.6441,40.6629 131.2231,40.6629 L134.7601,40.6629 C135.2711,40.6629 135.3381,40.7839 135.4741,41.1429 L142.1401,60.4749 C142.1731,60.5949 142.2761,60.8349 142.2761,60.9539 C142.2761,61.1349 141.9351,61.1939 141.5961,61.1939 L137.7861,61.1939 C137.4471,61.1939 137.3781,61.1049 137.2091,60.5659 L135.7121,55.7089 L129.8621,55.7089 L128.4681,60.5659 Z" id="Fill-30" fill="#FFFFFE"></path>
        <path d="M4.2852,99.1472 C4.3162,99.2092 4.3362,99.2502 4.3362,99.3022 C4.3362,99.4762 3.6362,99.9622 2.6262,99.9622 C0.8242,99.9622 -0.0418,98.7872 -0.0418,96.3142 C-0.0418,93.9462 0.8452,92.5542 2.6262,92.5542 C3.3992,92.5542 4.3162,93.1212 4.3162,93.3162 C4.3162,93.3572 4.3162,93.3982 4.2642,93.4712 L3.8842,94.0492 C3.8422,94.1102 3.8012,94.1502 3.7592,94.1502 C3.5842,94.1502 3.2442,93.6682 2.6982,93.6682 C1.8132,93.6682 1.4212,94.2752 1.4212,96.0472 C1.4212,97.7982 1.6372,98.8502 2.6982,98.8502 C3.2752,98.8502 3.6462,98.4682 3.8522,98.4682 C3.8942,98.4682 3.9242,98.4982 3.9662,98.5712 L4.2852,99.1472 Z" id="Fill-32" fill="#37296F"></path>
        <path d="M9.9931,96.2641 C9.9931,94.6461 9.6641,93.6361 8.8911,93.6361 C8.1181,93.6361 7.7891,94.6561 7.7891,96.2641 C7.7891,97.8701 8.1181,98.8801 8.8911,98.8801 C9.6641,98.8801 9.9931,97.8701 9.9931,96.2641 M8.8911,99.9621 C7.2941,99.9621 6.3251,98.7561 6.3251,96.2641 C6.3251,93.7611 7.3041,92.5541 8.8911,92.5541 C10.4771,92.5541 11.4561,93.7711 11.4561,96.2641 C11.4561,98.7561 10.4871,99.9621 8.8911,99.9621" id="Fill-34" fill="#37296F"></path>
        <path d="M18.8228,99.5695 C18.8228,99.7545 18.7918,99.7865 18.6068,99.7865 L17.9268,99.7865 C17.7828,99.7865 17.7518,99.7655 17.6898,99.6425 L15.8048,96.1295 C15.4958,95.5535 15.3208,95.1915 15.2168,94.7275 L15.1958,94.7275 C15.1958,94.8615 15.2278,95.3875 15.2278,95.8615 L15.2278,99.5695 C15.2278,99.7545 15.1858,99.7865 15.0108,99.7865 L14.2598,99.7865 C14.0838,99.7865 14.0428,99.7545 14.0428,99.5695 L14.0428,92.9455 C14.0428,92.7605 14.0838,92.7305 14.2598,92.7305 L15.1038,92.7305 C15.2588,92.7305 15.2788,92.7495 15.3418,92.8635 L17.0408,96.0575 C17.3298,96.6025 17.5258,97.1285 17.6488,97.5505 L17.6688,97.5505 C17.6688,97.2215 17.6388,96.5015 17.6388,96.2125 L17.6388,92.9455 C17.6388,92.7605 17.6798,92.7305 17.8548,92.7305 L18.6068,92.7305 C18.7818,92.7305 18.8228,92.7605 18.8228,92.9455 L18.8228,99.5695 Z" id="Fill-36" fill="#37296F"></path>
        <path d="M25.7469,99.1472 C25.7779,99.2092 25.7979,99.2502 25.7979,99.3022 C25.7979,99.4762 25.0979,99.9622 24.0879,99.9622 C22.2859,99.9622 21.4199,98.7872 21.4199,96.3142 C21.4199,93.9462 22.3069,92.5542 24.0879,92.5542 C24.8609,92.5542 25.7779,93.1212 25.7779,93.3162 C25.7779,93.3572 25.7779,93.3982 25.7259,93.4712 L25.3459,94.0492 C25.3039,94.1102 25.2629,94.1502 25.2219,94.1502 C25.0459,94.1502 24.7059,93.6682 24.1599,93.6682 C23.2749,93.6682 22.8829,94.2752 22.8829,96.0472 C22.8829,97.7982 23.0989,98.8502 24.1599,98.8502 C24.7369,98.8502 25.1079,98.4682 25.3139,98.4682 C25.3559,98.4682 25.3859,98.4982 25.4279,98.5712 L25.7469,99.1472 Z" id="Fill-38" fill="#37296F"></path>
        <path d="M31.8981,99.5695 C31.8981,99.7545 31.8671,99.7865 31.6921,99.7865 L28.3021,99.7865 C28.1271,99.7865 28.0861,99.7545 28.0861,99.5695 L28.0861,92.9455 C28.0861,92.7605 28.1271,92.7305 28.3021,92.7305 L31.6821,92.7305 C31.8881,92.7305 31.9391,92.7495 31.9391,92.8425 C31.9391,92.8945 31.9291,92.9155 31.9081,92.9865 L31.7121,93.6765 C31.6711,93.8315 31.5581,93.8425 31.4761,93.8425 L29.4771,93.8425 L29.4771,95.5425 L31.2281,95.5425 C31.4141,95.5425 31.4451,95.5725 31.4451,95.7575 L31.4451,96.4385 C31.4451,96.6235 31.4041,96.6545 31.2281,96.6545 L29.4771,96.6545 L29.4771,98.6735 L31.6821,98.6735 C31.8671,98.6735 31.8981,98.7055 31.8981,98.8905 L31.8981,99.5695 Z" id="Fill-40" fill="#37296F"></path>
        <path d="M35.9884,95.8827 C36.5974,95.8827 37.1734,95.7797 37.1734,94.7387 C37.1734,93.8427 36.6274,93.8117 36.0914,93.8117 L35.6694,93.8117 L35.6694,95.8827 L35.9884,95.8827 Z M35.6694,99.5697 C35.6694,99.7547 35.6284,99.7867 35.4524,99.7867 L34.4954,99.7867 C34.3194,99.7867 34.2774,99.7547 34.2774,99.5697 L34.2774,92.9457 C34.2774,92.7607 34.3194,92.7307 34.4954,92.7307 L36.1634,92.7307 C36.9984,92.7307 38.5644,92.7307 38.5644,94.6657 C38.5644,96.3657 37.2964,96.9647 36.2154,96.9647 L35.6694,96.9647 L35.6694,99.5697 Z" id="Fill-42" fill="#37296F"></path>
        <path d="M43.0153,99.5695 C43.0153,99.7545 42.9743,99.7865 42.7993,99.7865 L41.8403,99.7865 C41.6663,99.7865 41.6253,99.7545 41.6253,99.5695 L41.6253,93.9655 L40.2743,93.9655 C40.1303,93.9655 40.0993,93.9345 40.0993,93.7905 L40.0993,92.9045 C40.0993,92.7605 40.1303,92.7305 40.2743,92.7305 L44.5193,92.7305 C44.7253,92.7305 44.7773,92.7495 44.7773,92.8425 C44.7773,92.8945 44.7663,92.9155 44.7463,92.9865 L44.5293,93.8015 C44.4883,93.9655 44.3743,93.9655 44.2923,93.9655 L43.0153,93.9655 L43.0153,99.5695 Z" id="Fill-44" fill="#37296F"></path>
        <path d="M46.4776,101.0645 C46.4366,101.1355 46.4056,101.2085 46.3336,101.2085 C46.2826,101.2085 46.2506,101.1875 46.2106,101.1765 L45.8176,101.0435 C45.7356,101.0125 45.6536,100.9805 45.6536,100.9095 C45.6536,100.8575 45.6636,100.8365 45.6836,100.7765 L46.3236,98.6735 C46.3646,98.5395 46.4156,98.4985 46.5496,98.4985 L47.5486,98.4985 C47.6516,98.4985 47.7546,98.5095 47.7546,98.6125 C47.7546,98.6645 47.7236,98.7355 47.7036,98.7655 L46.4776,101.0645 Z" id="Fill-46" fill="#37296F"></path>
        <path d="M56.5333,98.6732 C57.6973,98.6732 58.1303,98.1682 58.1303,96.2012 C58.1303,94.3582 57.6873,93.8422 56.5333,93.8422 L56.1633,93.8422 L56.1633,98.6732 L56.5333,98.6732 Z M56.5953,92.7302 C58.5633,92.7302 59.5933,93.3692 59.5933,96.2212 C59.5933,99.1792 58.3983,99.7872 56.5643,99.7872 L54.9873,99.7872 C54.8123,99.7872 54.7713,99.7462 54.7713,99.5692 L54.7713,92.9462 C54.7713,92.7612 54.8123,92.7302 54.9983,92.7302 L56.5953,92.7302 Z" id="Fill-48" fill="#37296F"></path>
        <path d="M65.8367,99.5695 C65.8367,99.7545 65.8057,99.7865 65.6307,99.7865 L62.2407,99.7865 C62.0657,99.7865 62.0247,99.7545 62.0247,99.5695 L62.0247,92.9455 C62.0247,92.7605 62.0657,92.7305 62.2407,92.7305 L65.6207,92.7305 C65.8267,92.7305 65.8777,92.7495 65.8777,92.8425 C65.8777,92.8945 65.8677,92.9155 65.8467,92.9865 L65.6517,93.6765 C65.6097,93.8315 65.4967,93.8425 65.4147,93.8425 L63.4157,93.8425 L63.4157,95.5425 L65.1667,95.5425 C65.3527,95.5425 65.3837,95.5725 65.3837,95.7575 L65.3837,96.4385 C65.3837,96.6235 65.3427,96.6545 65.1667,96.6545 L63.4157,96.6545 L63.4157,98.6735 L65.6207,98.6735 C65.8057,98.6735 65.8367,98.7055 65.8367,98.8905 L65.8367,99.5695 Z" id="Fill-50" fill="#37296F"></path>
        <path d="M71.5958,94.0171 C71.5648,94.0791 71.5238,94.1201 71.4828,94.1201 C71.4208,94.1201 70.7818,93.6681 70.0398,93.6681 C69.5668,93.6681 69.0718,93.8531 69.0718,94.4711 C69.0718,95.2531 70.2778,95.3981 71.1848,96.0681 C71.7098,96.4581 72.0698,97.0051 72.0698,97.7881 C72.0698,99.0951 71.1428,99.9621 69.8448,99.9621 C68.7938,99.9621 67.6918,99.5091 67.6918,99.3431 C67.6918,99.3131 67.7228,99.2401 67.7428,99.1791 L67.9798,98.4981 C68.0008,98.4361 68.0518,98.3951 68.0938,98.3951 C68.1558,98.3951 68.9168,98.8501 69.8038,98.8501 C70.3808,98.8501 70.7308,98.5391 70.7308,97.9021 C70.7308,96.9841 69.6798,96.8911 68.6288,96.2531 C68.0838,95.9241 67.7328,95.5121 67.7328,94.6571 C67.7328,93.1721 68.8038,92.5541 69.9988,92.5541 C70.9778,92.5541 71.9868,93.0091 71.9868,93.1831 C71.9868,93.2131 71.9768,93.2541 71.9358,93.3381 L71.5958,94.0171 Z" id="Fill-52" fill="#37296F"></path>
        <path d="M77.0057,99.5695 C77.0057,99.7545 76.9647,99.7865 76.7897,99.7865 L74.2657,99.7865 C74.0907,99.7865 74.0487,99.7545 74.0487,99.5695 L74.0487,99.0135 C74.0487,98.8285 74.0907,98.7975 74.2657,98.7975 L74.8327,98.7975 L74.8327,93.7195 L74.2657,93.7195 C74.0907,93.7195 74.0487,93.6875 74.0487,93.5025 L74.0487,92.9455 C74.0487,92.7605 74.0907,92.7305 74.2657,92.7305 L76.7897,92.7305 C76.9647,92.7305 77.0057,92.7605 77.0057,92.9455 L77.0057,93.5025 C77.0057,93.6875 76.9647,93.7195 76.7897,93.7195 L76.2227,93.7195 L76.2227,98.7975 L76.7897,98.7975 C76.9647,98.7975 77.0057,98.8285 77.0057,99.0135 L77.0057,99.5695 Z" id="Fill-54" fill="#37296F"></path>
        <path d="M84.0014,99.1579 C84.0014,99.5909 82.7864,99.9619 81.9414,99.9619 C80.1284,99.9619 79.1804,98.7879 79.1804,96.2939 C79.1804,93.8539 80.1174,92.5549 81.9624,92.5549 C82.8884,92.5549 83.8774,93.0089 83.8774,93.1829 C83.8774,93.2129 83.8684,93.2539 83.8264,93.3379 L83.4864,94.0169 C83.4554,94.0799 83.4134,94.1209 83.3734,94.1209 C83.3104,94.1209 82.7344,93.6679 82.0344,93.6679 C80.9824,93.6679 80.6434,94.6469 80.6434,96.2209 C80.6434,97.8289 80.9104,98.8499 82.0234,98.8499 C82.4044,98.8499 82.6724,98.7249 82.7664,98.6839 L82.7664,97.1909 L81.9924,97.1909 C81.8174,97.1909 81.7774,97.1609 81.7774,96.9729 L81.7774,96.2939 C81.7774,96.1089 81.8174,96.0789 81.9924,96.0789 L83.7854,96.0789 C83.9604,96.0789 84.0014,96.1089 84.0014,96.2939 L84.0014,99.1579 Z" id="Fill-56" fill="#37296F"></path>
        <path d="M91.4604,99.5695 C91.4604,99.7545 91.4294,99.7865 91.2444,99.7865 L90.5644,99.7865 C90.4194,99.7865 90.3884,99.7655 90.3274,99.6425 L88.4414,96.1295 C88.1334,95.5535 87.9574,95.1915 87.8544,94.7275 L87.8334,94.7275 C87.8334,94.8615 87.8644,95.3875 87.8644,95.8615 L87.8644,99.5695 C87.8644,99.7545 87.8234,99.7865 87.6484,99.7865 L86.8964,99.7865 C86.7214,99.7865 86.6804,99.7545 86.6804,99.5695 L86.6804,92.9455 C86.6804,92.7605 86.7214,92.7305 86.8964,92.7305 L87.7414,92.7305 C87.8964,92.7305 87.9164,92.7495 87.9794,92.8635 L89.6774,96.0575 C89.9664,96.6025 90.1624,97.1285 90.2864,97.5505 L90.3064,97.5505 C90.3064,97.2215 90.2754,96.5015 90.2754,96.2125 L90.2754,92.9455 C90.2754,92.7605 90.3164,92.7305 90.4914,92.7305 L91.2444,92.7305 C91.4184,92.7305 91.4604,92.7605 91.4604,92.9455 L91.4604,99.5695 Z" id="Fill-58" fill="#37296F"></path>
        <path d="M94.7071,101.0645 C94.6661,101.1355 94.6351,101.2085 94.5631,101.2085 C94.5111,101.2085 94.4811,101.1875 94.4391,101.1765 L94.0471,101.0435 C93.9651,101.0125 93.8831,100.9805 93.8831,100.9095 C93.8831,100.8575 93.8931,100.8365 93.9141,100.7765 L94.5531,98.6735 C94.5941,98.5395 94.6461,98.4985 94.7791,98.4985 L95.7791,98.4985 C95.8811,98.4985 95.9841,98.5095 95.9841,98.6125 C95.9841,98.6645 95.9531,98.7355 95.9331,98.7655 L94.7071,101.0645 Z" id="Fill-60" fill="#37296F"></path>
        <path d="M105.5046,99.5695 C105.5046,99.7545 105.4626,99.7865 105.2886,99.7865 L102.7636,99.7865 C102.5886,99.7865 102.5476,99.7545 102.5476,99.5695 L102.5476,99.0135 C102.5476,98.8285 102.5886,98.7975 102.7636,98.7975 L103.3306,98.7975 L103.3306,93.7195 L102.7636,93.7195 C102.5886,93.7195 102.5476,93.6875 102.5476,93.5025 L102.5476,92.9455 C102.5476,92.7605 102.5886,92.7305 102.7636,92.7305 L105.2886,92.7305 C105.4626,92.7305 105.5046,92.7605 105.5046,92.9455 L105.5046,93.5025 C105.5046,93.6875 105.4626,93.7195 105.2886,93.7195 L104.7216,93.7195 L104.7216,98.7975 L105.2886,98.7975 C105.4626,98.7975 105.5046,98.8285 105.5046,99.0135 L105.5046,99.5695 Z" id="Fill-62" fill="#37296F"></path>
        <path d="M111.9025,99.6016 C111.8615,99.7656 111.8305,99.7866 111.6765,99.7866 L108.2765,99.7866 C108.1015,99.7866 108.0595,99.7546 108.0595,99.5696 L108.0595,92.9466 C108.0595,92.7606 108.1015,92.7306 108.2765,92.7306 L109.2335,92.7306 C109.4105,92.7306 109.4505,92.7606 109.4505,92.9466 L109.4505,98.5506 L111.9335,98.5506 C112.0775,98.5506 112.1185,98.6016 112.1185,98.6836 C112.1185,98.7156 112.1085,98.7766 112.0985,98.8176 L111.9025,99.6016 Z" id="Fill-64" fill="#37296F"></path>
        <path d="M118.2906,99.6016 C118.2496,99.7656 118.2186,99.7866 118.0646,99.7866 L114.6636,99.7866 C114.4896,99.7866 114.4476,99.7546 114.4476,99.5696 L114.4476,92.9466 C114.4476,92.7606 114.4896,92.7306 114.6636,92.7306 L115.6216,92.7306 C115.7986,92.7306 115.8386,92.7606 115.8386,92.9466 L115.8386,98.5506 L118.3216,98.5506 C118.4656,98.5506 118.5066,98.6016 118.5066,98.6836 C118.5066,98.7156 118.4966,98.7766 118.4866,98.8176 L118.2906,99.6016 Z" id="Fill-66" fill="#37296F"></path>
        <path d="M125.6784,97.3974 C125.6784,98.9324 125.1434,99.9624 123.1954,99.9624 C121.2494,99.9624 120.7134,98.9324 120.7134,97.3974 L120.7134,92.9464 C120.7134,92.7614 120.7544,92.7304 120.9284,92.7304 L121.8874,92.7304 C122.0614,92.7304 122.1044,92.7614 122.1044,92.9464 L122.1044,97.3974 C122.1044,98.1384 122.1554,98.8494 123.1954,98.8494 C124.2364,98.8494 124.2884,98.1384 124.2884,97.3974 L124.2884,92.9464 C124.2884,92.7614 124.3294,92.7304 124.5044,92.7304 L125.4624,92.7304 C125.6364,92.7304 125.6784,92.7614 125.6784,92.9464 L125.6784,97.3974 Z" id="Fill-68" fill="#37296F"></path>
        <path d="M131.8393,94.0171 C131.8093,94.0791 131.7673,94.1201 131.7263,94.1201 C131.6653,94.1201 131.0253,93.6681 130.2843,93.6681 C129.8093,93.6681 129.3153,93.8531 129.3153,94.4711 C129.3153,95.2531 130.5213,95.3981 131.4283,96.0681 C131.9523,96.4581 132.3133,97.0051 132.3133,97.7881 C132.3133,99.0951 131.3873,99.9621 130.0883,99.9621 C129.0373,99.9621 127.9353,99.5091 127.9353,99.3431 C127.9353,99.3131 127.9663,99.2401 127.9863,99.1791 L128.2233,98.4981 C128.2443,98.4361 128.2953,98.3951 128.3373,98.3951 C128.3993,98.3951 129.1603,98.8501 130.0463,98.8501 C130.6243,98.8501 130.9743,98.5391 130.9743,97.9021 C130.9743,96.9841 129.9233,96.8911 128.8723,96.2531 C128.3263,95.9241 127.9763,95.5121 127.9763,94.6571 C127.9763,93.1721 129.0473,92.5541 130.2423,92.5541 C131.2203,92.5541 132.2313,93.0091 132.2313,93.1831 C132.2313,93.2131 132.2203,93.2541 132.1793,93.3381 L131.8393,94.0171 Z" id="Fill-70" fill="#37296F"></path>
        <path d="M136.8055,99.5695 C136.8055,99.7545 136.7645,99.7865 136.5905,99.7865 L135.6315,99.7865 C135.4565,99.7865 135.4155,99.7545 135.4155,99.5695 L135.4155,93.9655 L134.0655,93.9655 C133.9215,93.9655 133.8905,93.9345 133.8905,93.7905 L133.8905,92.9045 C133.8905,92.7605 133.9215,92.7305 134.0655,92.7305 L138.3085,92.7305 C138.5165,92.7305 138.5685,92.7495 138.5685,92.8425 C138.5685,92.8945 138.5575,92.9155 138.5365,92.9865 L138.3195,93.8015 C138.2785,93.9655 138.1655,93.9655 138.0825,93.9655 L136.8055,93.9655 L136.8055,99.5695 Z" id="Fill-72" fill="#37296F"></path>
        <path d="M142.153,95.79 C142.823,95.79 143.389,95.687 143.389,94.739 C143.389,93.842 142.802,93.812 142.266,93.812 L141.885,93.812 L141.885,95.79 L142.153,95.79 Z M141.885,99.57 C141.885,99.755 141.844,99.787 141.669,99.787 L140.711,99.787 C140.536,99.787 140.494,99.755 140.494,99.57 L140.494,92.946 C140.494,92.761 140.536,92.73 140.711,92.73 L142.379,92.73 C143.173,92.73 144.78,92.782 144.78,94.717 C144.78,96.046 143.987,96.428 143.605,96.624 L145.14,99.375 C145.172,99.425 145.223,99.509 145.223,99.57 C145.223,99.632 145.12,99.662 145.017,99.694 L144.151,99.94 C144.111,99.951 144.049,99.961 144.007,99.961 C143.956,99.961 143.874,99.838 143.77,99.643 L142.379,96.872 L141.885,96.872 L141.885,99.57 Z" id="Fill-74" fill="#37296F"></path>
        <path d="M149.8499,95.202 C149.7569,94.801 149.6749,94.194 149.6239,93.761 L149.6029,93.761 C149.5619,94.194 149.4689,94.791 149.3659,95.202 L148.9129,96.973 L150.2719,96.973 L149.8499,95.202 Z M148.3359,99.569 C148.2949,99.755 148.2729,99.786 148.1189,99.786 L147.0789,99.786 C146.9439,99.786 146.8829,99.766 146.8719,99.694 C146.8719,99.642 146.9039,99.56 146.9139,99.517 L148.9429,92.884 C148.9849,92.75 148.9949,92.73 149.1699,92.73 L150.2409,92.73 C150.3959,92.73 150.4169,92.772 150.4579,92.895 L152.4769,99.539 C152.4879,99.58 152.5189,99.662 152.5189,99.705 C152.5189,99.766 152.4159,99.786 152.3119,99.786 L151.1579,99.786 C151.0549,99.786 151.0349,99.755 150.9829,99.569 L150.5299,97.902 L148.7579,97.902 L148.3359,99.569 Z" id="Fill-76" fill="#37296F"></path>
        <path d="M156.3611,99.5695 C156.3611,99.7545 156.3201,99.7865 156.1451,99.7865 L155.1871,99.7865 C155.0121,99.7865 154.9711,99.7545 154.9711,99.5695 L154.9711,93.9655 L153.6211,93.9655 C153.4771,93.9655 153.4461,93.9345 153.4461,93.7905 L153.4461,92.9045 C153.4461,92.7605 153.4771,92.7305 153.6211,92.7305 L157.8641,92.7305 C158.0721,92.7305 158.1231,92.7495 158.1231,92.8425 C158.1231,92.8945 158.1131,92.9155 158.0921,92.9865 L157.8751,93.8015 C157.8341,93.9655 157.7211,93.9655 157.6381,93.9655 L156.3611,93.9655 L156.3611,99.5695 Z" id="Fill-78" fill="#37296F"></path>
        <path d="M162.6146,99.5695 C162.6146,99.7545 162.5736,99.7865 162.3996,99.7865 L159.8746,99.7865 C159.6996,99.7865 159.6586,99.7545 159.6586,99.5695 L159.6586,99.0135 C159.6586,98.8285 159.6996,98.7975 159.8746,98.7975 L160.4416,98.7975 L160.4416,93.7195 L159.8746,93.7195 C159.6996,93.7195 159.6586,93.6875 159.6586,93.5025 L159.6586,92.9455 C159.6586,92.7605 159.6996,92.7305 159.8746,92.7305 L162.3996,92.7305 C162.5736,92.7305 162.6146,92.7605 162.6146,92.9455 L162.6146,93.5025 C162.6146,93.6875 162.5736,93.7195 162.3996,93.7195 L161.8326,93.7195 L161.8326,98.7975 L162.3996,98.7975 C162.5736,98.7975 162.6146,98.8285 162.6146,99.0135 L162.6146,99.5695 Z" id="Fill-80" fill="#37296F"></path>
        <path d="M168.437,96.2641 C168.437,94.6461 168.108,93.6361 167.335,93.6361 C166.561,93.6361 166.232,94.6561 166.232,96.2641 C166.232,97.8701 166.561,98.8801 167.335,98.8801 C168.108,98.8801 168.437,97.8701 168.437,96.2641 M167.335,99.9621 C165.737,99.9621 164.768,98.7561 164.768,96.2641 C164.768,93.7611 165.748,92.5541 167.335,92.5541 C168.921,92.5541 169.9,93.7711 169.9,96.2641 C169.9,98.7561 168.932,99.9621 167.335,99.9621" id="Fill-82" fill="#37296F"></path>
        <path d="M177.2663,99.5695 C177.2663,99.7545 177.2353,99.7865 177.0503,99.7865 L176.3703,99.7865 C176.2253,99.7865 176.1943,99.7655 176.1333,99.6425 L174.2473,96.1295 C173.9393,95.5535 173.7633,95.1915 173.6613,94.7275 L173.6403,94.7275 C173.6403,94.8615 173.6703,95.3875 173.6703,95.8615 L173.6703,99.5695 C173.6703,99.7545 173.6293,99.7865 173.4543,99.7865 L172.7023,99.7865 C172.5273,99.7865 172.4863,99.7545 172.4863,99.5695 L172.4863,92.9455 C172.4863,92.7605 172.5273,92.7305 172.7023,92.7305 L173.5473,92.7305 C173.7023,92.7305 173.7223,92.7495 173.7853,92.8635 L175.4833,96.0575 C175.7723,96.6025 175.9683,97.1285 176.0923,97.5505 L176.1123,97.5505 C176.1123,97.2215 176.0813,96.5015 176.0813,96.2125 L176.0813,92.9455 C176.0813,92.7605 176.1223,92.7305 176.2973,92.7305 L177.0503,92.7305 C177.2243,92.7305 177.2663,92.7605 177.2663,92.9455 L177.2663,99.5695 Z" id="Fill-84" fill="#37296F"></path>
    </g>
</svg>