<svg width="211" height="64" viewBox="0 0 211 64" xmlns="http://www.w3.org/2000/svg" xmlns:xlink="http://www.w3.org/1999/xlink"><g fill-rule="nonzero" fill="none"><path d="M44.2 33.8v.8H31v-.8l3.2-2.8v-9.6c0-.8-.1-1.7-.2-2.5-.2-.8-.6-1.5-1.2-2.1-.9-.7-2-1-3.1-.9-1.5 0-2.9.4-4.2 1.1.1.9.2 1.7.2 2.6V31l3.2 2.8v.8H15.6v-.8l3.2-2.8v-9.6c0-.8-.1-1.7-.2-2.5-.2-.8-.6-1.5-1.2-2-.9-.7-2-1-3.1-.9-1.4 0-2.8.4-4.1 1v14l3.2 2.8v.8H.2v-.8L3.4 31V17.4l-3-1.2v-.8l8.7-4h1.1v3l6-3c1.4 0 2.7 0 4.1.2 1 .1 1.9.4 2.7.9.9.6 1.5 1.4 1.9 2.3l6.7-3.4c1.8 0 3.5.1 5.2.5 1.3.3 2.3 1.1 3 2.3.9 1.8 1.3 3.7 1.2 5.7V31l3.2 2.8zM67.2 28c-.5 1.5-1.3 2.8-2.4 3.9-1 1.1-2.3 1.9-3.7 2.4-1.5.6-3 .8-4.6.8-2 0-4-.4-5.8-1.4-1.7-.9-3.1-2.3-4.1-4.1-1-2-1.6-4.2-1.5-6.4-.1-2.2.5-4.4 1.5-6.4.9-1.7 2.4-3.1 4.1-4.1 1.8-.9 3.7-1.4 5.7-1.4 1.9 0 3.8.4 5.4 1.3 1.5.8 2.8 2.1 3.7 3.6.9 1.6 1.4 3.5 1.5 5.3H53v.5c0 3.3.6 5.6 1.7 7.1 1.1 1.4 2.9 2.2 4.7 2.1 1.2 0 2.4-.3 3.5-.9 1.1-.8 2.1-1.8 2.9-3l1.4.7zM55.1 15c-1 1-1.6 2.3-1.8 3.7h6.8v-.4c0-.9-.1-1.7-.3-2.5-.2-.7-.5-1.4-1-1.9-1.4-.2-2.7.2-3.7 1.1zM89.1 14.1v.8l-4.9 3.3-4.8-2.7h-.3V31l3.2 2.8v.8H69.2v-.8l3.2-2.8V17.4l-3-1.2v-.8l8.7-4h1.1v3.1l4.8-3.3z" fill="#031A23"/><path fill="#031A23" d="M116.2 33.8v.8h-9.1L101 24.1 98.8 26v5.1l3.2 2.7v.8H88.9v-.8l3.2-2.7V6.2l-3-1.2v-.8l8.7-4h1v22.2l7.6-6.5-3.6-3.1V12h11.4v.8l-8.1 6.9 6.5 11zM22.7 59.5v.8l-7.3 3.5-2.1-3.5c-.8 1-1.8 1.9-2.9 2.5-1.1.6-2.4 1-3.7.9-1.2 0-2.3-.2-3.3-.8-.9-.5-1.7-1.3-2.3-2.3-.5-1-.8-2.1-.8-3.2s.2-2.2.6-3.3L13.1 51v-1.8c0-.9-.1-1.9-.2-2.8-.1-.8-.4-1.6-.9-2.2-.6-.7-1.4-1.1-2.3-1-.5 0-.9.1-1.3.2v4.9l-7.1 1.6c.1-1.2.4-2.4.8-3.5.4-.9.9-1.6 1.6-2.3.8-.7 1.6-1.3 2.5-1.8 2.5-1.5 5.3-2.3 8.1-2.4 1.4-.1 2.7.2 3.8 1 .8.7 1.3 1.6 1.5 2.7.2 1.5.3 3.1.3 4.7v9.8l2.8 1.4zM12 59.1c.5-.3 1-.6 1.3-1.1v-4.5c-1.1.2-2.2.5-3.3.9-.7.2-1.3.6-1.9 1.1-.4.4-.7 1-.6 1.5 0 .7.3 1.4.8 1.8.5.5 1.3.8 2 .7.6 0 1.2-.1 1.7-.4zM46.5 56.6c-.5 1.5-1.3 2.8-2.4 3.9-1 1.1-2.3 1.9-3.7 2.5-1.5.6-3 .8-4.6.8-2 0-4-.5-5.8-1.4-1.7-.9-3.2-2.4-4.1-4.1-1-2-1.6-4.2-1.5-6.4-.1-2.2.5-4.4 1.5-6.4 1-1.7 2.5-3.1 4.4-4 2.1-1 4.4-1.5 6.7-1.4 1.5 0 2.9.1 4.3.4 1.3.3 2.7.6 3.9 1.2l1 6.4h-.8L39 42.3c-2.1-.1-4.1.9-5.3 2.6-1.2 2-1.7 4.3-1.6 6.6 0 3 .6 5.2 1.7 6.4 1.2 1.2 2.8 1.9 4.5 1.9 1.3 0 2.6-.3 3.6-1 1.1-.8 2.1-1.8 2.8-3l1.8.8zM64.9 60.6L60 63.8c-1.6 0-3.2-.1-4.8-.5-1.2-.4-2.3-1.2-2.9-2.3-.9-1.8-1.3-3.7-1.1-5.7V43.8H48V43l10-8.5v6.2h5.7l-.7 3.1h-5v10.7c-.2 1.4.2 2.8 1 3.9.8.8 1.9 1.2 3 1.1.7 0 1.4-.2 2-.5l.9 1.6zM79.3 62.4v.8H66.2v-.8l3.2-2.8V46.1l-3-4.5v-.9h9.8v18.9zM104.8 40.7l-12 23.1h-1L80 41.3v-.6h12.7v.6l-3.5 3 5.3 10.5 5.2-10-4-3.5v-.6h9.1zM119.4 62.4v.8h-13.2v-.8l3.2-2.8V46.1l-3-4.3v-1h9.8v18.9zM127.5 46.5c.4.5 1 .8 1.6 1.1.6.3 1.5.6 2.6 1 1.4.5 2.7 1 4 1.6 1 .6 1.9 1.4 2.6 2.3.8 1.2 1.2 2.6 1.1 4 .1 2.2-.9 4.3-2.7 5.5-2.2 1.3-4.8 1.9-7.4 1.7-2.4-.1-4.8-.3-7.2-.6l-.6-7.4h.8l6.9 5.9c.8 0 1.6-.1 2.3-.4.6-.2 1.2-.5 1.7-1 .4-.4.6-1 .6-1.5s-.2-1.1-.6-1.4c-.4-.4-.9-.8-1.5-1-.6-.3-1.4-.6-2.5-1-1.4-.5-2.8-1.1-4.1-1.7-1.1-.6-2-1.4-2.7-2.4-.8-1.2-1.2-2.6-1.2-4 0-2.6.9-4.4 2.8-5.5 2.1-1.2 4.6-1.7 7-1.6 2.2 0 4.3.3 6.4.8l1.1 7.2h-.8l-6.9-6.2c-.7 0-1.3.1-1.9.4-.6.2-1.1.5-1.5 1-.4.4-.6 1-.6 1.6 0 .6.3 1.1.7 1.6zM180.3 56.6c-.5 1.5-1.3 2.8-2.4 3.9-1 1.1-2.3 1.9-3.7 2.5-1.5.5-3 .8-4.6.8-2 0-4-.5-5.8-1.4-1.7-.9-3.1-2.4-4.1-4.1-1-2-1.6-4.2-1.5-6.4-.1-2.2.5-4.4 1.5-6.4.9-1.7 2.4-3.1 4.1-4.1 1.8-.9 3.7-1.4 5.7-1.4 1.9 0 3.7.4 5.4 1.3 1.5.8 2.8 2.1 3.7 3.6.9 1.6 1.4 3.5 1.5 5.3H166v.3c0 3.3.6 5.6 1.7 7.1 1.1 1.4 2.9 2.2 4.7 2.1 1.2 0 2.4-.3 3.5-.9 1.1-.8 2.1-1.8 2.9-3l1.5.8zm-12.2-13c-1 1-1.6 2.3-1.8 3.7h6.8v-.4c0-.9-.1-1.7-.3-2.5-.2-.7-.5-1.4-.9-2-1.5-.1-2.8.3-3.8 1.2zM210.8 62.4v.8h-13.2v-.8l3.2-2.8V50c0-.8-.1-1.7-.2-2.5-.2-.8-.6-1.5-1.2-2-.9-.7-2-1-3.1-.9-1.4 0-2.8.4-4.1 1v14l3.2 2.8v.8h-13.2v-.8l3.2-2.8V46.1l-3-1.2v-.8l8.7-4h1.1v3l6-3c1.8 0 3.5.1 5.2.5 1.3.3 2.4 1.1 3 2.3.8 1.2 1.2 3.1 1.1 5.7v11.2l3.3 2.6zM157.4 60.6l-4.9 3.2c-1.6 0-3.2-.1-4.8-.5-1.2-.4-2.3-1.2-2.9-2.3-.9-1.8-1.3-3.7-1.1-5.7V43.8h-3.2V43l10-8.5v6.2h5.7l-.7 3.1h-5v10.7c-.1 1.4.2 2.8 1.1 3.9.8.8 1.9 1.2 3 1.1.7 0 1.4-.2 2-.5l.8 1.6z"/><path fill="#06FFCF" d="M179.5 5.4l-29.1 29.1h58.2zM150.3 34.3V5.4h-29.1l.1.1v29h29.1z"/></g></svg>
