<svg width="539" height="64" viewBox="0 0 541 64" xmlns="http://www.w3.org/2000/svg" xmlns:xlink="http://www.w3.org/1999/xlink"><g fill="#000" fill-rule="nonzero"><path d="M32.04 37.548c.36.672.672 1.392.936 2.16.144-.384.294-.762.45-1.134.156-.372.33-.726.522-1.062L53.964 2.124c.192-.312.384-.504.576-.576.192-.072.456-.108.792-.108h2.556v50.94h-3.24V8.964c0-.624.036-1.284.108-1.98L34.704 42.588c-.336.624-.816.936-1.44.936h-.576c-.6 0-1.08-.312-1.44-.936L10.656 6.948c.072.696.108 1.368.108 2.016V52.38H7.56V1.44h2.52c.336 0 .606.036.81.108.204.072.402.264.594.576L32.04 37.548zM79.626 16.56v35.82h-3.42V16.56h3.42zm1.512-12.348c0 .432-.09.834-.27 1.206-.18.372-.414.702-.702.99a3.257 3.257 0 01-1.008.684 3.02 3.02 0 01-1.224.252 3.02 3.02 0 01-1.224-.252 3.257 3.257 0 01-1.008-.684 3.323 3.323 0 01-.684-.99 2.896 2.896 0 01-.252-1.206c0-.432.084-.846.252-1.242a3.202 3.202 0 011.692-1.71 3.02 3.02 0 011.224-.252c.432 0 .84.084 1.224.252.384.168.72.396 1.008.684.288.288.522.63.702 1.026.18.396.27.81.27 1.242zM96.217 52.38V16.56h1.872c.624 0 .984.3 1.08.9l.324 5.4c1.632-2.064 3.534-3.726 5.706-4.986 2.172-1.26 4.59-1.89 7.254-1.89 1.968 0 3.702.312 5.202.936 1.5.624 2.742 1.524 3.726 2.7.984 1.176 1.728 2.592 2.232 4.248.504 1.656.756 3.528.756 5.616V52.38h-3.42V29.484c0-3.36-.768-5.994-2.304-7.902-1.536-1.908-3.888-2.862-7.056-2.862a12.49 12.49 0 00-6.552 1.818c-2.016 1.212-3.816 2.874-5.4 4.986V52.38h-3.42zM142.903 0v31.932h1.656c.336 0 .654-.048.954-.144.3-.096.63-.324.99-.684l14.364-13.644a4.36 4.36 0 01.81-.648c.276-.168.63-.252 1.062-.252h3.024L149.96 31.572c-.24.24-.468.462-.684.666a3.45 3.45 0 01-.72.522 3.7 3.7 0 01.972.684c.264.264.54.552.828.864l16.596 18.072h-2.988c-.336 0-.636-.066-.9-.198s-.528-.342-.792-.63l-15.048-16.128c-.408-.432-.78-.726-1.116-.882-.336-.156-.864-.234-1.584-.234h-1.62V52.38h-3.456V0h3.456zM189.77 15.984c2.015 0 3.881.348 5.597 1.044a12.58 12.58 0 014.464 3.042c1.26 1.332 2.244 2.97 2.952 4.914.708 1.944 1.062 4.176 1.062 6.696 0 .528-.078.888-.234 1.08-.156.192-.402.288-.738.288H176.99v.684c0 2.688.312 5.052.936 7.092.624 2.04 1.512 3.75 2.664 5.13a10.986 10.986 0 004.176 3.114c1.632.696 3.456 1.044 5.472 1.044 1.8 0 3.36-.198 4.68-.594 1.32-.396 2.43-.84 3.33-1.332.9-.492 1.614-.936 2.142-1.332.528-.396.912-.594 1.152-.594.312 0 .552.12.72.36l.936 1.152c-.576.72-1.338 1.392-2.286 2.016a16.315 16.315 0 01-3.168 1.602A23.081 23.081 0 01194 52.452c-1.332.264-2.67.396-4.014.396-2.448 0-4.68-.426-6.696-1.278a14.194 14.194 0 01-5.184-3.726c-1.44-1.632-2.55-3.63-3.33-5.994-.78-2.364-1.17-5.07-1.17-8.118 0-2.568.366-4.938 1.098-7.11.732-2.172 1.788-4.044 3.168-5.616 1.38-1.572 3.072-2.802 5.076-3.69 2.004-.888 4.278-1.332 6.822-1.332zm.035 2.556c-1.848 0-3.504.288-4.968.864a10.87 10.87 0 00-3.798 2.484c-1.068 1.08-1.932 2.376-2.592 3.888-.66 1.512-1.098 3.204-1.314 5.076h23.616c0-1.92-.264-3.642-.792-5.166-.528-1.524-1.272-2.814-2.232-3.87a9.661 9.661 0 00-3.456-2.43c-1.344-.564-2.832-.846-4.464-.846zM275.834 52.38h-3.708V27.972H240.23V52.38h-3.708V1.44h3.708V25.2h31.896V1.44h3.708zM316.005 52.38c-.72 0-1.164-.336-1.332-1.008l-.504-4.572a37.58 37.58 0 01-2.934 2.592 17.599 17.599 0 01-3.042 1.944c-1.056.528-2.196.93-3.42 1.206-1.224.276-2.568.414-4.032.414a11.88 11.88 0 01-3.564-.54 8.795 8.795 0 01-3.06-1.656c-.888-.744-1.602-1.698-2.142-2.862-.54-1.164-.81-2.562-.81-4.194 0-1.512.432-2.916 1.296-4.212.864-1.296 2.214-2.424 4.05-3.384 1.836-.96 4.2-1.728 7.092-2.304 2.892-.576 6.366-.912 10.422-1.008v-3.744c0-3.312-.714-5.862-2.142-7.65-1.428-1.788-3.546-2.682-6.354-2.682-1.728 0-3.198.24-4.41.72-1.212.48-2.238 1.008-3.078 1.584-.84.576-1.524 1.104-2.052 1.584s-.972.72-1.332.72c-.48 0-.84-.216-1.08-.648l-.612-1.044c1.872-1.872 3.84-3.288 5.904-4.248 2.064-.96 4.404-1.44 7.02-1.44 1.92 0 3.6.306 5.04.918 1.44.612 2.634 1.488 3.582 2.628.948 1.14 1.662 2.52 2.142 4.14.48 1.62.72 3.426.72 5.418V52.38h-1.368zm-14.4-1.908c1.392 0 2.67-.15 3.834-.45 1.164-.3 2.244-.72 3.24-1.26a15.82 15.82 0 002.79-1.926 39.694 39.694 0 002.556-2.412V35.1c-3.408.096-6.342.354-8.802.774-2.46.42-4.488.99-6.084 1.71-1.596.72-2.772 1.578-3.528 2.574-.756.996-1.134 2.13-1.134 3.402 0 1.2.198 2.238.594 3.114.396.876.918 1.596 1.566 2.16a6.143 6.143 0 002.268 1.242 9.188 9.188 0 002.7.396zM344.403 52.38h-3.024l-15.12-35.82h2.7c.336 0 .606.09.81.27.204.18.354.378.45.594l11.808 28.26c.24.552.42 1.08.54 1.584l.36 1.512c.12-.504.246-1.014.378-1.53s.306-1.038.522-1.566l11.88-28.26c.12-.264.282-.474.486-.63a1.18 1.18 0 01.738-.234h2.592l-15.12 35.82zM383.025 15.984c2.016 0 3.882.348 5.598 1.044a12.58 12.58 0 014.464 3.042c1.26 1.332 2.244 2.97 2.952 4.914.708 1.944 1.062 4.176 1.062 6.696 0 .528-.078.888-.234 1.08-.156.192-.402.288-.738.288h-25.884v.684c0 2.688.312 5.052.936 7.092.624 2.04 1.512 3.75 2.664 5.13a10.986 10.986 0 004.176 3.114c1.632.696 3.456 1.044 5.472 1.044 1.8 0 3.36-.198 4.68-.594 1.32-.396 2.43-.84 3.33-1.332.9-.492 1.614-.936 2.142-1.332.528-.396.912-.594 1.152-.594.312 0 .552.12.72.36l.936 1.152c-.576.72-1.338 1.392-2.286 2.016A16.315 16.315 0 01391 51.39a23.081 23.081 0 01-3.744 1.062c-1.332.264-2.67.396-4.014.396-2.448 0-4.68-.426-6.696-1.278a14.194 14.194 0 01-5.184-3.726c-1.44-1.632-2.55-3.63-3.33-5.994-.78-2.364-1.17-5.07-1.17-8.118 0-2.568.366-4.938 1.098-7.11.732-2.172 1.788-4.044 3.168-5.616 1.38-1.572 3.072-2.802 5.076-3.69 2.004-.888 4.278-1.332 6.822-1.332zm.036 2.556c-1.848 0-3.504.288-4.968.864a10.87 10.87 0 00-3.798 2.484c-1.068 1.08-1.932 2.376-2.592 3.888-.66 1.512-1.098 3.204-1.314 5.076h23.616c0-1.92-.264-3.642-.792-5.166-.528-1.524-1.272-2.814-2.232-3.87a9.661 9.661 0 00-3.456-2.43c-1.344-.564-2.832-.846-4.464-.846zM410.236 52.38V16.56h1.872c.624 0 .984.3 1.08.9l.324 5.184a22.625 22.625 0 012.232-2.7 14.876 14.876 0 012.538-2.106c.9-.588 1.86-1.044 2.88-1.368a10.58 10.58 0 013.222-.486c2.616 0 4.704.762 6.264 2.286 1.56 1.524 2.616 3.642 3.168 6.354.432-1.488 1.038-2.772 1.818-3.852s1.674-1.974 2.682-2.682a11.14 11.14 0 013.294-1.584 12.932 12.932 0 013.654-.522c1.776 0 3.372.294 4.788.882a9.567 9.567 0 013.618 2.61c.996 1.152 1.758 2.568 2.286 4.248.528 1.68.792 3.6.792 5.76V52.38h-3.456V29.484c0-3.504-.756-6.174-2.268-8.01-1.512-1.836-3.672-2.754-6.48-2.754a9.556 9.556 0 00-3.582.684 8.68 8.68 0 00-3.024 2.034c-.876.9-1.572 2.022-2.088 3.366-.516 1.344-.774 2.904-.774 4.68V52.38h-3.42V29.484c0-3.48-.696-6.144-2.088-7.992-1.392-1.848-3.42-2.772-6.084-2.772-1.944 0-3.744.582-5.4 1.746-1.656 1.164-3.132 2.778-4.428 4.842V52.38h-3.42zM494.29 52.38c-.72 0-1.164-.336-1.332-1.008l-.504-4.572a37.58 37.58 0 01-2.934 2.592 17.599 17.599 0 01-3.042 1.944c-1.056.528-2.196.93-3.42 1.206-1.224.276-2.568.414-4.032.414a11.88 11.88 0 01-3.564-.54 8.795 8.795 0 01-3.06-1.656c-.888-.744-1.602-1.698-2.142-2.862-.54-1.164-.81-2.562-.81-4.194 0-1.512.432-2.916 1.296-4.212.864-1.296 2.214-2.424 4.05-3.384 1.836-.96 4.2-1.728 7.092-2.304 2.892-.576 6.366-.912 10.422-1.008v-3.744c0-3.312-.714-5.862-2.142-7.65-1.428-1.788-3.546-2.682-6.354-2.682-1.728 0-3.198.24-4.41.72-1.212.48-2.238 1.008-3.078 1.584-.84.576-1.524 1.104-2.052 1.584s-.972.72-1.332.72c-.48 0-.84-.216-1.08-.648l-.612-1.044c1.872-1.872 3.84-3.288 5.904-4.248 2.064-.96 4.404-1.44 7.02-1.44 1.92 0 3.6.306 5.04.918 1.44.612 2.634 1.488 3.582 2.628.948 1.14 1.662 2.52 2.142 4.14.48 1.62.72 3.426.72 5.418V52.38h-1.368zm-14.4-1.908c1.392 0 2.67-.15 3.834-.45 1.164-.3 2.244-.72 3.24-1.26a15.82 15.82 0 002.79-1.926 39.694 39.694 0 002.556-2.412V35.1c-3.408.096-6.342.354-8.802.774-2.46.42-4.488.99-6.084 1.71-1.596.72-2.772 1.578-3.528 2.574-.756.996-1.134 2.13-1.134 3.402 0 1.2.198 2.238.594 3.114.396.876.918 1.596 1.566 2.16a6.143 6.143 0 002.268 1.242 9.188 9.188 0 002.7.396zM510.376 52.38V16.56h1.872c.624 0 .984.3 1.08.9l.324 5.4c1.632-2.064 3.534-3.726 5.706-4.986 2.172-1.26 4.59-1.89 7.254-1.89 1.968 0 3.702.312 5.202.936 1.5.624 2.742 1.524 3.726 2.7.984 1.176 1.728 2.592 2.232 4.248.504 1.656.756 3.528.756 5.616V52.38h-3.42V29.484c0-3.36-.768-5.994-2.304-7.902-1.536-1.908-3.888-2.862-7.056-2.862a12.49 12.49 0 00-6.552 1.818c-2.016 1.212-3.816 2.874-5.4 4.986V52.38h-3.42z"/><g><path d="M0 61.38h69.366v2.5H0zM69.366 61.38h21.019v2.5H69.366zM90.385 61.38h42.87v2.5h-42.87zM133.255 61.38h37.182v2.5h-37.182zM170.437 61.38h40.711v2.5h-40.711z"/><path d="M211.148 61.38h17.814v2.5h-17.814zM228.962 61.38h58.351v2.5h-58.351zM287.313 61.38h38.046v2.5h-38.046zM325.359 61.38h38.334v2.5h-38.334zM363.693 61.38h40.711v2.5h-40.711zM404.404 61.38h61.194v2.5h-61.194z"/><path d="M465.598 61.38h38.946v2.5h-38.946zM504.544 61.38h33.984v2.5h-33.984z"/></g></g></svg>
