<svg width="95" height="133" xmlns="http://www.w3.org/2000/svg"><g fill="none" fill-rule="evenodd"><rect fill="#313B44" x="34" width="30" height="5" rx="2.5"/><g transform="translate(0 8)"><rect fill="#0027FF" x="29" y="120" width="30" height="5" rx="2.5"/><rect fill="#0027FF" x="15" width="30" height="5" rx="2.5"/><rect fill="#313B44" x="10" y="112" width="30" height="5" rx="2.5"/><rect fill="#FFB24F" x="13" y="56" width="30" height="5" rx="2.5"/><rect fill="#FFB24F" x="4" y="16" width="30" height="5" rx="2.5"/><rect fill="#FD8085" x="39.667" y="8" width="40" height="5" rx="2.5"/><rect fill="#FD8085" x="25" y="48" width="40" height="5" rx="2.5"/><rect fill="#AB6CFE" x="29" y="64" width="40" height="5" rx="2.5"/><rect fill="#AB6CFE" x="49" y="104" width="40" height="5" rx="2.5"/><rect fill="#0027FF" x="3" y="40" width="30" height="5" rx="2.5"/><rect fill="#0027FF" x="49" width="20" height="5" rx="2.5"/><rect fill="#313B44" x="44" y="112" width="20" height="5" rx="2.5"/><rect fill="#AB6CFE" x="10" y="24" width="20" height="5" rx="2.5"/><rect fill="#313B44" x="73" y="72" width="20" height="5" rx="2.5"/><rect fill="#FD8085" x="75" y="88" width="20" height="5" rx="2.5"/><rect fill="#313B44" y="32" width="20" height="5" rx="2.5"/><rect fill="#0027FF" x="67" y="80" width="20" height="5" rx="2.5"/><rect fill="#FFB24F" x="56" y="56" width="20" height="5" rx="2.5"/><rect fill="#AB6CFE" x="16" y="104" width="20" height="5" rx="2.5"/><rect fill="#FD8085" x="8" y="8" width="20" height="5" rx="2.5"/><rect fill="#0027FF" x="73" width="10" height="5" rx="2.5"/><rect fill="#313B44" x="68" y="112" width="10" height="5" rx="2.5"/><rect fill="#FFB24F" x="63" y="96" width="10" height="5" rx="2.5"/><rect fill="#FFB24F" x="78" y="96" width="15" height="5" rx="2.5"/><rect fill="#FD8085" x="6" y="48" width="15" height="5" rx="2.5"/><rect fill="#AB6CFE" x="75" y="64" width="15" height="5" rx="2.5"/><rect fill="#FD8085" x="31.333" y="8" width="5" height="5" rx="2.5"/><rect fill="#AB6CFE" x="1" y="24" width="5" height="5" rx="2.5"/><rect fill="#313B44" x="64" y="72" width="5" height="5" rx="2.5"/><rect fill="#FD8085" x="66" y="88" width="5" height="5" rx="2.5"/><rect fill="#313B44" x="23" y="32" width="5" height="5" rx="2.5"/><rect fill="#0027FF" x="90" y="80" width="5" height="5" rx="2.5"/><rect fill="#FFB24F" x="47" y="56" width="5" height="5" rx="2.5"/><rect fill="#AB6CFE" x="5" y="104" width="5" height="5" rx="2.5"/><rect fill="#FFB24F" x="12" y="96" width="5" height="5" rx="2.5"/><rect fill="#FD8085" x="83" y="8" width="5" height="5" rx="2.5"/><rect fill="#FFB24F" x="73" y="16" width="5" height="5" rx="2.5"/><rect fill="#FFB24F" x="80" y="56" width="5" height="5" rx="2.5"/><rect fill="#AB6CFE" x="41" y="104" width="5" height="5" rx="2.5"/></g></g></svg>